<?xml version="1.0" encoding="UTF-8" standalone="no"?>
<!DOCTYPE svg PUBLIC "-//W3C//DTD SVG 1.1//EN" "http://www.w3.org/Graphics/SVG/1.1/DTD/svg11.dtd">
<svg xmlns="http://www.w3.org/2000/svg" version="1.1" viewBox="0.00 0.00 312.00 320.00">
<g stroke-width="2.00" fill="none" stroke-linecap="butt">
<path stroke="#97760f" vector-effect="non-scaling-stroke" d="
  M 125.51 84.23
  L 95.73 84.25
  A 0.53 0.53 0.0 0 0 95.20 84.79
  L 95.31 99.27"
/>
<path stroke="#a7c88f" vector-effect="non-scaling-stroke" d="
  M 95.31 99.27
  L 80.65 99.26
  A 0.65 0.64 90.0 0 0 80.01 99.91
  L 80.02 114.48"
/>
<path stroke="#949942" vector-effect="non-scaling-stroke" d="
  M 80.02 114.48
  L 80.03 144.45
  Q 80.03 144.93 80.51 144.93
  L 94.82 144.90
  A 0.38 0.37 0.0 0 1 95.20 145.27
  L 95.21 159.74
  A 0.29 0.28 -0.0 0 0 95.50 160.02
  L 110.39 160.00"
/>
<path stroke="#97760f" vector-effect="non-scaling-stroke" d="
  M 110.39 160.00
  L 110.32 204.93
  Q 110.32 205.47 110.86 205.47
  L 125.53 205.39"
/>
<path stroke="#a7c88f" vector-effect="non-scaling-stroke" d="
  M 125.53 205.39
  Q 125.53 205.06 125.75 205.50"
/>
<path stroke="#97760f" vector-effect="non-scaling-stroke" d="
  M 125.75 205.50
  L 125.53 251.14"
/>
<path stroke="#46821a" vector-effect="non-scaling-stroke" d="
  M 125.53 251.14
  L 95.85 251.15
  A 0.61 0.61 0.0 0 0 95.24 251.76
  L 95.23 265.25
  A 0.98 0.97 -89.7 0 1 94.25 266.23
  L 80.66 266.18
  A 0.66 0.66 0.0 0 0 79.99 266.84
  L 80.00 280.49
  A 0.99 0.99 0.0 0 0 80.99 281.48
  L 94.59 281.47
  Q 95.22 281.47 95.22 282.09
  L 95.18 295.84
  A 0.67 0.67 0.0 0 0 95.84 296.51
  L 231.23 296.51
  A 0.49 0.48 -90.0 0 0 231.71 296.02
  L 231.68 282.04
  A 0.28 0.28 0.0 0 1 231.96 281.76
  L 246.53 281.42
  A 0.45 0.45 0.0 0 0 246.97 280.97
  L 246.93 267.38
  A 1.26 1.26 0.0 0 0 245.68 266.12
  L 232.17 266.04
  A 0.62 0.61 -89.5 0 1 231.56 265.41
  L 231.70 251.96
  A 0.77 0.77 0.0 0 0 230.93 251.18
  L 201.31 251.05"
/>
<path stroke="#97760f" vector-effect="non-scaling-stroke" d="
  M 201.31 251.05
  L 201.27 235.78"
/>
<path stroke="#a7c88f" vector-effect="non-scaling-stroke" d="
  M 201.27 235.78
  L 201.26 190.90
  Q 201.26 190.37 200.73 190.37
  L 186.55 190.37
  Q 186.24 190.37 186.24 190.05
  L 186.25 175.51
  A 0.34 0.34 0.0 0 0 186.05 175.20
  Q 185.85 175.10 185.78 175.23"
/>
<path stroke="#97760f" vector-effect="non-scaling-stroke" d="
  M 185.78 175.23
  L 186.10 174.45
  Q 186.27 174.05 186.27 173.61
  L 186.27 160.74
  A 0.75 0.74 -90.0 0 1 187.01 159.99
  L 200.74 160.02
  A 0.52 0.52 0.0 0 0 201.26 159.49
  L 201.21 144.92"
/>
<path stroke="#949942" vector-effect="non-scaling-stroke" d="
  M 201.21 144.92
  L 215.96 144.94
  Q 216.49 144.94 216.49 144.41
  L 216.54 114.64"
/>
<path stroke="#a7c88f" vector-effect="non-scaling-stroke" d="
  M 216.54 114.64
  L 216.52 99.84
  Q 216.52 99.29 215.97 99.29
  L 201.17 99.29"
/>
<path stroke="#8db68d" vector-effect="non-scaling-stroke" d="
  M 201.17 99.29
  L 201.23 84.83
  Q 201.24 84.28 200.69 84.28
  L 186.18 84.27"
/>
<path stroke="#949942" vector-effect="non-scaling-stroke" d="
  M 186.18 84.27
  L 186.19 54.01"
/>
<path stroke="#a7c88f" vector-effect="non-scaling-stroke" d="
  M 186.19 54.01
  L 200.78 53.98
  Q 201.27 53.98 201.27 53.48
  L 201.27 39.22
  Q 201.27 38.66 200.72 38.66
  L 186.83 38.66
  Q 186.24 38.66 186.24 38.07
  L 186.25 24.03
  Q 186.25 23.55 185.78 23.55
  L 140.94 23.55
  A 0.26 0.26 0.0 0 0 140.68 23.81
  L 140.65 38.02
  A 0.67 0.67 0.0 0 1 139.98 38.68
  L 126.03 38.66
  A 0.52 0.51 90.0 0 0 125.52 39.18
  L 125.51 84.23"
/>
<path stroke="#edd0b3" vector-effect="non-scaling-stroke" d="
  M 186.19 54.01
  L 156.60 54.05
  Q 156.03 54.05 156.03 54.61
  L 156.05 68.94"
/>
<path stroke="#e6eefe" vector-effect="non-scaling-stroke" d="
  M 156.05 68.94
  L 155.99 84.25"
/>
<path stroke="#edd0b3" vector-effect="non-scaling-stroke" d="
  M 155.99 84.25
  L 155.91 99.24"
/>
<path stroke="#f0ad80" vector-effect="non-scaling-stroke" d="
  M 155.91 99.24
  L 141.15 99.25
  Q 140.65 99.25 140.65 98.75
  L 140.66 84.78
  Q 140.66 84.26 140.13 84.25
  L 125.51 84.23"
/>
<path stroke="#e6eefe" vector-effect="non-scaling-stroke" d="
  M 201.17 99.29
  Q 194.30 99.30 187.75 99.28
  Q 186.66 99.27 186.28 99.70"
/>
<path stroke="#d69c7e" vector-effect="non-scaling-stroke" d="
  M 186.28 99.70
  Q 186.22 99.26 185.25 99.26
  Q 178.00 99.28 170.81 99.28"
/>
<path stroke="#d3bfb1" vector-effect="non-scaling-stroke" d="
  M 170.81 99.28
  L 170.87 84.84
  Q 170.87 84.27 170.30 84.27
  L 155.99 84.25"
/>
<path stroke="#dd7e33" vector-effect="non-scaling-stroke" d="
  M 170.81 99.28
  Q 170.85 99.29 170.88 99.30"
/>
<path stroke="#a95e3c" vector-effect="non-scaling-stroke" d="
  M 170.88 99.30
  L 156.72 99.31"
/>
<path stroke="#dd7e33" vector-effect="non-scaling-stroke" d="
  M 155.91 99.24
  Q 155.97 99.51 156.72 99.31"
/>
<path stroke="#ac3b09" vector-effect="non-scaling-stroke" d="
  M 156.72 99.31
  Q 156.07 99.40 156.07 99.75
  Q 155.95 107.02 155.97 114.54"
/>
<path stroke="#dd7e33" vector-effect="non-scaling-stroke" d="
  M 155.97 114.54
  L 141.21 114.54
  A 0.58 0.58 0.0 0 0 140.63 115.11
  L 140.61 129.43
  A 0.29 0.29 0.0 0 1 140.32 129.72
  L 110.75 129.71
  A 0.44 0.44 0.0 0 1 110.31 129.27
  L 110.33 114.35"
/>
<path stroke="#f0ad80" vector-effect="non-scaling-stroke" d="
  M 110.33 114.35
  L 110.27 99.87
  Q 110.27 99.31 109.70 99.30
  L 95.31 99.27"
/>
<path stroke="#d3bfb1" vector-effect="non-scaling-stroke" d="
  M 186.18 84.27
  L 171.44 84.25
  A 0.48 0.48 0.0 0 1 170.96 83.77
  L 170.96 69.49
  Q 170.96 68.95 170.42 68.95
  L 156.05 68.94"
/>
<path stroke="#edd0b3" vector-effect="non-scaling-stroke" d="
  M 216.54 114.64
  L 186.28 114.28"
/>
<path stroke="#f0ad80" vector-effect="non-scaling-stroke" d="
  M 186.28 99.70
  L 186.28 114.28"
/>
<path stroke="#dd7e33" vector-effect="non-scaling-stroke" d="
  M 186.28 114.28
  L 186.25 114.65"
/>
<path stroke="#ac3b09" vector-effect="non-scaling-stroke" d="
  M 170.88 99.30
  L 170.95 114.01
  A 0.59 0.59 0.0 0 0 171.54 114.60
  L 186.25 114.65"
/>
<path stroke="#a95e3c" vector-effect="non-scaling-stroke" d="
  M 186.25 114.65
  L 186.26 144.91"
/>
<path stroke="#ac3b09" vector-effect="non-scaling-stroke" d="
  M 186.26 144.91
  L 186.26 159.72
  A 0.28 0.28 0.0 0 1 185.98 160.00
  L 171.49 160.01
  Q 170.93 160.01 170.94 160.56
  L 170.96 175.24"
/>
<path stroke="#bb8d88" vector-effect="non-scaling-stroke" d="
  M 170.96 175.24
  L 155.95 175.24"
/>
<path stroke="#ac3b09" vector-effect="non-scaling-stroke" d="
  M 155.95 175.24
  L 155.98 159.97"
/>
<path stroke="#a95e3c" vector-effect="non-scaling-stroke" d="
  M 155.98 159.97
  L 156.00 145.42
  Q 156.00 144.86 156.56 144.86
  L 170.51 144.93
  Q 170.95 144.93 170.95 144.49
  L 170.93 115.01
  A 0.47 0.46 -0.0 0 0 170.46 114.55
  L 155.97 114.54"
/>
<path stroke="#dd7e33" vector-effect="non-scaling-stroke" d="
  M 155.98 159.97
  L 110.39 160.00"
/>
<path stroke="#edd0b3" vector-effect="non-scaling-stroke" d="
  M 110.33 114.35
  L 80.02 114.48"
/>
<path stroke="#dd7e33" vector-effect="non-scaling-stroke" d="
  M 201.21 144.92
  L 186.26 144.91"
/>
<path stroke="#f0ad80" vector-effect="non-scaling-stroke" d="
  M 201.27 235.78
  L 171.20 235.78"
/>
<path stroke="#a7c88f" vector-effect="non-scaling-stroke" d="
  M 171.20 235.78
  L 170.96 206.00
  Q 170.95 205.51 170.46 205.51
  L 156.51 205.51
  Q 155.98 205.51 155.98 206.04
  L 155.96 235.88"
/>
<path stroke="#f0ad80" vector-effect="non-scaling-stroke" d="
  M 155.96 235.88
  L 141.11 235.83
  A 0.45 0.45 0.0 0 1 140.66 235.38
  L 140.65 205.84
  A 0.32 0.32 0.0 0 0 140.33 205.52
  L 125.75 205.50"
/>
<path stroke="#f0ad80" vector-effect="non-scaling-stroke" d="
  M 155.95 175.24
  L 125.93 175.24
  A 0.40 0.40 0.0 0 0 125.53 175.64
  L 125.53 205.39"
/>
<path stroke="#f0ad80" vector-effect="non-scaling-stroke" d="
  M 185.78 175.23
  L 170.96 175.24"
/>
<path stroke="#8f670b" vector-effect="non-scaling-stroke" d="
  M 201.31 251.05
  L 201.36 266.22"
/>
<path stroke="#f0ad80" vector-effect="non-scaling-stroke" d="
  M 201.36 266.22
  L 170.94 266.22"
/>
<path stroke="#8f670b" vector-effect="non-scaling-stroke" d="
  M 170.94 266.22
  L 170.96 251.10"
/>
<path stroke="#97760f" vector-effect="non-scaling-stroke" d="
  M 155.96 235.88
  L 155.96 250.93"
/>
<path stroke="#8f670b" vector-effect="non-scaling-stroke" d="
  M 155.96 250.93
  L 155.91 266.15"
/>
<path stroke="#f0ad80" vector-effect="non-scaling-stroke" d="
  M 155.91 266.15
  L 125.56 266.16"
/>
<path stroke="#8f670b" vector-effect="non-scaling-stroke" d="
  M 125.56 266.16
  L 125.53 251.14"
/>
<path stroke="#97760f" vector-effect="non-scaling-stroke" d="
  M 171.20 235.78
  L 170.96 251.10"
/>
<path stroke="#46821a" vector-effect="non-scaling-stroke" d="
  M 170.96 251.10
  L 155.96 250.93"
/>
<path stroke="#9eb98b" vector-effect="non-scaling-stroke" d="
  M 170.94 266.22
  L 170.99 280.96
  Q 171.00 281.48 171.51 281.48
  L 216.06 281.45
  A 0.51 0.51 0.0 0 0 216.57 280.94
  L 216.57 266.76
  Q 216.57 266.20 216.02 266.20
  L 201.36 266.22"
/>
<path stroke="#9eb98b" vector-effect="non-scaling-stroke" d="
  M 125.56 266.16
  L 125.57 280.83
  Q 125.57 281.47 126.21 281.47
  L 155.48 281.47
  Q 155.94 281.47 155.94 281.01
  L 155.91 266.15"
/>
<path stroke="#f0ad80" vector-effect="non-scaling-stroke" d="
  M 156.00 39.11
  A 0.49 0.49 0.0 0 0 155.51 38.62
  L 141.11 38.62
  A 0.49 0.49 0.0 0 0 140.62 39.11
  L 140.62 53.51
  A 0.49 0.49 0.0 0 0 141.11 54.00
  L 155.51 54.00
  A 0.49 0.49 0.0 0 0 156.00 53.51
  L 156.00 39.11"
/>
</g>
<path fill="#4e901e" d="
  M 301.26 265.13
  C 294.01 286.45 276.91 301.71 255.50 306.80
  C 246.37 308.97 237.00 309.27 226.12 309.28
  Q 152.06 309.36 78.00 309.30
  Q 68.62 309.29 56.25 306.77
  C 33.40 302.11 14.58 282.76 9.16 260.52
  C 6.89 251.20 6.40 241.07 6.40 230.11
  Q 6.36 156.43 6.35 82.75
  C 6.35 73.41 7.97 61.67 11.10 53.03
  C 18.14 33.67 34.82 18.39 54.76 13.49
  Q 66.24 10.66 80.00 10.65
  Q 191.12 10.55 234.75 10.74
  C 249.66 10.80 264.86 14.11 277.73 23.29
  C 296.99 37.03 304.75 56.70 304.83 79.75
  Q 305.14 160.00 304.81 240.25
  C 304.77 248.44 303.92 257.32 301.26 265.13
  Z
  M 125.51 84.23
  L 95.73 84.25
  A 0.53 0.53 0.0 0 0 95.20 84.79
  L 95.31 99.27
  L 80.65 99.26
  A 0.65 0.64 90.0 0 0 80.01 99.91
  L 80.02 114.48
  L 80.03 144.45
  Q 80.03 144.93 80.51 144.93
  L 94.82 144.90
  A 0.38 0.37 0.0 0 1 95.20 145.27
  L 95.21 159.74
  A 0.29 0.28 -0.0 0 0 95.50 160.02
  L 110.39 160.00
  L 110.32 204.93
  Q 110.32 205.47 110.86 205.47
  L 125.53 205.39
  Q 125.53 205.06 125.75 205.50
  L 125.53 251.14
  L 95.85 251.15
  A 0.61 0.61 0.0 0 0 95.24 251.76
  L 95.23 265.25
  A 0.98 0.97 -89.7 0 1 94.25 266.23
  L 80.66 266.18
  A 0.66 0.66 0.0 0 0 79.99 266.84
  L 80.00 280.49
  A 0.99 0.99 0.0 0 0 80.99 281.48
  L 94.59 281.47
  Q 95.22 281.47 95.22 282.09
  L 95.18 295.84
  A 0.67 0.67 0.0 0 0 95.84 296.51
  L 231.23 296.51
  A 0.49 0.48 -90.0 0 0 231.71 296.02
  L 231.68 282.04
  A 0.28 0.28 0.0 0 1 231.96 281.76
  L 246.53 281.42
  A 0.45 0.45 0.0 0 0 246.97 280.97
  L 246.93 267.38
  A 1.26 1.26 0.0 0 0 245.68 266.12
  L 232.17 266.04
  A 0.62 0.61 -89.5 0 1 231.56 265.41
  L 231.70 251.96
  A 0.77 0.77 0.0 0 0 230.93 251.18
  L 201.31 251.05
  L 201.27 235.78
  L 201.26 190.90
  Q 201.26 190.37 200.73 190.37
  L 186.55 190.37
  Q 186.24 190.37 186.24 190.05
  L 186.25 175.51
  A 0.34 0.34 0.0 0 0 186.05 175.20
  Q 185.85 175.10 185.78 175.23
  L 186.10 174.45
  Q 186.27 174.05 186.27 173.61
  L 186.27 160.74
  A 0.75 0.74 -90.0 0 1 187.01 159.99
  L 200.74 160.02
  A 0.52 0.52 0.0 0 0 201.26 159.49
  L 201.21 144.92
  L 215.96 144.94
  Q 216.49 144.94 216.49 144.41
  L 216.54 114.64
  L 216.52 99.84
  Q 216.52 99.29 215.97 99.29
  L 201.17 99.29
  L 201.23 84.83
  Q 201.24 84.28 200.69 84.28
  L 186.18 84.27
  L 186.19 54.01
  L 200.78 53.98
  Q 201.27 53.98 201.27 53.48
  L 201.27 39.22
  Q 201.27 38.66 200.72 38.66
  L 186.83 38.66
  Q 186.24 38.66 186.24 38.07
  L 186.25 24.03
  Q 186.25 23.55 185.78 23.55
  L 140.94 23.55
  A 0.26 0.26 0.0 0 0 140.68 23.81
  L 140.65 38.02
  A 0.67 0.67 0.0 0 1 139.98 38.68
  L 126.03 38.66
  A 0.52 0.51 90.0 0 0 125.52 39.18
  L 125.51 84.23
  Z"
/>
<path fill="#ffffff" d="
  M 186.19 54.01
  L 156.60 54.05
  Q 156.03 54.05 156.03 54.61
  L 156.05 68.94
  L 155.99 84.25
  L 155.91 99.24
  L 141.15 99.25
  Q 140.65 99.25 140.65 98.75
  L 140.66 84.78
  Q 140.66 84.26 140.13 84.25
  L 125.51 84.23
  L 125.52 39.18
  A 0.52 0.51 90.0 0 1 126.03 38.66
  L 139.98 38.68
  A 0.67 0.67 0.0 0 0 140.65 38.02
  L 140.68 23.81
  A 0.26 0.26 0.0 0 1 140.94 23.55
  L 185.78 23.55
  Q 186.25 23.55 186.25 24.03
  L 186.24 38.07
  Q 186.24 38.66 186.83 38.66
  L 200.72 38.66
  Q 201.27 38.66 201.27 39.22
  L 201.27 53.48
  Q 201.27 53.98 200.78 53.98
  L 186.19 54.01
  Z
  M 156.00 39.11
  A 0.49 0.49 0.0 0 0 155.51 38.62
  L 141.11 38.62
  A 0.49 0.49 0.0 0 0 140.62 39.11
  L 140.62 53.51
  A 0.49 0.49 0.0 0 0 141.11 54.00
  L 155.51 54.00
  A 0.49 0.49 0.0 0 0 156.00 53.51
  L 156.00 39.11
  Z"
/>
<rect fill="#e05b00" x="140.62" y="38.62" width="15.38" height="15.38" rx="0.49"/>
<path fill="#daa166" d="
  M 186.19 54.01
  L 186.18 84.27
  L 171.44 84.25
  A 0.48 0.48 0.0 0 1 170.96 83.77
  L 170.96 69.49
  Q 170.96 68.95 170.42 68.95
  L 156.05 68.94
  L 156.03 54.61
  Q 156.03 54.05 156.60 54.05
  L 186.19 54.01
  Z"
/>
<path fill="#ccdcfc" d="
  M 186.18 84.27
  L 200.69 84.28
  Q 201.24 84.28 201.23 84.83
  L 201.17 99.29
  Q 194.30 99.30 187.75 99.28
  Q 186.66 99.27 186.28 99.70
  Q 186.22 99.26 185.25 99.26
  Q 178.00 99.28 170.81 99.28
  L 170.87 84.84
  Q 170.87 84.27 170.30 84.27
  L 155.99 84.25
  L 156.05 68.94
  L 170.42 68.95
  Q 170.96 68.95 170.96 69.49
  L 170.96 83.77
  A 0.48 0.48 0.0 0 0 171.44 84.25
  L 186.18 84.27
  Z"
/>
<path fill="#e05b00" d="
  M 125.51 84.23
  L 140.13 84.25
  Q 140.66 84.26 140.66 84.78
  L 140.65 98.75
  Q 140.65 99.25 141.15 99.25
  L 155.91 99.24
  Q 155.97 99.51 156.72 99.31
  Q 156.07 99.40 156.07 99.75
  Q 155.95 107.02 155.97 114.54
  L 141.21 114.54
  A 0.58 0.58 0.0 0 0 140.63 115.11
  L 140.61 129.43
  A 0.29 0.29 0.0 0 1 140.32 129.72
  L 110.75 129.71
  A 0.44 0.44 0.0 0 1 110.31 129.27
  L 110.33 114.35
  L 110.27 99.87
  Q 110.27 99.31 109.70 99.30
  L 95.31 99.27
  L 95.20 84.79
  A 0.53 0.53 0.0 0 1 95.73 84.25
  L 125.51 84.23
  Z"
/>
<path fill="#daa166" d="
  M 155.99 84.25
  L 170.30 84.27
  Q 170.87 84.27 170.87 84.84
  L 170.81 99.28
  Q 170.85 99.29 170.88 99.30
  L 156.72 99.31
  Q 155.97 99.51 155.91 99.24
  L 155.99 84.25
  Z"
/>
<path fill="#ffffff" d="
  M 95.31 99.27
  L 109.70 99.30
  Q 110.27 99.31 110.27 99.87
  L 110.33 114.35
  L 80.02 114.48
  L 80.01 99.91
  A 0.65 0.64 90.0 0 1 80.65 99.26
  L 95.31 99.27
  Z"
/>
<path fill="#771a11" d="
  M 156.72 99.31
  L 170.88 99.30
  L 170.95 114.01
  A 0.59 0.59 0.0 0 0 171.54 114.60
  L 186.25 114.65
  L 186.26 144.91
  L 186.26 159.72
  A 0.28 0.28 0.0 0 1 185.98 160.00
  L 171.49 160.01
  Q 170.93 160.01 170.94 160.56
  L 170.96 175.24
  L 155.95 175.24
  L 155.98 159.97
  L 156.00 145.42
  Q 156.00 144.86 156.56 144.86
  L 170.51 144.93
  Q 170.95 144.93 170.95 144.49
  L 170.93 115.01
  A 0.47 0.46 -0.0 0 0 170.46 114.55
  L 155.97 114.54
  Q 155.95 107.02 156.07 99.75
  Q 156.07 99.40 156.72 99.31
  Z"
/>
<path fill="#e05b00" d="
  M 170.88 99.30
  Q 170.85 99.29 170.81 99.28
  Q 178.00 99.28 185.25 99.26
  Q 186.22 99.26 186.28 99.70
  L 186.28 114.28
  L 186.25 114.65
  L 171.54 114.60
  A 0.59 0.59 0.0 0 1 170.95 114.01
  L 170.88 99.30
  Z"
/>
<path fill="#ffffff" d="
  M 201.17 99.29
  L 215.97 99.29
  Q 216.52 99.29 216.52 99.84
  L 216.54 114.64
  L 186.28 114.28
  L 186.28 99.70
  Q 186.66 99.27 187.75 99.28
  Q 194.30 99.30 201.17 99.29
  Z"
/>
<path fill="#daa166" d="
  M 110.33 114.35
  L 110.31 129.27
  A 0.44 0.44 0.0 0 0 110.75 129.71
  L 140.32 129.72
  A 0.29 0.29 0.0 0 0 140.61 129.43
  L 140.63 115.11
  A 0.58 0.58 0.0 0 1 141.21 114.54
  L 155.97 114.54
  L 170.46 114.55
  A 0.47 0.46 0.0 0 1 170.93 115.01
  L 170.95 144.49
  Q 170.95 144.93 170.51 144.93
  L 156.56 144.86
  Q 156.00 144.86 156.00 145.42
  L 155.98 159.97
  L 110.39 160.00
  L 95.50 160.02
  A 0.29 0.28 -0.0 0 1 95.21 159.74
  L 95.20 145.27
  A 0.38 0.37 -0.0 0 0 94.82 144.90
  L 80.51 144.93
  Q 80.03 144.93 80.03 144.45
  L 80.02 114.48
  L 110.33 114.35
  Z"
/>
<path fill="#daa166" d="
  M 186.28 114.28
  L 216.54 114.64
  L 216.49 144.41
  Q 216.49 144.94 215.96 144.94
  L 201.21 144.92
  L 186.26 144.91
  L 186.25 114.65
  L 186.28 114.28
  Z"
/>
<path fill="#e05b00" d="
  M 186.26 144.91
  L 201.21 144.92
  L 201.26 159.49
  A 0.52 0.52 0.0 0 1 200.74 160.02
  L 187.01 159.99
  A 0.75 0.74 -90.0 0 0 186.27 160.74
  L 186.27 173.61
  Q 186.27 174.05 186.10 174.45
  L 185.78 175.23
  L 170.96 175.24
  L 170.94 160.56
  Q 170.93 160.01 171.49 160.01
  L 185.98 160.00
  A 0.28 0.28 0.0 0 0 186.26 159.72
  L 186.26 144.91
  Z"
/>
<path fill="#e05b00" d="
  M 155.98 159.97
  L 155.95 175.24
  L 125.93 175.24
  A 0.40 0.40 0.0 0 0 125.53 175.64
  L 125.53 205.39
  L 110.86 205.47
  Q 110.32 205.47 110.32 204.93
  L 110.39 160.00
  L 155.98 159.97
  Z"
/>
<path fill="#ffffff" d="
  M 155.95 175.24
  L 170.96 175.24
  L 185.78 175.23
  Q 185.85 175.10 186.05 175.20
  A 0.34 0.34 0.0 0 1 186.25 175.51
  L 186.24 190.05
  Q 186.24 190.37 186.55 190.37
  L 200.73 190.37
  Q 201.26 190.37 201.26 190.90
  L 201.27 235.78
  L 171.20 235.78
  L 170.96 206.00
  Q 170.95 205.51 170.46 205.51
  L 156.51 205.51
  Q 155.98 205.51 155.98 206.04
  L 155.96 235.88
  L 141.11 235.83
  A 0.45 0.45 0.0 0 1 140.66 235.38
  L 140.65 205.84
  A 0.32 0.32 0.0 0 0 140.33 205.52
  L 125.75 205.50
  Q 125.53 205.06 125.53 205.39
  L 125.53 175.64
  A 0.40 0.40 0.0 0 1 125.93 175.24
  L 155.95 175.24
  Z"
/>
<path fill="#e05b00" d="
  M 125.75 205.50
  L 140.33 205.52
  A 0.32 0.32 0.0 0 1 140.65 205.84
  L 140.66 235.38
  A 0.45 0.45 0.0 0 0 141.11 235.83
  L 155.96 235.88
  L 155.96 250.93
  L 155.91 266.15
  L 125.56 266.16
  L 125.53 251.14
  L 125.75 205.50
  Z"
/>
<path fill="#4e901e" d="
  M 171.20 235.78
  L 170.96 251.10
  L 155.96 250.93
  L 155.96 235.88
  L 155.98 206.04
  Q 155.98 205.51 156.51 205.51
  L 170.46 205.51
  Q 170.95 205.51 170.96 206.00
  L 171.20 235.78
  Z"
/>
<path fill="#e05b00" d="
  M 171.20 235.78
  L 201.27 235.78
  L 201.31 251.05
  L 201.36 266.22
  L 170.94 266.22
  L 170.96 251.10
  L 171.20 235.78
  Z"
/>
<path fill="#3d7316" d="
  M 155.96 250.93
  L 170.96 251.10
  L 170.94 266.22
  L 170.99 280.96
  Q 171.00 281.48 171.51 281.48
  L 216.06 281.45
  A 0.51 0.51 0.0 0 0 216.57 280.94
  L 216.57 266.76
  Q 216.57 266.20 216.02 266.20
  L 201.36 266.22
  L 201.31 251.05
  L 230.93 251.18
  A 0.77 0.77 0.0 0 1 231.70 251.96
  L 231.56 265.41
  A 0.62 0.61 -89.5 0 0 232.17 266.04
  L 245.68 266.12
  A 1.26 1.26 0.0 0 1 246.93 267.38
  L 246.97 280.97
  A 0.45 0.45 0.0 0 1 246.53 281.42
  L 231.96 281.76
  A 0.28 0.28 0.0 0 0 231.68 282.04
  L 231.71 296.02
  A 0.49 0.48 -90.0 0 1 231.23 296.51
  L 95.84 296.51
  A 0.67 0.67 0.0 0 1 95.18 295.84
  L 95.22 282.09
  Q 95.22 281.47 94.59 281.47
  L 80.99 281.48
  A 0.99 0.99 0.0 0 1 80.00 280.49
  L 79.99 266.84
  A 0.66 0.66 0.0 0 1 80.66 266.18
  L 94.25 266.23
  A 0.98 0.97 -89.7 0 0 95.23 265.25
  L 95.24 251.76
  A 0.61 0.61 0.0 0 1 95.85 251.15
  L 125.53 251.14
  L 125.56 266.16
  L 125.57 280.83
  Q 125.57 281.47 126.21 281.47
  L 155.48 281.47
  Q 155.94 281.47 155.94 281.01
  L 155.91 266.15
  L 155.96 250.93
  Z"
/>
<path fill="#ffffff" d="
  M 125.56 266.16
  L 155.91 266.15
  L 155.94 281.01
  Q 155.94 281.47 155.48 281.47
  L 126.21 281.47
  Q 125.57 281.47 125.57 280.83
  L 125.56 266.16
  Z"
/>
<path fill="#ffffff" d="
  M 170.94 266.22
  L 201.36 266.22
  L 216.02 266.20
  Q 216.57 266.20 216.57 266.76
  L 216.57 280.94
  A 0.51 0.51 0.0 0 1 216.06 281.45
  L 171.51 281.48
  Q 171.00 281.48 170.99 280.96
  L 170.94 266.22
  Z"
/>
</svg>
