<?xml version="1.0" encoding="UTF-8" standalone="no"?>
<!DOCTYPE svg PUBLIC "-//W3C//DTD SVG 1.1//EN" "http://www.w3.org/Graphics/SVG/1.1/DTD/svg11.dtd">
<svg xmlns="http://www.w3.org/2000/svg" version="1.1" viewBox="0.00 0.00 200.00 200.00">
<g stroke-width="2.00" fill="none" stroke-linecap="butt">
<path stroke="#002c00" vector-effect="non-scaling-stroke" d="
  M 200.00 129.90
  Q 196.48 128.15 192.84 128.94"
/>
<path stroke="#025a01" vector-effect="non-scaling-stroke" d="
  M 192.84 128.94
  L 185.44 129.04"
/>
<path stroke="#007f00" vector-effect="non-scaling-stroke" d="
  M 185.44 129.04
  L 152.50 129.07
  Q 152.10 129.07 152.29 128.71
  C 154.71 124.09 156.24 121.58 156.71 115.39
  Q 156.74 114.89 157.04 114.48
  C 159.54 111.11 160.00 109.06 160.83 105.01
  C 161.33 102.58 162.90 99.30 162.28 96.75
  Q 161.80 94.79 161.46 96.78
  Q 160.48 102.51 157.98 107.73
  Q 157.08 109.60 157.01 107.53
  C 156.44 91.14 146.59 79.97 133.61 71.49
  Q 133.18 71.21 133.20 70.70
  Q 133.23 70.05 133.57 69.30"
/>
<path stroke="#013700" vector-effect="non-scaling-stroke" d="
  M 133.57 69.30
  Q 134.45 67.61 134.27 66.38"
/>
<path stroke="#007f00" vector-effect="non-scaling-stroke" d="
  M 134.27 66.38
  L 134.60 64.73"
/>
<path stroke="#025a01" vector-effect="non-scaling-stroke" d="
  M 134.60 64.73
  Q 135.52 61.61 135.34 58.50"
/>
<path stroke="#007f00" vector-effect="non-scaling-stroke" d="
  M 135.34 58.50
  Q 136.18 53.32 135.12 49.19
  Q 134.69 47.52 136.07 48.54
  C 141.89 52.80 146.28 55.80 151.60 62.48
  C 153.68 65.10 155.05 68.40 157.05 71.32
  C 157.54 72.04 157.59 72.94 158.08 73.70
  Q 158.51 74.35 158.58 73.57
  Q 158.67 72.75 158.27 72.01
  Q 156.87 69.37 155.49 66.72"
/>
<path stroke="#002c00" vector-effect="non-scaling-stroke" d="
  M 155.49 66.72
  Q 155.43 66.21 155.80 66.20"
/>
<path stroke="#007f00" vector-effect="non-scaling-stroke" d="
  M 155.80 66.20
  L 182.45 66.46"
/>
<path stroke="#025a01" vector-effect="non-scaling-stroke" d="
  M 182.45 66.46
  L 188.14 66.49
  Q 188.65 66.50 188.92 66.93
  Q 191.87 71.69 195.25 76.08
  C 195.75 76.74 195.74 77.38 196.82 77.80"
/>
<path stroke="#013700" vector-effect="non-scaling-stroke" d="
  M 196.82 77.80
  Q 196.73 79.28 197.84 79.61
  A 0.43 0.42 -5.4 0 0 198.34 79.01
  L 197.78 77.95
  A 0.59 0.58 68.6 0 0 197.11 77.65
  Q 196.94 77.70 196.82 77.80"
/>
<path stroke="#025a01" vector-effect="non-scaling-stroke" d="
  M 196.82 77.80
  Q 197.13 76.50 196.47 75.30
  C 193.96 70.70 192.25 66.31 189.08 62.00
  C 188.76 61.55 188.70 60.95 188.43 60.46"
/>
<path stroke="#4d0101" vector-effect="non-scaling-stroke" d="
  M 188.43 60.46
  Q 188.41 60.19 188.47 59.91
  Q 188.56 59.47 188.49 59.03
  L 184.56 34.48
  A 1.02 0.95 -39.3 0 1 184.63 33.95
  C 186.74 29.15 187.94 24.21 189.70 19.29
  Q 190.71 16.45 191.46 13.52
  Q 191.50 13.34 191.36 13.38
  Q 191.29 13.39 191.25 13.50
  Q 189.61 17.87 188.04 22.08
  A 1.10 1.09 -79.4 0 1 187.00 22.80
  L 162.84 22.57"
/>
<path stroke="#007f00" vector-effect="non-scaling-stroke" d="
  M 162.84 22.57
  L 159.91 18.09"
/>
<path stroke="#280000" vector-effect="non-scaling-stroke" d="
  M 159.91 18.09
  L 162.54 3.37
  Q 162.58 3.14 162.35 3.09
  L 162.04 3.02
  Q 162.00 3.01 161.98 3.06
  L 158.10 15.36"
/>
<path stroke="#007f00" vector-effect="non-scaling-stroke" d="
  M 158.10 15.36
  Q 156.03 13.35 155.16 11.52"
/>
<path stroke="#025a01" vector-effect="non-scaling-stroke" d="
  M 155.16 11.52
  L 149.70 4.75"
/>
<path stroke="#013700" vector-effect="non-scaling-stroke" d="
  M 149.70 4.75
  Q 150.14 4.50 150.25 4.15
  Q 150.42 3.59 149.83 3.58
  C 146.72 3.57 143.58 3.18 140.50 3.22
  Q 139.59 3.23 138.50 2.86
  Q 137.74 2.60 137.36 3.26
  Q 137.18 3.58 137.54 3.65
  Q 138.87 3.94 140.09 3.53
  A 1.50 1.45 -46.0 0 1 140.93 3.50
  C 143.32 4.07 147.48 3.33 149.70 4.75"
/>
<path stroke="#025a01" vector-effect="non-scaling-stroke" d="
  M 149.70 4.75
  Q 149.30 5.25 149.54 5.76
  Q 150.66 8.06 152.31 9.81
  A 0.41 0.41 0.0 0 1 152.02 10.50
  L 120.95 10.43
  Q 120.49 10.43 120.42 9.98
  Q 120.39 9.78 120.50 9.62"
/>
<path stroke="#013700" vector-effect="non-scaling-stroke" d="
  M 120.50 9.62
  L 119.06 4.77
  A 0.50 0.49 -7.9 0 1 119.54 4.14
  L 136.59 4.12
  Q 136.81 4.12 136.81 3.90
  L 136.81 3.62
  Q 136.81 3.61 136.67 3.61
  L 115.66 3.56
  Q 115.14 3.56 114.77 3.20
  L 113.04 1.56
  A 0.40 0.40 0.0 0 0 112.39 1.97
  Q 112.44 2.11 112.48 2.25
  A 0.26 0.25 -29.0 0 1 112.40 2.52
  Q 110.94 3.74 109.00 3.70
  Q 99.50 3.51 90.00 3.66
  Q 89.37 3.67 88.58 3.13
  Q 87.73 2.55 87.32 2.54
  Q 86.66 2.53 86.24 3.09
  Q 85.86 3.60 86.49 3.65
  Q 100.06 4.68 113.65 3.79
  A 1.46 1.46 0.0 0 1 115.19 5.03
  L 115.93 10.14"
/>
<path stroke="#025a01" vector-effect="non-scaling-stroke" d="
  M 115.93 10.14
  L 115.68 10.31
  Q 115.42 10.48 115.11 10.48
  L 84.86 10.50
  A 0.57 0.57 0.0 0 1 84.29 9.87
  L 84.74 5.59
  Q 84.81 4.91 84.17 5.14
  Q 83.95 5.22 83.80 5.45
  Q 83.58 5.79 83.23 5.58
  L 82.87 5.37
  A 0.56 0.56 0.0 0 1 82.76 4.49
  L 83.00 4.26
  Q 83.27 3.98 83.60 4.18
  Q 84.55 4.77 85.33 4.19
  Q 85.84 3.82 85.20 3.83
  L 82.01 3.88
  Q 81.71 3.88 81.77 4.18
  C 82.05 5.47 81.14 6.37 80.81 7.29
  Q 80.38 8.51 80.25 9.97
  Q 80.20 10.49 79.68 10.49
  L 50.71 10.51"
/>
<path stroke="#007f00" vector-effect="non-scaling-stroke" d="
  M 50.71 10.51
  Q 49.26 10.79 48.20 10.54
  Q 47.77 10.44 48.00 10.07
  L 51.54 4.20
  Q 51.59 4.13 51.51 4.09
  L 51.26 3.94
  A 0.21 0.21 0.0 0 0 50.99 4.00
  L 43.78 13.40"
/>
<path stroke="#280000" vector-effect="non-scaling-stroke" d="
  M 43.78 13.40
  L 40.43 1.80
  A 0.25 0.25 0.0 0 0 40.19 1.62
  L 39.86 1.62
  Q 39.47 1.62 39.53 2.01
  L 41.98 16.08"
/>
<path stroke="#007f00" vector-effect="non-scaling-stroke" d="
  M 41.98 16.08
  L 37.51 22.58"
/>
<path stroke="#4d0101" vector-effect="non-scaling-stroke" d="
  M 37.51 22.58
  L 13.04 22.75
  Q 12.56 22.76 12.45 22.28
  Q 11.93 20.00 10.83 17.92
  C 10.13 16.60 10.10 15.11 9.15 13.83
  Q 9.02 13.66 9.07 13.86
  C 9.83 17.08 11.23 19.97 11.95 23.12
  C 13.12 28.22 16.13 32.36 15.26 37.62
  C 14.53 42.07 14.23 46.17 13.27 50.88
  Q 12.27 55.76 11.79 60.78"
/>
<path stroke="#025a01" vector-effect="non-scaling-stroke" d="
  M 11.79 60.78
  Q 10.71 63.55 8.71 65.95
  C 7.57 67.33 8.24 69.13 7.03 70.13
  Q 6.64 70.44 6.42 70.90
  L 2.33 79.26
  Q 2.13 79.67 2.29 79.76
  L 2.30 79.77
  Q 2.50 79.88 2.63 79.69
  L 11.83 66.34"
/>
<path stroke="#007f00" vector-effect="non-scaling-stroke" d="
  M 11.83 66.34
  L 44.70 66.24"
/>
<path stroke="#013700" vector-effect="non-scaling-stroke" d="
  M 44.70 66.24
  Q 44.63 66.52 44.73 66.77"
/>
<path stroke="#007f00" vector-effect="non-scaling-stroke" d="
  M 44.73 66.77
  L 41.34 73.97
  Q 41.32 74.02 41.37 74.05
  L 41.60 74.16
  Q 41.82 74.28 41.95 74.06
  Q 44.62 69.27 47.44 64.57
  C 48.91 62.13 50.84 60.25 52.71 58.11
  C 56.01 54.34 59.97 51.73 63.97 48.88
  Q 64.40 48.57 64.36 49.10
  C 64.16 51.83 63.58 54.01 63.96 56.80
  Q 64.32 59.41 64.45 62.06
  C 64.58 64.64 65.49 67.12 65.69 69.82
  Q 65.73 70.33 66.17 70.62
  Q 66.53 70.85 66.45 71.29
  Q 66.37 71.70 65.80 72.07
  Q 58.70 76.63 53.10 82.89
  C 51.24 84.98 49.94 87.45 48.45 89.90
  C 46.43 93.22 45.58 96.57 44.26 100.22
  C 43.23 103.07 43.51 105.70 43.23 108.70
  Q 43.14 109.62 42.71 108.80
  Q 39.88 103.44 38.93 97.41
  Q 38.81 96.62 38.48 97.35
  C 37.55 99.41 38.76 100.87 39.02 102.41
  Q 40.07 108.58 40.80 110.75
  C 41.35 112.42 43.07 113.81 43.56 116.00
  Q 44.15 118.68 44.44 121.65"
/>
<path stroke="#780000" vector-effect="non-scaling-stroke" d="
  M 44.44 121.65
  L 43.10 119.18
  Q 42.73 118.52 42.52 119.25
  L 38.52 133.08"
/>
<path stroke="#4d0101" vector-effect="non-scaling-stroke" d="
  M 38.52 133.08
  L 27.04 169.50
  A 1.84 1.83 -81.6 0 1 25.32 170.78
  L 13.20 171.02"
/>
<path stroke="#280000" vector-effect="non-scaling-stroke" d="
  M 13.20 171.02
  Q 5.85 170.01 0.00 171.83"
/>
<path stroke="#013700" vector-effect="non-scaling-stroke" d="
  M 61.55 3.56
  C 62.78 3.58 63.71 4.06 64.84 4.07
  Q 72.60 4.16 80.35 4.06
  Q 80.56 4.05 80.56 3.84
  L 80.56 3.83
  Q 80.56 3.66 80.25 3.66
  L 53.62 3.45
  Q 53.57 3.45 53.56 3.50
  L 53.56 3.76
  Q 53.56 3.96 53.76 3.96
  Q 57.97 4.10 60.50 3.96
  Q 60.72 3.95 60.92 3.78
  A 0.98 0.93 -62.8 0 1 61.55 3.56"
/>
<path stroke="#025a01" vector-effect="non-scaling-stroke" d="
  M 159.37 76.24
  Q 159.32 75.68 158.98 75.23
  Q 158.63 74.76 158.60 75.35
  Q 158.54 76.96 159.74 77.99
  A 0.29 0.29 0.0 0 0 160.15 77.59
  L 159.76 77.14
  Q 159.42 76.75 159.37 76.24"
/>
<path stroke="#007f00" vector-effect="non-scaling-stroke" d="
  M 40.82 78.76
  Q 39.86 79.09 39.71 79.59
  Q 39.60 79.96 39.99 79.95
  Q 40.93 79.93 40.86 78.69"
/>
<path stroke="#025a01" vector-effect="non-scaling-stroke" d="
  M 40.86 78.69
  Q 41.50 77.96 41.55 77.18
  Q 41.59 76.62 41.06 76.78
  Q 40.91 76.83 40.81 76.94
  Q 40.44 77.33 40.67 77.82
  Q 40.91 78.33 40.82 78.76"
/>
<path stroke="#02d901" vector-effect="non-scaling-stroke" d="
  M 40.86 78.69
  Q 40.84 78.73 40.82 78.76"
/>
<path stroke="#025a01" vector-effect="non-scaling-stroke" d="
  M 160.26 78.85
  A 0.71 0.51 -29.4 0 0 159.74 79.97
  Q 159.92 80.00 160.10 80.02
  Q 160.70 80.11 160.59 79.52
  Q 160.48 78.87 160.26 78.85"
/>
<path stroke="#002c00" vector-effect="non-scaling-stroke" d="
  M 198.07 80.71
  L 198.71 81.70
  A 0.23 0.23 0.0 0 0 199.13 81.58
  Q 199.14 80.76 198.72 79.95
  A 0.51 0.51 0.0 0 0 197.90 79.84
  Q 197.56 80.20 197.88 80.49
  Q 197.98 80.58 198.07 80.71"
/>
<path stroke="#025a01" vector-effect="non-scaling-stroke" d="
  M 7.09 90.52
  Q 4.88 90.03 2.83 91.22
  A 0.28 0.28 0.0 0 0 2.93 91.73
  Q 3.25 91.78 3.05 92.02
  A 0.39 0.39 0.0 0 0 3.21 92.63
  Q 5.15 93.38 7.31 93.47"
/>
<path stroke="#007f00" vector-effect="non-scaling-stroke" d="
  M 7.31 93.47
  L 38.73 93.77
  A 0.26 0.25 0.0 0 0 38.99 93.52
  L 38.93 89.99
  Q 38.93 89.73 38.68 89.73
  Q 27.18 89.67 15.65 89.83
  C 12.92 89.87 9.94 90.35 7.09 90.52"
/>
<path stroke="#02d901" vector-effect="non-scaling-stroke" d="
  M 7.31 93.47
  Q 7.21 92.93 6.50 92.00
  Q 5.81 91.09 7.09 90.52"
/>
<path stroke="#025a01" vector-effect="non-scaling-stroke" d="
  M 191.49 93.39
  Q 193.41 93.36 195.99 92.99
  Q 196.38 92.94 196.59 92.66
  Q 196.92 92.24 196.40 92.11
  Q 195.15 91.79 193.88 92.12
  A 0.46 0.46 0.0 0 1 193.33 91.53
  Q 193.63 90.67 192.77 90.56"
/>
<path stroke="#007f00" vector-effect="non-scaling-stroke" d="
  M 192.77 90.56
  Q 177.16 89.26 161.60 89.85
  Q 161.41 89.85 161.41 90.04
  L 161.27 93.50
  Q 161.26 93.74 161.51 93.74
  L 191.49 93.39"
/>
<path stroke="#02d901" vector-effect="non-scaling-stroke" d="
  M 192.77 90.56
  L 191.49 93.39"
/>
<path stroke="#780000" vector-effect="non-scaling-stroke" d="
  M 6.13 112.82
  Q 5.83 112.88 5.70 112.92
  Q 4.87 113.15 5.77 113.27
  C 17.35 114.81 29.34 114.26 40.92 114.31
  Q 41.67 114.32 41.51 113.58
  L 41.15 112.04
  Q 40.96 111.20 40.10 111.19
  C 27.30 111.14 14.95 111.24 2.09 112.19
  Q 2.07 112.19 2.07 112.16
  Q 2.07 112.15 2.07 112.14
  Q 2.07 112.10 2.12 112.12
  Q 3.99 112.93 6.02 112.62
  A 0.13 0.09 25.7 0 1 6.13 112.82"
/>
<path stroke="#287f00" vector-effect="non-scaling-stroke" d="
  M 43.78 13.40
  L 41.98 16.08"
/>
<path stroke="#029101" vector-effect="non-scaling-stroke" d="
  M 120.50 9.62
  L 118.53 9.03
  Q 118.09 8.90 117.69 9.13
  L 115.93 10.14"
/>
<path stroke="#287f00" vector-effect="non-scaling-stroke" d="
  M 159.91 18.09
  Q 158.41 16.48 158.10 15.36"
/>
<path stroke="#02d901" vector-effect="non-scaling-stroke" d="
  M 155.16 11.52
  Q 154.79 11.61 153.98 11.16
  Q 153.64 10.96 153.35 11.67"
/>
<path stroke="#025a01" vector-effect="non-scaling-stroke" d="
  M 153.35 11.67
  L 121.41 11.77
  Q 120.74 11.77 120.94 12.42
  L 121.51 14.20"
/>
<path stroke="#02d901" vector-effect="non-scaling-stroke" d="
  M 121.51 14.20
  Q 120.74 14.45 120.04 14.36
  Q 119.57 14.31 119.36 13.89
  Q 119.14 13.48 118.62 13.61
  Q 117.72 13.84 116.68 14.03"
/>
<path stroke="#025a01" vector-effect="non-scaling-stroke" d="
  M 116.68 14.03
  L 116.29 12.29
  Q 116.16 11.72 115.57 11.72
  L 85.08 11.63
  Q 83.99 11.63 83.80 12.71
  L 83.10 16.77"
/>
<path stroke="#02d901" vector-effect="non-scaling-stroke" d="
  M 83.10 16.77
  Q 83.42 15.31 81.99 14.90
  Q 79.95 14.30 78.56 15.72"
/>
<path stroke="#025a01" vector-effect="non-scaling-stroke" d="
  M 78.56 15.72
  L 79.46 12.47
  A 0.70 0.70 0.0 0 0 78.79 11.59
  L 50.14 11.58"
/>
<path stroke="#02d901" vector-effect="non-scaling-stroke" d="
  M 50.14 11.58
  Q 51.75 10.58 50.71 10.51"
/>
<path stroke="#007f00" vector-effect="non-scaling-stroke" d="
  M 50.14 11.58
  L 47.95 11.45
  Q 47.35 11.41 47.03 11.93
  L 42.93 18.63
  Q 42.57 19.22 43.26 19.22
  L 77.05 19.18
  Q 77.83 19.18 78.00 18.41
  L 78.56 15.72"
/>
<path stroke="#007f00" vector-effect="non-scaling-stroke" d="
  M 83.10 16.77
  Q 82.58 17.79 82.68 18.70
  Q 82.73 19.16 83.20 19.16
  L 117.30 19.20
  Q 117.80 19.20 117.69 18.71
  L 116.68 14.03"
/>
<path stroke="#007f00" vector-effect="non-scaling-stroke" d="
  M 121.51 14.20
  L 122.72 18.74
  Q 122.82 19.12 123.21 19.12
  L 157.24 19.21
  A 0.47 0.46 -15.8 0 0 157.64 18.50
  L 153.35 11.67"
/>
<path stroke="#4d8001" vector-effect="non-scaling-stroke" d="
  M 162.84 22.57
  L 163.92 24.39"
/>
<path stroke="#007f00" vector-effect="non-scaling-stroke" d="
  M 163.92 24.39
  L 176.62 43.27"
/>
<path stroke="#4d8001" vector-effect="non-scaling-stroke" d="
  M 176.62 43.27
  Q 177.31 43.90 177.58 44.52"
/>
<path stroke="#007f00" vector-effect="non-scaling-stroke" d="
  M 177.58 44.52
  Q 178.03 46.08 179.67 47.24"
/>
<path stroke="#4d8001" vector-effect="non-scaling-stroke" d="
  M 179.67 47.24
  L 180.53 48.77"
/>
<path stroke="#007f00" vector-effect="non-scaling-stroke" d="
  M 180.53 48.77
  L 186.65 58.14"
/>
<path stroke="#4d8001" vector-effect="non-scaling-stroke" d="
  M 186.65 58.14
  Q 186.81 58.77 187.51 59.74"
/>
<path stroke="#02d901" vector-effect="non-scaling-stroke" d="
  M 187.51 59.74
  Q 187.83 61.02 187.58 61.89
  Q 187.42 62.43 186.89 62.26
  L 185.48 61.80"
/>
<path stroke="#007f00" vector-effect="non-scaling-stroke" d="
  M 185.48 61.80
  L 176.07 47.36
  A 1.29 1.28 73.6 0 0 174.99 46.77
  L 142.04 46.77
  A 1.33 1.30 -19.1 0 1 141.02 46.29
  L 139.97 45.01
  Q 139.49 44.43 140.25 44.43
  L 174.00 44.43
  A 0.33 0.33 0.0 0 0 174.18 43.83
  L 173.77 43.56
  Q 173.31 43.26 173.01 42.79
  L 166.55 32.51
  A 1.19 1.19 0.0 0 0 165.54 31.95
  L 126.25 31.94
  A 0.44 0.43 72.2 0 0 125.90 32.63
  Q 126.73 33.79 126.72 35.29
  A 1.00 1.00 0.0 0 0 127.18 36.15
  C 130.84 38.53 133.58 39.86 134.49 44.94
  Q 134.58 45.43 134.98 45.73
  Q 138.39 48.30 141.89 50.78
  C 146.28 53.89 149.19 57.74 152.74 61.64
  Q 153.10 62.04 153.19 62.58
  Q 153.27 63.12 153.57 63.57
  Q 153.75 63.83 154.06 63.89
  Q 154.26 63.92 154.35 63.77
  Q 154.56 63.44 154.95 63.44
  L 186.08 63.48"
/>
<path stroke="#02d901" vector-effect="non-scaling-stroke" d="
  M 186.08 63.48
  Q 185.93 64.16 186.52 64.27
  Q 186.97 64.36 186.88 64.82
  C 186.74 65.47 186.18 65.99 185.46 66.06
  Q 183.98 66.22 182.45 66.46"
/>
<path stroke="#00ab00" vector-effect="non-scaling-stroke" d="
  M 155.80 66.20
  L 154.58 64.04
  Q 154.53 63.95 154.44 64.00
  L 154.21 64.12
  Q 153.98 64.25 154.12 64.47
  L 155.49 66.72"
/>
<path stroke="#02d901" vector-effect="non-scaling-stroke" d="
  M 135.34 58.50
  Q 134.16 61.23 134.60 64.73"
/>
<path stroke="#01b600" vector-effect="non-scaling-stroke" d="
  M 134.27 66.38
  Q 133.36 67.04 133.57 69.30"
/>
<path stroke="#02d901" vector-effect="non-scaling-stroke" d="
  M 185.44 129.04
  Q 187.67 130.13 186.58 132.17
  Q 186.09 133.08 185.58 133.99
  A 1.19 1.16 7.6 0 1 184.83 134.55
  L 181.90 135.22"
/>
<path stroke="#007f00" vector-effect="non-scaling-stroke" d="
  M 181.90 135.22
  L 152.82 135.17
  A 0.70 0.69 83.2 0 0 152.14 136.04
  L 165.10 187.20"
/>
<path stroke="#02d901" vector-effect="non-scaling-stroke" d="
  M 165.10 187.20
  Q 159.75 187.89 154.28 187.66
  C 153.09 187.62 151.97 187.07 150.79 186.76"
/>
<path stroke="#007f00" vector-effect="non-scaling-stroke" d="
  M 150.79 186.76
  L 142.18 143.26
  Q 142.08 142.75 142.39 142.34
  Q 145.33 138.48 148.39 134.70
  C 150.59 131.98 151.51 128.90 153.11 125.81
  C 154.10 123.90 154.24 121.96 154.56 119.91
  Q 154.62 119.52 154.89 119.24
  Q 155.22 118.89 154.97 118.40
  A 0.28 0.28 0.0 0 0 154.51 118.34
  Q 146.97 127.09 139.35 130.12
  Q 134.54 132.02 129.82 134.15
  C 128.95 134.55 128.19 134.40 127.29 134.65
  Q 126.76 134.79 126.71 135.33
  C 126.36 139.12 125.73 142.40 122.94 145.22
  Q 119.83 148.35 116.12 150.27
  Q 114.60 151.06 116.31 151.25
  C 119.27 151.56 121.91 154.09 125.16 153.49
  C 125.81 153.37 126.28 152.96 126.95 152.72
  Q 127.47 152.54 127.05 152.90
  C 124.07 155.46 120.48 156.59 116.70 154.84
  Q 114.54 153.85 112.46 152.74
  Q 112.01 152.50 111.52 152.61
  Q 102.33 154.56 99.50 154.03
  Q 94.57 153.12 89.57 152.50
  Q 89.07 152.43 88.63 152.69
  C 86.60 153.87 85.02 155.47 82.67 155.76
  C 79.81 156.11 77.09 155.75 74.90 153.71
  Q 74.37 153.21 75.07 153.41
  Q 79.12 154.61 82.49 151.97
  Q 82.90 151.64 83.42 151.51
  Q 84.14 151.33 84.89 151.38
  A 0.40 0.40 0.0 0 0 85.16 150.66
  L 76.05 143.79
  A 0.60 0.58 -77.4 0 1 75.82 143.41
  L 74.24 135.04
  Q 74.13 134.45 73.54 134.54
  L 72.61 134.67
  Q 72.05 134.75 71.55 134.49
  C 68.60 132.94 64.93 131.13 61.60 130.68
  Q 61.11 130.61 60.70 130.32
  Q 57.01 127.71 53.12 125.39
  C 50.30 123.71 48.52 121.27 46.07 119.08
  Q 45.58 118.64 45.67 119.30
  C 46.42 124.74 49.20 130.17 52.04 134.76
  A 0.08 0.08 0.0 0 1 51.91 134.86
  C 48.63 131.37 47.61 127.80 45.42 123.67"
/>
<path stroke="#787f00" vector-effect="non-scaling-stroke" d="
  M 45.42 123.67
  L 44.44 121.65"
/>
<path stroke="#01b600" vector-effect="non-scaling-stroke" d="
  M 44.73 66.77
  Q 46.96 65.14 46.43 63.94"
/>
<path stroke="#007f00" vector-effect="non-scaling-stroke" d="
  M 46.43 63.94
  Q 52.92 53.84 63.40 47.11
  Q 65.39 45.83 65.42 43.55
  Q 65.42 43.05 65.69 42.64
  Q 68.11 38.84 70.25 37.77
  C 73.49 36.17 73.30 35.91 74.46 32.58
  A 0.48 0.48 0.0 0 0 74.01 31.94
  L 34.79 31.96
  Q 34.26 31.96 33.98 32.40
  L 26.53 44.01
  Q 26.26 44.42 26.76 44.42
  L 59.98 44.41
  Q 60.68 44.41 60.33 45.02
  L 59.72 46.04
  Q 59.29 46.77 58.44 46.77
  L 25.56 46.78
  Q 24.85 46.78 24.45 47.37
  L 13.83 63.41
  A 0.08 0.07 -73.8 0 0 13.89 63.53
  L 46.32 63.47"
/>
<path stroke="#01b600" vector-effect="non-scaling-stroke" d="
  M 46.32 63.47
  L 44.70 66.24"
/>
<path stroke="#02d901" vector-effect="non-scaling-stroke" d="
  M 11.83 66.34
  Q 11.08 66.61 10.47 66.57
  Q 9.86 66.54 10.13 66.00
  Q 10.41 65.42 10.97 65.02
  A 1.45 1.43 -8.5 0 0 11.53 64.27
  L 12.98 59.76"
/>
<path stroke="#4d8001" vector-effect="non-scaling-stroke" d="
  M 12.98 59.76
  L 13.44 58.53"
/>
<path stroke="#007f00" vector-effect="non-scaling-stroke" d="
  M 13.44 58.53
  L 23.01 44.34"
/>
<path stroke="#4d8001" vector-effect="non-scaling-stroke" d="
  M 23.01 44.34
  L 23.70 43.29"
/>
<path stroke="#007f00" vector-effect="non-scaling-stroke" d="
  M 23.70 43.29
  L 36.05 24.81"
/>
<path stroke="#4d8001" vector-effect="non-scaling-stroke" d="
  M 36.05 24.81
  L 37.51 22.58"
/>
<path stroke="#007f00" vector-effect="non-scaling-stroke" d="
  M 41.77 20.72
  A 0.33 0.33 0.0 0 0 41.49 20.87
  L 35.71 29.75
  A 0.33 0.33 0.0 0 0 35.99 30.26
  L 74.58 30.27
  A 0.33 0.33 0.0 0 0 74.90 30.02
  L 76.99 21.15
  A 0.33 0.33 0.0 0 0 76.67 20.74
  L 41.77 20.72"
/>
<path stroke="#007f00" vector-effect="non-scaling-stroke" d="
  M 107.50 30.43
  L 119.58 30.22
  Q 119.85 30.22 119.80 29.95
  L 118.08 21.02
  Q 118.03 20.73 117.74 20.73
  L 82.49 20.74
  Q 82.20 20.74 82.16 21.03
  L 80.64 30.05
  Q 80.61 30.22 80.78 30.22
  L 93.24 30.42
  Q 93.36 30.42 93.36 30.52
  L 93.37 30.77
  Q 93.37 31.09 93.05 31.13
  Q 84.17 32.07 80.87 31.96
  Q 80.44 31.95 80.17 32.11
  Q 79.66 32.41 79.74 32.78
  A 1.36 1.35 81.0 0 1 78.56 34.41
  C 74.58 34.84 72.53 38.46 71.91 42.07
  Q 71.81 42.67 72.39 42.47
  C 74.35 41.78 75.60 40.68 77.61 40.27
  Q 82.49 39.30 87.24 37.76
  C 89.53 37.02 92.11 37.40 94.57 36.98
  C 99.58 36.13 104.40 36.84 108.88 37.21
  C 114.22 37.65 119.15 39.57 124.38 40.65
  A 0.47 0.46 -19.3 0 1 124.51 40.71
  Q 125.59 41.33 126.71 41.93
  Q 127.37 42.28 127.27 41.54
  Q 126.77 37.63 123.94 34.88
  A 1.07 1.05 66.0 0 0 123.18 34.58
  Q 122.00 34.60 121.01 34.01
  Q 120.43 33.68 120.48 33.01
  Q 120.50 32.78 120.44 32.56
  A 0.60 0.60 0.0 0 0 119.91 32.14
  L 107.47 31.19
  A 0.17 0.17 0.0 0 1 107.31 31.02
  L 107.30 30.64
  Q 107.30 30.43 107.50 30.43"
/>
<path stroke="#007f00" vector-effect="non-scaling-stroke" d="
  M 164.43 30.27
  A 0.35 0.35 0.0 0 0 164.73 29.73
  L 158.94 20.89
  A 0.35 0.35 0.0 0 0 158.65 20.73
  L 123.88 20.76
  A 0.35 0.35 0.0 0 0 123.54 21.18
  L 125.32 29.99
  A 0.35 0.35 0.0 0 0 125.67 30.27
  L 164.43 30.27"
/>
<path stroke="#007f00" vector-effect="non-scaling-stroke" d="
  M 71.88 61.35
  C 72.82 62.61 72.83 66.61 72.91 68.20
  A 0.20 0.20 0.0 0 0 73.18 68.38
  Q 79.74 66.04 85.18 64.79
  C 88.40 64.05 92.13 63.83 95.58 63.50
  Q 99.65 63.11 103.43 63.37
  C 111.97 63.98 117.63 65.01 125.75 67.92
  Q 126.20 68.09 126.31 67.62
  Q 128.31 58.62 128.49 51.50
  Q 128.55 49.26 127.71 45.18
  Q 127.61 44.69 127.21 44.38
  C 124.87 42.56 120.23 42.09 117.34 41.24
  Q 113.39 40.08 110.18 39.70
  Q 107.12 39.35 104.05 39.04
  C 99.57 38.59 95.40 39.11 90.98 39.58
  C 86.17 40.09 81.42 41.80 76.54 42.87
  C 74.91 43.22 73.69 44.17 72.14 44.84
  Q 71.66 45.05 71.62 45.56
  C 71.41 48.09 70.92 50.25 71.20 52.83
  Q 71.62 56.66 71.61 60.54
  Q 71.61 60.99 71.88 61.35"
/>
<path stroke="#007f00" vector-effect="non-scaling-stroke" d="
  M 76.62 82.59
  Q 80.50 97.72 87.10 111.91
  Q 87.40 112.56 87.94 112.08
  L 88.17 111.87
  Q 88.43 111.63 88.79 111.63
  Q 92.81 111.54 96.83 111.50
  C 101.29 111.46 106.43 112.59 111.40 112.45
  Q 111.88 112.43 112.17 112.05
  C 115.05 108.28 115.61 102.76 117.72 98.36
  Q 118.98 95.75 119.60 92.92
  C 120.59 88.39 122.62 84.08 123.65 79.86
  Q 124.41 76.69 125.25 73.55
  A 0.78 0.77 -74.4 0 0 124.72 72.60
  C 119.82 71.17 114.55 69.10 109.48 68.65
  C 104.88 68.25 100.93 67.64 96.30 68.12
  C 92.54 68.50 89.00 68.65 85.35 69.74
  Q 80.31 71.25 75.31 72.71
  A 1.05 1.05 0.0 0 0 74.56 73.79
  C 74.77 76.92 76.04 80.33 76.62 82.59"
/>
<path stroke="#007f00" vector-effect="non-scaling-stroke" d="
  M 131.55 77.31
  C 130.50 81.53 128.40 85.27 127.08 89.48
  Q 125.25 95.33 122.15 100.61
  Q 121.07 102.46 120.31 105.12
  Q 119.01 109.68 115.74 113.24
  Q 115.29 113.73 115.80 114.15
  L 124.52 121.43
  Q 124.97 121.80 125.05 122.37
  L 126.34 131.53
  Q 126.41 132.01 126.85 131.81
  Q 131.27 129.86 135.70 127.99
  C 138.44 126.83 140.78 124.82 143.33 123.20
  Q 146.63 121.10 148.70 119.14
  C 151.69 116.30 155.74 113.05 155.29 109.48
  C 154.16 100.36 149.97 92.34 143.75 85.42
  C 140.64 81.96 136.89 79.48 132.86 76.80
  Q 131.84 76.13 131.55 77.31"
/>
<path stroke="#007f00" vector-effect="non-scaling-stroke" d="
  M 61.63 126.62
  Q 63.35 127.88 68.27 129.44
  C 70.11 130.02 71.28 130.91 72.73 132.04
  A 0.49 0.48 -67.2 0 0 73.51 131.72
  L 74.40 124.71
  Q 74.68 122.53 75.98 120.75
  Q 77.41 118.80 79.19 116.63
  C 80.43 115.12 82.11 114.73 83.84 113.93
  Q 84.35 113.69 84.00 113.25
  C 82.64 111.54 81.31 109.97 80.36 108.00
  Q 74.74 96.33 70.12 84.23
  C 69.30 82.05 68.89 79.51 68.13 77.16
  Q 67.97 76.66 67.52 76.92
  Q 60.65 80.80 55.47 86.70
  C 53.93 88.46 52.85 90.50 51.42 92.49
  C 49.06 95.80 47.97 98.92 46.61 102.55
  C 45.32 105.97 45.37 109.11 45.35 112.66
  Q 45.35 113.18 45.72 113.55
  Q 48.09 115.89 50.38 118.25
  C 53.68 121.66 57.80 123.84 61.63 126.62"
/>
<path stroke="#007f00" vector-effect="non-scaling-stroke" d="
  M 100.82 115.31
  Q 99.34 114.87 97.80 115.01
  L 89.50 115.72
  A 0.86 0.86 0.0 0 0 88.80 116.95
  Q 90.15 119.71 91.18 122.41
  Q 91.95 124.41 93.43 125.76
  Q 96.54 128.60 99.61 131.59
  Q 99.95 131.92 100.30 131.60
  L 107.90 124.71
  Q 108.31 124.33 108.31 123.78
  L 108.34 117.85
  Q 108.34 117.53 108.03 117.44
  L 100.82 115.31"
/>
<path stroke="#007f00" vector-effect="non-scaling-stroke" d="
  M 99.50 133.84
  Q 99.30 133.43 99.17 133.32
  Q 94.99 129.72 91.01 125.87
  C 88.55 123.49 87.82 120.68 86.70 117.57
  Q 86.53 117.10 86.05 117.24
  C 79.44 119.19 76.80 126.52 77.39 132.80
  Q 77.42 133.15 77.77 133.17
  Q 82.45 133.44 86.52 135.77
  A 0.63 0.63 0.0 0 1 86.64 136.77
  L 86.40 137.00
  Q 86.03 137.36 85.52 137.23
  L 77.88 135.35
  Q 77.01 135.13 77.44 135.91
  C 78.48 137.78 79.30 139.15 79.77 141.33
  Q 80.12 142.95 80.68 144.54
  Q 80.85 145.02 81.25 145.32
  L 86.92 149.57
  Q 87.33 149.89 87.84 149.78
  Q 89.95 149.32 89.69 147.19
  A 0.68 0.68 0.0 0 1 89.99 146.54
  L 99.33 140.26
  Q 99.76 139.98 100.18 140.27
  C 104.44 143.21 110.00 144.86 112.96 149.29
  Q 113.22 149.68 113.63 149.47
  C 119.27 146.61 122.90 142.07 123.36 135.84
  Q 123.39 135.38 122.95 135.50
  L 116.34 137.20
  A 2.81 2.80 -36.2 0 1 114.13 136.86
  L 113.79 136.64
  A 0.69 0.68 53.4 0 1 113.97 135.40
  L 122.81 133.01
  Q 123.26 132.88 123.02 132.48
  C 121.07 129.12 121.13 126.60 120.43 123.25
  Q 120.34 122.79 119.98 122.48
  L 114.53 117.90
  A 1.51 1.51 0.0 0 0 112.48 118.00
  Q 110.21 120.29 110.88 123.50
  Q 111.02 124.14 110.53 124.59
  L 100.25 133.99
  Q 99.77 134.42 99.50 133.84"
/>
<path stroke="#007f00" vector-effect="non-scaling-stroke" d="
  M 94.32 150.84
  C 96.96 151.47 99.56 152.46 102.28 152.06
  Q 106.29 151.48 110.39 150.81
  Q 111.18 150.68 110.75 150.01
  C 108.24 146.12 104.15 144.54 100.24 142.24
  Q 99.81 141.99 99.40 142.26
  L 92.67 146.66
  A 0.94 0.94 0.0 0 0 92.26 147.61
  Q 92.44 148.62 92.28 149.61
  Q 92.19 150.12 92.67 150.31
  Q 93.52 150.65 94.32 150.84"
/>
<path stroke="#4f5b01" vector-effect="non-scaling-stroke" d="
  M 188.43 60.46
  Q 187.90 60.61 187.51 59.74"
/>
<path stroke="#4d0101" vector-effect="non-scaling-stroke" d="
  M 186.65 58.14
  L 184.11 38.79
  A 0.40 0.32 28.9 0 0 184.03 38.60
  Q 183.67 38.08 183.14 38.54
  Q 182.97 38.69 182.91 38.96
  Q 181.87 43.65 180.53 48.77"
/>
<path stroke="#4d0101" vector-effect="non-scaling-stroke" d="
  M 179.67 47.24
  Q 180.16 46.18 180.17 44.91
  Q 180.17 44.42 179.70 44.31
  Q 178.67 44.06 177.58 44.52"
/>
<path stroke="#4d0101" vector-effect="non-scaling-stroke" d="
  M 176.62 43.27
  L 180.58 43.07
  Q 181.10 43.04 181.19 42.53
  Q 181.58 40.25 182.49 38.14
  C 183.18 36.54 183.22 34.90 183.92 33.33
  C 185.19 30.43 186.16 27.64 187.25 24.69
  Q 187.44 24.19 186.91 24.20
  L 163.92 24.39"
/>
<path stroke="#4d0101" vector-effect="non-scaling-stroke" d="
  M 36.05 24.81
  Q 35.96 24.69 35.90 24.60
  Q 35.83 24.51 35.72 24.51
  L 13.68 24.41
  Q 13.18 24.41 13.35 24.88
  L 19.62 42.59
  Q 19.75 42.97 20.14 43.00
  L 23.70 43.29"
/>
<path stroke="#4d0101" vector-effect="non-scaling-stroke" d="
  M 23.01 44.34
  L 20.27 44.18
  Q 19.78 44.15 19.86 44.64
  Q 19.91 44.90 20.14 45.08
  Q 20.51 45.37 20.52 45.85
  Q 20.54 46.68 19.97 47.30
  Q 19.50 47.80 19.28 47.16
  Q 18.26 44.29 18.13 41.24
  Q 18.11 40.73 17.85 40.30
  L 16.45 37.98
  Q 15.98 37.21 16.08 38.11
  L 16.28 39.77
  Q 16.33 40.23 16.26 40.69
  L 13.44 58.53"
/>
<path stroke="#4f5b01" vector-effect="non-scaling-stroke" d="
  M 12.98 59.76
  L 11.79 60.78"
/>
<path stroke="#013700" vector-effect="non-scaling-stroke" d="
  M 46.43 63.94
  Q 46.37 63.70 46.32 63.47"
/>
<path stroke="#025a01" vector-effect="non-scaling-stroke" d="
  M 185.48 61.80
  Q 186.99 63.31 186.08 63.48"
/>
<path stroke="#025a01" vector-effect="non-scaling-stroke" d="
  M 150.79 186.76
  Q 150.66 187.75 150.94 188.51"
/>
<path stroke="#013700" vector-effect="non-scaling-stroke" d="
  M 150.94 188.51
  L 151.55 191.90
  Q 151.64 192.38 151.23 192.65
  Q 150.36 193.24 148.84 193.38"
/>
<path stroke="#002200" vector-effect="non-scaling-stroke" d="
  M 148.84 193.38
  Q 145.23 192.68 136.75 192.68
  Q 93.15 192.65 49.51 192.58"
/>
<path stroke="#013700" vector-effect="non-scaling-stroke" d="
  M 49.51 192.58
  Q 49.28 191.16 49.82 190.17
  Q 50.05 189.74 50.10 189.27
  Q 50.30 187.58 51.18 184.76
  Q 52.26 181.27 53.36 171.74"
/>
<path stroke="#025a01" vector-effect="non-scaling-stroke" d="
  M 53.36 171.74
  Q 54.43 166.75 55.55 161.65
  Q 55.99 159.69 56.50 155.26
  C 56.87 152.02 60.50 143.34 57.09 141.02"
/>
<path stroke="#4d0101" vector-effect="non-scaling-stroke" d="
  M 57.09 141.02
  L 56.36 139.99"
/>
<path stroke="#025a01" vector-effect="non-scaling-stroke" d="
  M 56.36 139.99
  L 52.66 135.89
  Q 52.56 135.78 52.43 135.90
  L 52.43 135.91
  Q 52.33 136.01 52.43 136.13
  L 55.51 140.16"
/>
<path stroke="#4d0101" vector-effect="non-scaling-stroke" d="
  M 55.51 140.16
  C 56.66 141.96 55.15 142.71 55.23 144.25
  Q 55.29 145.47 54.63 146.51
  A 1.87 1.86 -27.3 0 0 54.35 147.38
  L 54.04 151.31"
/>
<path stroke="#780000" vector-effect="non-scaling-stroke" d="
  M 54.04 151.31
  Q 54.04 151.36 54.03 151.40"
/>
<path stroke="#4d0101" vector-effect="non-scaling-stroke" d="
  M 54.03 151.40
  Q 53.10 153.49 53.16 155.78
  Q 53.17 156.28 52.94 156.72
  C 52.10 158.32 52.01 160.41 51.58 161.87
  Q 50.45 165.61 50.47 169.58"
/>
<path stroke="#780000" vector-effect="non-scaling-stroke" d="
  M 50.47 169.58
  L 49.73 172.91"
/>
<path stroke="#4d0101" vector-effect="non-scaling-stroke" d="
  M 49.73 172.91
  Q 48.93 174.92 48.49 176.93
  Q 48.07 178.81 47.54 181.01
  Q 46.94 183.46 46.89 186.00"
/>
<path stroke="#780000" vector-effect="non-scaling-stroke" d="
  M 46.89 186.00
  L 46.47 189.17"
/>
<path stroke="#4d0101" vector-effect="non-scaling-stroke" d="
  M 46.47 189.17
  Q 46.15 189.59 46.19 190.75
  Q 46.23 191.86 45.31 192.11
  Q 44.85 192.24 44.60 191.83
  L 41.39 186.41"
/>
<path stroke="#780000" vector-effect="non-scaling-stroke" d="
  M 41.39 186.41
  L 33.11 173.35
  A 1.13 1.12 36.3 0 1 32.97 172.45
  Q 38.91 150.68 45.03 128.99
  Q 45.93 125.79 45.42 123.67"
/>
<path stroke="#c50101" vector-effect="non-scaling-stroke" d="
  M 41.39 186.41
  Q 41.86 189.20 36.00 188.42
  Q 34.37 188.20 33.04 187.17"
/>
<path stroke="#780000" vector-effect="non-scaling-stroke" d="
  M 33.04 187.17
  L 26.87 178.81
  A 1.13 1.10 71.7 0 0 26.00 178.36
  L 16.02 178.25"
/>
<path stroke="#c50101" vector-effect="non-scaling-stroke" d="
  M 16.02 178.25
  Q 14.73 177.37 14.82 176.21
  A 1.48 1.42 -54.6 0 0 14.72 175.54
  Q 14.07 173.93 14.10 172.21
  Q 14.11 171.78 14.54 171.78
  L 24.80 171.91
  A 3.19 3.18 -78.8 0 0 27.80 169.90
  C 30.00 164.34 31.03 158.28 33.09 152.59
  A 20.88 1.69 -67.6 0 0 35.67 144.56
  L 38.52 133.08"
/>
<path stroke="#002c00" vector-effect="non-scaling-stroke" d="
  M 200.00 134.23
  Q 196.52 135.75 192.70 135.13"
/>
<path stroke="#028601" vector-effect="non-scaling-stroke" d="
  M 192.70 135.13
  L 192.84 128.94"
/>
<path stroke="#025a01" vector-effect="non-scaling-stroke" d="
  M 192.70 135.13
  L 181.90 135.22"
/>
<path stroke="#4d0101" vector-effect="non-scaling-stroke" d="
  M 16.02 178.25
  L 9.81 178.36"
/>
<path stroke="#750101" vector-effect="non-scaling-stroke" d="
  M 9.81 178.36
  Q 8.42 176.65 8.13 172.89
  A 1.27 1.26 -88.3 0 1 9.55 171.54
  Q 10.89 171.72 13.20 171.02"
/>
<path stroke="#002200" vector-effect="non-scaling-stroke" d="
  M 190.94 193.99
  Q 185.30 192.83 179.51 193.44"
/>
<path stroke="#002c00" vector-effect="non-scaling-stroke" d="
  M 179.51 193.44
  Q 178.31 193.19 177.46 193.37"
/>
<path stroke="#013700" vector-effect="non-scaling-stroke" d="
  M 177.46 193.37
  C 174.86 193.31 166.61 194.23 166.07 190.83"
/>
<path stroke="#025a01" vector-effect="non-scaling-stroke" d="
  M 166.07 190.83
  L 165.10 187.20"
/>
<path stroke="#4f5b01" vector-effect="non-scaling-stroke" d="
  M 56.36 139.99
  Q 55.88 140.16 55.51 140.16"
/>
<path stroke="#4f5b01" vector-effect="non-scaling-stroke" d="
  M 57.09 141.02
  L 56.89 142.11"
/>
<path stroke="#4d8001" vector-effect="non-scaling-stroke" d="
  M 56.89 142.11
  L 54.78 150.67"
/>
<path stroke="#c50101" vector-effect="non-scaling-stroke" d="
  M 54.78 150.67
  L 54.04 151.31"
/>
<path stroke="#029101" vector-effect="non-scaling-stroke" d="
  M 53.36 171.74
  L 51.30 176.34"
/>
<path stroke="#02d901" vector-effect="non-scaling-stroke" d="
  M 51.30 176.34
  Q 51.32 174.57 50.74 174.38"
/>
<path stroke="#7a5a01" vector-effect="non-scaling-stroke" d="
  M 50.74 174.38
  C 51.43 172.92 50.84 171.68 51.30 170.26
  Q 51.63 169.22 52.03 168.26"
/>
<path stroke="#02d901" vector-effect="non-scaling-stroke" d="
  M 52.03 168.26
  L 53.97 162.93
  Q 54.14 162.46 54.09 161.97
  Q 53.82 159.72 54.94 157.69
  Q 55.20 157.22 55.13 156.69
  Q 54.52 151.55 56.99 147.05
  A 1.33 1.30 -32.9 0 0 57.15 146.35
  L 56.89 142.11"
/>
<path stroke="#787f00" vector-effect="non-scaling-stroke" d="
  M 52.03 168.26
  Q 51.74 167.04 51.92 165.69"
/>
<path stroke="#4d8001" vector-effect="non-scaling-stroke" d="
  M 51.92 165.69
  L 54.15 154.12"
/>
<path stroke="#787f00" vector-effect="non-scaling-stroke" d="
  M 54.15 154.12
  Q 54.97 152.77 54.78 150.67"
/>
<path stroke="#c50101" vector-effect="non-scaling-stroke" d="
  M 54.15 154.12
  L 54.03 151.40"
/>
<path stroke="#c50101" vector-effect="non-scaling-stroke" d="
  M 51.92 165.69
  L 50.47 169.58"
/>
<path stroke="#787f00" vector-effect="non-scaling-stroke" d="
  M 50.74 174.38
  Q 50.84 174.65 50.23 174.74"
/>
<path stroke="#c50101" vector-effect="non-scaling-stroke" d="
  M 50.23 174.74
  Q 50.22 174.55 50.34 174.46
  Q 50.46 174.38 50.35 174.29
  Q 49.77 173.84 49.73 172.91"
/>
<path stroke="#280000" vector-effect="non-scaling-stroke" d="
  M 9.81 178.36
  C 7.53 178.39 2.29 177.69 0.25 178.53"
/>
<path stroke="#015900" vector-effect="non-scaling-stroke" d="
  M 49.51 192.58
  Q 49.24 192.75 49.41 193.07
  Q 49.63 193.49 50.11 193.49
  L 148.84 193.38"
/>
<path stroke="#029101" vector-effect="non-scaling-stroke" d="
  M 150.94 188.51
  Q 152.23 190.54 152.77 192.86
  Q 152.88 193.31 153.34 193.31
  L 164.45 193.41
  Q 164.92 193.41 165.06 192.97
  Q 165.24 192.39 165.80 192.15
  A 0.01 0.01 0.0 0 0 165.79 192.13
  Q 165.69 192.12 165.57 192.01
  Q 165.49 191.95 165.57 191.89
  Q 166.15 191.43 166.07 190.83"
/>
<path stroke="#016200" vector-effect="non-scaling-stroke" d="
  M 177.46 193.37
  Q 176.50 196.15 172.51 196.16
  C 130.71 196.29 88.91 196.38 47.10 196.38
  Q 46.67 196.38 46.30 196.17
  L 45.89 195.93"
/>
<path stroke="#4e3701" vector-effect="non-scaling-stroke" d="
  M 45.89 195.93
  L 47.03 190.21"
/>
<path stroke="#793700" vector-effect="non-scaling-stroke" d="
  M 47.03 190.21
  L 48.00 186.59"
/>
<path stroke="#01b600" vector-effect="non-scaling-stroke" d="
  M 48.00 186.59
  Q 50.07 182.93 50.07 181.25
  Q 50.07 178.44 51.30 176.34"
/>
<path stroke="#4d8001" vector-effect="non-scaling-stroke" d="
  M 50.23 174.74
  L 48.05 184.64"
/>
<path stroke="#c50101" vector-effect="non-scaling-stroke" d="
  M 48.05 184.64
  Q 47.39 185.96 46.89 186.00"
/>
<path stroke="#787f00" vector-effect="non-scaling-stroke" d="
  M 48.00 186.59
  L 48.05 184.64"
/>
<path stroke="#4d0101" vector-effect="non-scaling-stroke" d="
  M 33.04 187.17
  L 41.52 198.05"
/>
<path stroke="#002200" vector-effect="non-scaling-stroke" d="
  M 41.52 198.05
  Q 31.90 198.02 29.00 197.72
  Q 22.25 197.00 15.40 198.42"
/>
<path stroke="#c50101" vector-effect="non-scaling-stroke" d="
  M 47.03 190.21
  Q 47.02 190.06 46.98 189.92
  Q 46.91 189.67 46.75 189.88
  Q 46.60 190.08 46.70 190.42
  Q 46.70 190.44 46.68 190.44
  Q 46.67 190.44 46.66 190.44
  Q 46.62 190.44 46.63 190.40
  Q 46.70 189.77 46.47 189.17"
/>
<path stroke="#4d2c01" vector-effect="non-scaling-stroke" d="
  M 45.89 195.93
  Q 45.56 196.35 45.40 196.96"
/>
<path stroke="#4d2301" vector-effect="non-scaling-stroke" d="
  M 45.40 196.96
  L 45.25 197.46
  Q 45.09 198.00 44.53 198.01
  L 41.52 198.05"
/>
<path stroke="#004e00" vector-effect="non-scaling-stroke" d="
  M 179.51 193.44
  Q 180.26 194.02 179.83 195.07
  Q 179.65 195.52 179.19 195.68
  Q 173.59 197.63 169.50 197.63
  Q 107.75 197.59 46.00 197.66
  Q 45.65 197.66 45.40 196.96"
/>
</g>
<path fill="#000000" d="
  M 21.57 0.00
  L 178.51 0.00
  Q 196.44 5.22 200.00 23.59
  L 200.00 129.90
  Q 196.48 128.15 192.84 128.94
  L 185.44 129.04
  L 152.50 129.07
  Q 152.10 129.07 152.29 128.71
  C 154.71 124.09 156.24 121.58 156.71 115.39
  Q 156.74 114.89 157.04 114.48
  C 159.54 111.11 160.00 109.06 160.83 105.01
  C 161.33 102.58 162.90 99.30 162.28 96.75
  Q 161.80 94.79 161.46 96.78
  Q 160.48 102.51 157.98 107.73
  Q 157.08 109.60 157.01 107.53
  C 156.44 91.14 146.59 79.97 133.61 71.49
  Q 133.18 71.21 133.20 70.70
  Q 133.23 70.05 133.57 69.30
  Q 134.45 67.61 134.27 66.38
  L 134.60 64.73
  Q 135.52 61.61 135.34 58.50
  Q 136.18 53.32 135.12 49.19
  Q 134.69 47.52 136.07 48.54
  C 141.89 52.80 146.28 55.80 151.60 62.48
  C 153.68 65.10 155.05 68.40 157.05 71.32
  C 157.54 72.04 157.59 72.94 158.08 73.70
  Q 158.51 74.35 158.58 73.57
  Q 158.67 72.75 158.27 72.01
  Q 156.87 69.37 155.49 66.72
  Q 155.43 66.21 155.80 66.20
  L 182.45 66.46
  L 188.14 66.49
  Q 188.65 66.50 188.92 66.93
  Q 191.87 71.69 195.25 76.08
  C 195.75 76.74 195.74 77.38 196.82 77.80
  Q 196.73 79.28 197.84 79.61
  A 0.43 0.42 -5.4 0 0 198.34 79.01
  L 197.78 77.95
  A 0.59 0.58 68.6 0 0 197.11 77.65
  Q 196.94 77.70 196.82 77.80
  Q 197.13 76.50 196.47 75.30
  C 193.96 70.70 192.25 66.31 189.08 62.00
  C 188.76 61.55 188.70 60.95 188.43 60.46
  Q 188.41 60.19 188.47 59.91
  Q 188.56 59.47 188.49 59.03
  L 184.56 34.48
  A 1.02 0.95 -39.3 0 1 184.63 33.95
  C 186.74 29.15 187.94 24.21 189.70 19.29
  Q 190.71 16.45 191.46 13.52
  Q 191.50 13.34 191.36 13.38
  Q 191.29 13.39 191.25 13.50
  Q 189.61 17.87 188.04 22.08
  A 1.10 1.09 -79.4 0 1 187.00 22.80
  L 162.84 22.57
  L 159.91 18.09
  L 162.54 3.37
  Q 162.58 3.14 162.35 3.09
  L 162.04 3.02
  Q 162.00 3.01 161.98 3.06
  L 158.10 15.36
  Q 156.03 13.35 155.16 11.52
  L 149.70 4.75
  Q 150.14 4.50 150.25 4.15
  Q 150.42 3.59 149.83 3.58
  C 146.72 3.57 143.58 3.18 140.50 3.22
  Q 139.59 3.23 138.50 2.86
  Q 137.74 2.60 137.36 3.26
  Q 137.18 3.58 137.54 3.65
  Q 138.87 3.94 140.09 3.53
  A 1.50 1.45 -46.0 0 1 140.93 3.50
  C 143.32 4.07 147.48 3.33 149.70 4.75
  Q 149.30 5.25 149.54 5.76
  Q 150.66 8.06 152.31 9.81
  A 0.41 0.41 0.0 0 1 152.02 10.50
  L 120.95 10.43
  Q 120.49 10.43 120.42 9.98
  Q 120.39 9.78 120.50 9.62
  L 119.06 4.77
  A 0.50 0.49 -7.9 0 1 119.54 4.14
  L 136.59 4.12
  Q 136.81 4.12 136.81 3.90
  L 136.81 3.62
  Q 136.81 3.61 136.67 3.61
  L 115.66 3.56
  Q 115.14 3.56 114.77 3.20
  L 113.04 1.56
  A 0.40 0.40 0.0 0 0 112.39 1.97
  Q 112.44 2.11 112.48 2.25
  A 0.26 0.25 -29.0 0 1 112.40 2.52
  Q 110.94 3.74 109.00 3.70
  Q 99.50 3.51 90.00 3.66
  Q 89.37 3.67 88.58 3.13
  Q 87.73 2.55 87.32 2.54
  Q 86.66 2.53 86.24 3.09
  Q 85.86 3.60 86.49 3.65
  Q 100.06 4.68 113.65 3.79
  A 1.46 1.46 0.0 0 1 115.19 5.03
  L 115.93 10.14
  L 115.68 10.31
  Q 115.42 10.48 115.11 10.48
  L 84.86 10.50
  A 0.57 0.57 0.0 0 1 84.29 9.87
  L 84.74 5.59
  Q 84.81 4.91 84.17 5.14
  Q 83.95 5.22 83.80 5.45
  Q 83.58 5.79 83.23 5.58
  L 82.87 5.37
  A 0.56 0.56 0.0 0 1 82.76 4.49
  L 83.00 4.26
  Q 83.27 3.98 83.60 4.18
  Q 84.55 4.77 85.33 4.19
  Q 85.84 3.82 85.20 3.83
  L 82.01 3.88
  Q 81.71 3.88 81.77 4.18
  C 82.05 5.47 81.14 6.37 80.81 7.29
  Q 80.38 8.51 80.25 9.97
  Q 80.20 10.49 79.68 10.49
  L 50.71 10.51
  Q 49.26 10.79 48.20 10.54
  Q 47.77 10.44 48.00 10.07
  L 51.54 4.20
  Q 51.59 4.13 51.51 4.09
  L 51.26 3.94
  A 0.21 0.21 0.0 0 0 50.99 4.00
  L 43.78 13.40
  L 40.43 1.80
  A 0.25 0.25 0.0 0 0 40.19 1.62
  L 39.86 1.62
  Q 39.47 1.62 39.53 2.01
  L 41.98 16.08
  L 37.51 22.58
  L 13.04 22.75
  Q 12.56 22.76 12.45 22.28
  Q 11.93 20.00 10.83 17.92
  C 10.13 16.60 10.10 15.11 9.15 13.83
  Q 9.02 13.66 9.07 13.86
  C 9.83 17.08 11.23 19.97 11.95 23.12
  C 13.12 28.22 16.13 32.36 15.26 37.62
  C 14.53 42.07 14.23 46.17 13.27 50.88
  Q 12.27 55.76 11.79 60.78
  Q 10.71 63.55 8.71 65.95
  C 7.57 67.33 8.24 69.13 7.03 70.13
  Q 6.64 70.44 6.42 70.90
  L 2.33 79.26
  Q 2.13 79.67 2.29 79.76
  L 2.30 79.77
  Q 2.50 79.88 2.63 79.69
  L 11.83 66.34
  L 44.70 66.24
  Q 44.63 66.52 44.73 66.77
  L 41.34 73.97
  Q 41.32 74.02 41.37 74.05
  L 41.60 74.16
  Q 41.82 74.28 41.95 74.06
  Q 44.62 69.27 47.44 64.57
  C 48.91 62.13 50.84 60.25 52.71 58.11
  C 56.01 54.34 59.97 51.73 63.97 48.88
  Q 64.40 48.57 64.36 49.10
  C 64.16 51.83 63.58 54.01 63.96 56.80
  Q 64.32 59.41 64.45 62.06
  C 64.58 64.64 65.49 67.12 65.69 69.82
  Q 65.73 70.33 66.17 70.62
  Q 66.53 70.85 66.45 71.29
  Q 66.37 71.70 65.80 72.07
  Q 58.70 76.63 53.10 82.89
  C 51.24 84.98 49.94 87.45 48.45 89.90
  C 46.43 93.22 45.58 96.57 44.26 100.22
  C 43.23 103.07 43.51 105.70 43.23 108.70
  Q 43.14 109.62 42.71 108.80
  Q 39.88 103.44 38.93 97.41
  Q 38.81 96.62 38.48 97.35
  C 37.55 99.41 38.76 100.87 39.02 102.41
  Q 40.07 108.58 40.80 110.75
  C 41.35 112.42 43.07 113.81 43.56 116.00
  Q 44.15 118.68 44.44 121.65
  L 43.10 119.18
  Q 42.73 118.52 42.52 119.25
  L 38.52 133.08
  L 27.04 169.50
  A 1.84 1.83 -81.6 0 1 25.32 170.78
  L 13.20 171.02
  Q 5.85 170.01 0.00 171.83
  L 0.00 23.48
  Q 3.67 5.10 21.57 0.00
  Z
  M 61.55 3.56
  C 62.78 3.58 63.71 4.06 64.84 4.07
  Q 72.60 4.16 80.35 4.06
  Q 80.56 4.05 80.56 3.84
  L 80.56 3.83
  Q 80.56 3.66 80.25 3.66
  L 53.62 3.45
  Q 53.57 3.45 53.56 3.50
  L 53.56 3.76
  Q 53.56 3.96 53.76 3.96
  Q 57.97 4.10 60.50 3.96
  Q 60.72 3.95 60.92 3.78
  A 0.98 0.93 -62.8 0 1 61.55 3.56
  Z
  M 159.37 76.24
  Q 159.32 75.68 158.98 75.23
  Q 158.63 74.76 158.60 75.35
  Q 158.54 76.96 159.74 77.99
  A 0.29 0.29 0.0 0 0 160.15 77.59
  L 159.76 77.14
  Q 159.42 76.75 159.37 76.24
  Z
  M 40.82 78.76
  Q 39.86 79.09 39.71 79.59
  Q 39.60 79.96 39.99 79.95
  Q 40.93 79.93 40.86 78.69
  Q 41.50 77.96 41.55 77.18
  Q 41.59 76.62 41.06 76.78
  Q 40.91 76.83 40.81 76.94
  Q 40.44 77.33 40.67 77.82
  Q 40.91 78.33 40.82 78.76
  Z
  M 160.26 78.85
  A 0.71 0.51 -29.4 0 0 159.74 79.97
  Q 159.92 80.00 160.10 80.02
  Q 160.70 80.11 160.59 79.52
  Q 160.48 78.87 160.26 78.85
  Z
  M 198.07 80.71
  L 198.71 81.70
  A 0.23 0.23 0.0 0 0 199.13 81.58
  Q 199.14 80.76 198.72 79.95
  A 0.51 0.51 0.0 0 0 197.90 79.84
  Q 197.56 80.20 197.88 80.49
  Q 197.98 80.58 198.07 80.71
  Z
  M 7.09 90.52
  Q 4.88 90.03 2.83 91.22
  A 0.28 0.28 0.0 0 0 2.93 91.73
  Q 3.25 91.78 3.05 92.02
  A 0.39 0.39 0.0 0 0 3.21 92.63
  Q 5.15 93.38 7.31 93.47
  L 38.73 93.77
  A 0.26 0.25 0.0 0 0 38.99 93.52
  L 38.93 89.99
  Q 38.93 89.73 38.68 89.73
  Q 27.18 89.67 15.65 89.83
  C 12.92 89.87 9.94 90.35 7.09 90.52
  Z
  M 191.49 93.39
  Q 193.41 93.36 195.99 92.99
  Q 196.38 92.94 196.59 92.66
  Q 196.92 92.24 196.40 92.11
  Q 195.15 91.79 193.88 92.12
  A 0.46 0.46 0.0 0 1 193.33 91.53
  Q 193.63 90.67 192.77 90.56
  Q 177.16 89.26 161.60 89.85
  Q 161.41 89.85 161.41 90.04
  L 161.27 93.50
  Q 161.26 93.74 161.51 93.74
  L 191.49 93.39
  Z
  M 6.13 112.82
  Q 5.83 112.88 5.70 112.92
  Q 4.87 113.15 5.77 113.27
  C 17.35 114.81 29.34 114.26 40.92 114.31
  Q 41.67 114.32 41.51 113.58
  L 41.15 112.04
  Q 40.96 111.20 40.10 111.19
  C 27.30 111.14 14.95 111.24 2.09 112.19
  Q 2.07 112.19 2.07 112.16
  Q 2.07 112.15 2.07 112.14
  Q 2.07 112.10 2.12 112.12
  Q 3.99 112.93 6.02 112.62
  A 0.13 0.09 25.7 0 1 6.13 112.82
  Z"
/>
<path fill="#4f0000" d="
  M 43.78 13.40
  L 41.98 16.08
  L 39.53 2.01
  Q 39.47 1.62 39.86 1.62
  L 40.19 1.62
  A 0.25 0.25 0.0 0 1 40.43 1.80
  L 43.78 13.40
  Z"
/>
<path fill="#016d00" d="
  M 120.50 9.62
  L 118.53 9.03
  Q 118.09 8.90 117.69 9.13
  L 115.93 10.14
  L 115.19 5.03
  A 1.46 1.46 0.0 0 0 113.65 3.79
  Q 100.06 4.68 86.49 3.65
  Q 85.86 3.60 86.24 3.09
  Q 86.66 2.53 87.32 2.54
  Q 87.73 2.55 88.58 3.13
  Q 89.37 3.67 90.00 3.66
  Q 99.50 3.51 109.00 3.70
  Q 110.94 3.74 112.40 2.52
  A 0.26 0.25 -29.0 0 0 112.48 2.25
  Q 112.44 2.11 112.39 1.97
  A 0.40 0.40 0.0 0 1 113.04 1.56
  L 114.77 3.20
  Q 115.14 3.56 115.66 3.56
  L 136.67 3.61
  Q 136.81 3.61 136.81 3.62
  L 136.81 3.90
  Q 136.81 4.12 136.59 4.12
  L 119.54 4.14
  A 0.50 0.49 -7.9 0 0 119.06 4.77
  L 120.50 9.62
  Z"
/>
<path fill="#016d00" d="
  M 149.70 4.75
  C 147.48 3.33 143.32 4.07 140.93 3.50
  A 1.50 1.45 -46.0 0 0 140.09 3.53
  Q 138.87 3.94 137.54 3.65
  Q 137.18 3.58 137.36 3.26
  Q 137.74 2.60 138.50 2.86
  Q 139.59 3.23 140.50 3.22
  C 143.58 3.18 146.72 3.57 149.83 3.58
  Q 150.42 3.59 150.25 4.15
  Q 150.14 4.50 149.70 4.75
  Z"
/>
<path fill="#016d00" d="
  M 60.92 3.78
  Q 60.72 3.95 60.50 3.96
  Q 57.97 4.10 53.76 3.96
  Q 53.56 3.96 53.56 3.76
  L 53.56 3.50
  Q 53.57 3.45 53.62 3.45
  L 80.25 3.66
  Q 80.56 3.66 80.56 3.83
  L 80.56 3.84
  Q 80.56 4.05 80.35 4.06
  Q 72.60 4.16 64.84 4.07
  C 63.71 4.06 62.78 3.58 61.55 3.56
  A 0.98 0.93 -62.8 0 0 60.92 3.78
  Z"
/>
<path fill="#4f0000" d="
  M 159.91 18.09
  Q 158.41 16.48 158.10 15.36
  L 161.98 3.06
  Q 162.00 3.01 162.04 3.02
  L 162.35 3.09
  Q 162.58 3.14 162.54 3.37
  L 159.91 18.09
  Z"
/>
<path fill="#03b401" d="
  M 115.93 10.14
  L 117.69 9.13
  Q 118.09 8.90 118.53 9.03
  L 120.50 9.62
  Q 120.39 9.78 120.42 9.98
  Q 120.49 10.43 120.95 10.43
  L 152.02 10.50
  A 0.41 0.41 0.0 0 0 152.31 9.81
  Q 150.66 8.06 149.54 5.76
  Q 149.30 5.25 149.70 4.75
  L 155.16 11.52
  Q 154.79 11.61 153.98 11.16
  Q 153.64 10.96 153.35 11.67
  L 121.41 11.77
  Q 120.74 11.77 120.94 12.42
  L 121.51 14.20
  Q 120.74 14.45 120.04 14.36
  Q 119.57 14.31 119.36 13.89
  Q 119.14 13.48 118.62 13.61
  Q 117.72 13.84 116.68 14.03
  L 116.29 12.29
  Q 116.16 11.72 115.57 11.72
  L 85.08 11.63
  Q 83.99 11.63 83.80 12.71
  L 83.10 16.77
  Q 83.42 15.31 81.99 14.90
  Q 79.95 14.30 78.56 15.72
  L 79.46 12.47
  A 0.70 0.70 0.0 0 0 78.79 11.59
  L 50.14 11.58
  Q 51.75 10.58 50.71 10.51
  L 79.68 10.49
  Q 80.20 10.49 80.25 9.97
  Q 80.38 8.51 80.81 7.29
  C 81.14 6.37 82.05 5.47 81.77 4.18
  Q 81.71 3.88 82.01 3.88
  L 85.20 3.83
  Q 85.84 3.82 85.33 4.19
  Q 84.55 4.77 83.60 4.18
  Q 83.27 3.98 83.00 4.26
  L 82.76 4.49
  A 0.56 0.56 0.0 0 0 82.87 5.37
  L 83.23 5.58
  Q 83.58 5.79 83.80 5.45
  Q 83.95 5.22 84.17 5.14
  Q 84.81 4.91 84.74 5.59
  L 84.29 9.87
  A 0.57 0.57 0.0 0 0 84.86 10.50
  L 115.11 10.48
  Q 115.42 10.48 115.68 10.31
  L 115.93 10.14
  Z"
/>
<path fill="#00fe00" d="
  M 50.71 10.51
  Q 51.75 10.58 50.14 11.58
  L 47.95 11.45
  Q 47.35 11.41 47.03 11.93
  L 42.93 18.63
  Q 42.57 19.22 43.26 19.22
  L 77.05 19.18
  Q 77.83 19.18 78.00 18.41
  L 78.56 15.72
  Q 79.95 14.30 81.99 14.90
  Q 83.42 15.31 83.10 16.77
  Q 82.58 17.79 82.68 18.70
  Q 82.73 19.16 83.20 19.16
  L 117.30 19.20
  Q 117.80 19.20 117.69 18.71
  L 116.68 14.03
  Q 117.72 13.84 118.62 13.61
  Q 119.14 13.48 119.36 13.89
  Q 119.57 14.31 120.04 14.36
  Q 120.74 14.45 121.51 14.20
  L 122.72 18.74
  Q 122.82 19.12 123.21 19.12
  L 157.24 19.21
  A 0.47 0.46 -15.8 0 0 157.64 18.50
  L 153.35 11.67
  Q 153.64 10.96 153.98 11.16
  Q 154.79 11.61 155.16 11.52
  Q 156.03 13.35 158.10 15.36
  Q 158.41 16.48 159.91 18.09
  L 162.84 22.57
  L 163.92 24.39
  L 176.62 43.27
  Q 177.31 43.90 177.58 44.52
  Q 178.03 46.08 179.67 47.24
  L 180.53 48.77
  L 186.65 58.14
  Q 186.81 58.77 187.51 59.74
  Q 187.83 61.02 187.58 61.89
  Q 187.42 62.43 186.89 62.26
  L 185.48 61.80
  L 176.07 47.36
  A 1.29 1.28 73.6 0 0 174.99 46.77
  L 142.04 46.77
  A 1.33 1.30 -19.1 0 1 141.02 46.29
  L 139.97 45.01
  Q 139.49 44.43 140.25 44.43
  L 174.00 44.43
  A 0.33 0.33 0.0 0 0 174.18 43.83
  L 173.77 43.56
  Q 173.31 43.26 173.01 42.79
  L 166.55 32.51
  A 1.19 1.19 0.0 0 0 165.54 31.95
  L 126.25 31.94
  A 0.44 0.43 72.2 0 0 125.90 32.63
  Q 126.73 33.79 126.72 35.29
  A 1.00 1.00 0.0 0 0 127.18 36.15
  C 130.84 38.53 133.58 39.86 134.49 44.94
  Q 134.58 45.43 134.98 45.73
  Q 138.39 48.30 141.89 50.78
  C 146.28 53.89 149.19 57.74 152.74 61.64
  Q 153.10 62.04 153.19 62.58
  Q 153.27 63.12 153.57 63.57
  Q 153.75 63.83 154.06 63.89
  Q 154.26 63.92 154.35 63.77
  Q 154.56 63.44 154.95 63.44
  L 186.08 63.48
  Q 185.93 64.16 186.52 64.27
  Q 186.97 64.36 186.88 64.82
  C 186.74 65.47 186.18 65.99 185.46 66.06
  Q 183.98 66.22 182.45 66.46
  L 155.80 66.20
  L 154.58 64.04
  Q 154.53 63.95 154.44 64.00
  L 154.21 64.12
  Q 153.98 64.25 154.12 64.47
  L 155.49 66.72
  Q 156.87 69.37 158.27 72.01
  Q 158.67 72.75 158.58 73.57
  Q 158.51 74.35 158.08 73.70
  C 157.59 72.94 157.54 72.04 157.05 71.32
  C 155.05 68.40 153.68 65.10 151.60 62.48
  C 146.28 55.80 141.89 52.80 136.07 48.54
  Q 134.69 47.52 135.12 49.19
  Q 136.18 53.32 135.34 58.50
  Q 134.16 61.23 134.60 64.73
  L 134.27 66.38
  Q 133.36 67.04 133.57 69.30
  Q 133.23 70.05 133.20 70.70
  Q 133.18 71.21 133.61 71.49
  C 146.59 79.97 156.44 91.14 157.01 107.53
  Q 157.08 109.60 157.98 107.73
  Q 160.48 102.51 161.46 96.78
  Q 161.80 94.79 162.28 96.75
  C 162.90 99.30 161.33 102.58 160.83 105.01
  C 160.00 109.06 159.54 111.11 157.04 114.48
  Q 156.74 114.89 156.71 115.39
  C 156.24 121.58 154.71 124.09 152.29 128.71
  Q 152.10 129.07 152.50 129.07
  L 185.44 129.04
  Q 187.67 130.13 186.58 132.17
  Q 186.09 133.08 185.58 133.99
  A 1.19 1.16 7.6 0 1 184.83 134.55
  L 181.90 135.22
  L 152.82 135.17
  A 0.70 0.69 83.2 0 0 152.14 136.04
  L 165.10 187.20
  Q 159.75 187.89 154.28 187.66
  C 153.09 187.62 151.97 187.07 150.79 186.76
  L 142.18 143.26
  Q 142.08 142.75 142.39 142.34
  Q 145.33 138.48 148.39 134.70
  C 150.59 131.98 151.51 128.90 153.11 125.81
  C 154.10 123.90 154.24 121.96 154.56 119.91
  Q 154.62 119.52 154.89 119.24
  Q 155.22 118.89 154.97 118.40
  A 0.28 0.28 0.0 0 0 154.51 118.34
  Q 146.97 127.09 139.35 130.12
  Q 134.54 132.02 129.82 134.15
  C 128.95 134.55 128.19 134.40 127.29 134.65
  Q 126.76 134.79 126.71 135.33
  C 126.36 139.12 125.73 142.40 122.94 145.22
  Q 119.83 148.35 116.12 150.27
  Q 114.60 151.06 116.31 151.25
  C 119.27 151.56 121.91 154.09 125.16 153.49
  C 125.81 153.37 126.28 152.96 126.95 152.72
  Q 127.47 152.54 127.05 152.90
  C 124.07 155.46 120.48 156.59 116.70 154.84
  Q 114.54 153.85 112.46 152.74
  Q 112.01 152.50 111.52 152.61
  Q 102.33 154.56 99.50 154.03
  Q 94.57 153.12 89.57 152.50
  Q 89.07 152.43 88.63 152.69
  C 86.60 153.87 85.02 155.47 82.67 155.76
  C 79.81 156.11 77.09 155.75 74.90 153.71
  Q 74.37 153.21 75.07 153.41
  Q 79.12 154.61 82.49 151.97
  Q 82.90 151.64 83.42 151.51
  Q 84.14 151.33 84.89 151.38
  A 0.40 0.40 0.0 0 0 85.16 150.66
  L 76.05 143.79
  A 0.60 0.58 -77.4 0 1 75.82 143.41
  L 74.24 135.04
  Q 74.13 134.45 73.54 134.54
  L 72.61 134.67
  Q 72.05 134.75 71.55 134.49
  C 68.60 132.94 64.93 131.13 61.60 130.68
  Q 61.11 130.61 60.70 130.32
  Q 57.01 127.71 53.12 125.39
  C 50.30 123.71 48.52 121.27 46.07 119.08
  Q 45.58 118.64 45.67 119.30
  C 46.42 124.74 49.20 130.17 52.04 134.76
  A 0.08 0.08 0.0 0 1 51.91 134.86
  C 48.63 131.37 47.61 127.80 45.42 123.67
  L 44.44 121.65
  Q 44.15 118.68 43.56 116.00
  C 43.07 113.81 41.35 112.42 40.80 110.75
  Q 40.07 108.58 39.02 102.41
  C 38.76 100.87 37.55 99.41 38.48 97.35
  Q 38.81 96.62 38.93 97.41
  Q 39.88 103.44 42.71 108.80
  Q 43.14 109.62 43.23 108.70
  C 43.51 105.70 43.23 103.07 44.26 100.22
  C 45.58 96.57 46.43 93.22 48.45 89.90
  C 49.94 87.45 51.24 84.98 53.10 82.89
  Q 58.70 76.63 65.80 72.07
  Q 66.37 71.70 66.45 71.29
  Q 66.53 70.85 66.17 70.62
  Q 65.73 70.33 65.69 69.82
  C 65.49 67.12 64.58 64.64 64.45 62.06
  Q 64.32 59.41 63.96 56.80
  C 63.58 54.01 64.16 51.83 64.36 49.10
  Q 64.40 48.57 63.97 48.88
  C 59.97 51.73 56.01 54.34 52.71 58.11
  C 50.84 60.25 48.91 62.13 47.44 64.57
  Q 44.62 69.27 41.95 74.06
  Q 41.82 74.28 41.60 74.16
  L 41.37 74.05
  Q 41.32 74.02 41.34 73.97
  L 44.73 66.77
  Q 46.96 65.14 46.43 63.94
  Q 52.92 53.84 63.40 47.11
  Q 65.39 45.83 65.42 43.55
  Q 65.42 43.05 65.69 42.64
  Q 68.11 38.84 70.25 37.77
  C 73.49 36.17 73.30 35.91 74.46 32.58
  A 0.48 0.48 0.0 0 0 74.01 31.94
  L 34.79 31.96
  Q 34.26 31.96 33.98 32.40
  L 26.53 44.01
  Q 26.26 44.42 26.76 44.42
  L 59.98 44.41
  Q 60.68 44.41 60.33 45.02
  L 59.72 46.04
  Q 59.29 46.77 58.44 46.77
  L 25.56 46.78
  Q 24.85 46.78 24.45 47.37
  L 13.83 63.41
  A 0.08 0.07 -73.8 0 0 13.89 63.53
  L 46.32 63.47
  L 44.70 66.24
  L 11.83 66.34
  Q 11.08 66.61 10.47 66.57
  Q 9.86 66.54 10.13 66.00
  Q 10.41 65.42 10.97 65.02
  A 1.45 1.43 -8.5 0 0 11.53 64.27
  L 12.98 59.76
  L 13.44 58.53
  L 23.01 44.34
  L 23.70 43.29
  L 36.05 24.81
  L 37.51 22.58
  L 41.98 16.08
  L 43.78 13.40
  L 50.99 4.00
  A 0.21 0.21 0.0 0 1 51.26 3.94
  L 51.51 4.09
  Q 51.59 4.13 51.54 4.20
  L 48.00 10.07
  Q 47.77 10.44 48.20 10.54
  Q 49.26 10.79 50.71 10.51
  Z
  M 41.77 20.72
  A 0.33 0.33 0.0 0 0 41.49 20.87
  L 35.71 29.75
  A 0.33 0.33 0.0 0 0 35.99 30.26
  L 74.58 30.27
  A 0.33 0.33 0.0 0 0 74.90 30.02
  L 76.99 21.15
  A 0.33 0.33 0.0 0 0 76.67 20.74
  L 41.77 20.72
  Z
  M 107.50 30.43
  L 119.58 30.22
  Q 119.85 30.22 119.80 29.95
  L 118.08 21.02
  Q 118.03 20.73 117.74 20.73
  L 82.49 20.74
  Q 82.20 20.74 82.16 21.03
  L 80.64 30.05
  Q 80.61 30.22 80.78 30.22
  L 93.24 30.42
  Q 93.36 30.42 93.36 30.52
  L 93.37 30.77
  Q 93.37 31.09 93.05 31.13
  Q 84.17 32.07 80.87 31.96
  Q 80.44 31.95 80.17 32.11
  Q 79.66 32.41 79.74 32.78
  A 1.36 1.35 81.0 0 1 78.56 34.41
  C 74.58 34.84 72.53 38.46 71.91 42.07
  Q 71.81 42.67 72.39 42.47
  C 74.35 41.78 75.60 40.68 77.61 40.27
  Q 82.49 39.30 87.24 37.76
  C 89.53 37.02 92.11 37.40 94.57 36.98
  C 99.58 36.13 104.40 36.84 108.88 37.21
  C 114.22 37.65 119.15 39.57 124.38 40.65
  A 0.47 0.46 -19.3 0 1 124.51 40.71
  Q 125.59 41.33 126.71 41.93
  Q 127.37 42.28 127.27 41.54
  Q 126.77 37.63 123.94 34.88
  A 1.07 1.05 66.0 0 0 123.18 34.58
  Q 122.00 34.60 121.01 34.01
  Q 120.43 33.68 120.48 33.01
  Q 120.50 32.78 120.44 32.56
  A 0.60 0.60 0.0 0 0 119.91 32.14
  L 107.47 31.19
  A 0.17 0.17 0.0 0 1 107.31 31.02
  L 107.30 30.64
  Q 107.30 30.43 107.50 30.43
  Z
  M 164.43 30.27
  A 0.35 0.35 0.0 0 0 164.73 29.73
  L 158.94 20.89
  A 0.35 0.35 0.0 0 0 158.65 20.73
  L 123.88 20.76
  A 0.35 0.35 0.0 0 0 123.54 21.18
  L 125.32 29.99
  A 0.35 0.35 0.0 0 0 125.67 30.27
  L 164.43 30.27
  Z
  M 71.88 61.35
  C 72.82 62.61 72.83 66.61 72.91 68.20
  A 0.20 0.20 0.0 0 0 73.18 68.38
  Q 79.74 66.04 85.18 64.79
  C 88.40 64.05 92.13 63.83 95.58 63.50
  Q 99.65 63.11 103.43 63.37
  C 111.97 63.98 117.63 65.01 125.75 67.92
  Q 126.20 68.09 126.31 67.62
  Q 128.31 58.62 128.49 51.50
  Q 128.55 49.26 127.71 45.18
  Q 127.61 44.69 127.21 44.38
  C 124.87 42.56 120.23 42.09 117.34 41.24
  Q 113.39 40.08 110.18 39.70
  Q 107.12 39.35 104.05 39.04
  C 99.57 38.59 95.40 39.11 90.98 39.58
  C 86.17 40.09 81.42 41.80 76.54 42.87
  C 74.91 43.22 73.69 44.17 72.14 44.84
  Q 71.66 45.05 71.62 45.56
  C 71.41 48.09 70.92 50.25 71.20 52.83
  Q 71.62 56.66 71.61 60.54
  Q 71.61 60.99 71.88 61.35
  Z
  M 76.62 82.59
  Q 80.50 97.72 87.10 111.91
  Q 87.40 112.56 87.94 112.08
  L 88.17 111.87
  Q 88.43 111.63 88.79 111.63
  Q 92.81 111.54 96.83 111.50
  C 101.29 111.46 106.43 112.59 111.40 112.45
  Q 111.88 112.43 112.17 112.05
  C 115.05 108.28 115.61 102.76 117.72 98.36
  Q 118.98 95.75 119.60 92.92
  C 120.59 88.39 122.62 84.08 123.65 79.86
  Q 124.41 76.69 125.25 73.55
  A 0.78 0.77 -74.4 0 0 124.72 72.60
  C 119.82 71.17 114.55 69.10 109.48 68.65
  C 104.88 68.25 100.93 67.64 96.30 68.12
  C 92.54 68.50 89.00 68.65 85.35 69.74
  Q 80.31 71.25 75.31 72.71
  A 1.05 1.05 0.0 0 0 74.56 73.79
  C 74.77 76.92 76.04 80.33 76.62 82.59
  Z
  M 131.55 77.31
  C 130.50 81.53 128.40 85.27 127.08 89.48
  Q 125.25 95.33 122.15 100.61
  Q 121.07 102.46 120.31 105.12
  Q 119.01 109.68 115.74 113.24
  Q 115.29 113.73 115.80 114.15
  L 124.52 121.43
  Q 124.97 121.80 125.05 122.37
  L 126.34 131.53
  Q 126.41 132.01 126.85 131.81
  Q 131.27 129.86 135.70 127.99
  C 138.44 126.83 140.78 124.82 143.33 123.20
  Q 146.63 121.10 148.70 119.14
  C 151.69 116.30 155.74 113.05 155.29 109.48
  C 154.16 100.36 149.97 92.34 143.75 85.42
  C 140.64 81.96 136.89 79.48 132.86 76.80
  Q 131.84 76.13 131.55 77.31
  Z
  M 61.63 126.62
  Q 63.35 127.88 68.27 129.44
  C 70.11 130.02 71.28 130.91 72.73 132.04
  A 0.49 0.48 -67.2 0 0 73.51 131.72
  L 74.40 124.71
  Q 74.68 122.53 75.98 120.75
  Q 77.41 118.80 79.19 116.63
  C 80.43 115.12 82.11 114.73 83.84 113.93
  Q 84.35 113.69 84.00 113.25
  C 82.64 111.54 81.31 109.97 80.36 108.00
  Q 74.74 96.33 70.12 84.23
  C 69.30 82.05 68.89 79.51 68.13 77.16
  Q 67.97 76.66 67.52 76.92
  Q 60.65 80.80 55.47 86.70
  C 53.93 88.46 52.85 90.50 51.42 92.49
  C 49.06 95.80 47.97 98.92 46.61 102.55
  C 45.32 105.97 45.37 109.11 45.35 112.66
  Q 45.35 113.18 45.72 113.55
  Q 48.09 115.89 50.38 118.25
  C 53.68 121.66 57.80 123.84 61.63 126.62
  Z
  M 100.82 115.31
  Q 99.34 114.87 97.80 115.01
  L 89.50 115.72
  A 0.86 0.86 0.0 0 0 88.80 116.95
  Q 90.15 119.71 91.18 122.41
  Q 91.95 124.41 93.43 125.76
  Q 96.54 128.60 99.61 131.59
  Q 99.95 131.92 100.30 131.60
  L 107.90 124.71
  Q 108.31 124.33 108.31 123.78
  L 108.34 117.85
  Q 108.34 117.53 108.03 117.44
  L 100.82 115.31
  Z
  M 99.50 133.84
  Q 99.30 133.43 99.17 133.32
  Q 94.99 129.72 91.01 125.87
  C 88.55 123.49 87.82 120.68 86.70 117.57
  Q 86.53 117.10 86.05 117.24
  C 79.44 119.19 76.80 126.52 77.39 132.80
  Q 77.42 133.15 77.77 133.17
  Q 82.45 133.44 86.52 135.77
  A 0.63 0.63 0.0 0 1 86.64 136.77
  L 86.40 137.00
  Q 86.03 137.36 85.52 137.23
  L 77.88 135.35
  Q 77.01 135.13 77.44 135.91
  C 78.48 137.78 79.30 139.15 79.77 141.33
  Q 80.12 142.95 80.68 144.54
  Q 80.85 145.02 81.25 145.32
  L 86.92 149.57
  Q 87.33 149.89 87.84 149.78
  Q 89.95 149.32 89.69 147.19
  A 0.68 0.68 0.0 0 1 89.99 146.54
  L 99.33 140.26
  Q 99.76 139.98 100.18 140.27
  C 104.44 143.21 110.00 144.86 112.96 149.29
  Q 113.22 149.68 113.63 149.47
  C 119.27 146.61 122.90 142.07 123.36 135.84
  Q 123.39 135.38 122.95 135.50
  L 116.34 137.20
  A 2.81 2.80 -36.2 0 1 114.13 136.86
  L 113.79 136.64
  A 0.69 0.68 53.4 0 1 113.97 135.40
  L 122.81 133.01
  Q 123.26 132.88 123.02 132.48
  C 121.07 129.12 121.13 126.60 120.43 123.25
  Q 120.34 122.79 119.98 122.48
  L 114.53 117.90
  A 1.51 1.51 0.0 0 0 112.48 118.00
  Q 110.21 120.29 110.88 123.50
  Q 111.02 124.14 110.53 124.59
  L 100.25 133.99
  Q 99.77 134.42 99.50 133.84
  Z
  M 94.32 150.84
  C 96.96 151.47 99.56 152.46 102.28 152.06
  Q 106.29 151.48 110.39 150.81
  Q 111.18 150.68 110.75 150.01
  C 108.24 146.12 104.15 144.54 100.24 142.24
  Q 99.81 141.99 99.40 142.26
  L 92.67 146.66
  A 0.94 0.94 0.0 0 0 92.26 147.61
  Q 92.44 148.62 92.28 149.61
  Q 92.19 150.12 92.67 150.31
  Q 93.52 150.65 94.32 150.84
  Z"
/>
<path fill="#000000" d="
  M 50.14 11.58
  L 78.79 11.59
  A 0.70 0.70 0.0 0 1 79.46 12.47
  L 78.56 15.72
  L 78.00 18.41
  Q 77.83 19.18 77.05 19.18
  L 43.26 19.22
  Q 42.57 19.22 42.93 18.63
  L 47.03 11.93
  Q 47.35 11.41 47.95 11.45
  L 50.14 11.58
  Z"
/>
<path fill="#000000" d="
  M 116.68 14.03
  L 117.69 18.71
  Q 117.80 19.20 117.30 19.20
  L 83.20 19.16
  Q 82.73 19.16 82.68 18.70
  Q 82.58 17.79 83.10 16.77
  L 83.80 12.71
  Q 83.99 11.63 85.08 11.63
  L 115.57 11.72
  Q 116.16 11.72 116.29 12.29
  L 116.68 14.03
  Z"
/>
<path fill="#000000" d="
  M 153.35 11.67
  L 157.64 18.50
  A 0.47 0.46 -15.8 0 1 157.24 19.21
  L 123.21 19.12
  Q 122.82 19.12 122.72 18.74
  L 121.51 14.20
  L 120.94 12.42
  Q 120.74 11.77 121.41 11.77
  L 153.35 11.67
  Z"
/>
<path fill="#9a0101" d="
  M 188.43 60.46
  Q 187.90 60.61 187.51 59.74
  Q 186.81 58.77 186.65 58.14
  L 184.11 38.79
  A 0.40 0.32 28.9 0 0 184.03 38.60
  Q 183.67 38.08 183.14 38.54
  Q 182.97 38.69 182.91 38.96
  Q 181.87 43.65 180.53 48.77
  L 179.67 47.24
  Q 180.16 46.18 180.17 44.91
  Q 180.17 44.42 179.70 44.31
  Q 178.67 44.06 177.58 44.52
  Q 177.31 43.90 176.62 43.27
  L 180.58 43.07
  Q 181.10 43.04 181.19 42.53
  Q 181.58 40.25 182.49 38.14
  C 183.18 36.54 183.22 34.90 183.92 33.33
  C 185.19 30.43 186.16 27.64 187.25 24.69
  Q 187.44 24.19 186.91 24.20
  L 163.92 24.39
  L 162.84 22.57
  L 187.00 22.80
  A 1.10 1.09 -79.4 0 0 188.04 22.08
  Q 189.61 17.87 191.25 13.50
  Q 191.29 13.39 191.36 13.38
  Q 191.50 13.34 191.46 13.52
  Q 190.71 16.45 189.70 19.29
  C 187.94 24.21 186.74 29.15 184.63 33.95
  A 1.02 0.95 -39.3 0 0 184.56 34.48
  L 188.49 59.03
  Q 188.56 59.47 188.47 59.91
  Q 188.41 60.19 188.43 60.46
  Z"
/>
<path fill="#9a0101" d="
  M 37.51 22.58
  L 36.05 24.81
  Q 35.96 24.69 35.90 24.60
  Q 35.83 24.51 35.72 24.51
  L 13.68 24.41
  Q 13.18 24.41 13.35 24.88
  L 19.62 42.59
  Q 19.75 42.97 20.14 43.00
  L 23.70 43.29
  L 23.01 44.34
  L 20.27 44.18
  Q 19.78 44.15 19.86 44.64
  Q 19.91 44.90 20.14 45.08
  Q 20.51 45.37 20.52 45.85
  Q 20.54 46.68 19.97 47.30
  Q 19.50 47.80 19.28 47.16
  Q 18.26 44.29 18.13 41.24
  Q 18.11 40.73 17.85 40.30
  L 16.45 37.98
  Q 15.98 37.21 16.08 38.11
  L 16.28 39.77
  Q 16.33 40.23 16.26 40.69
  L 13.44 58.53
  L 12.98 59.76
  L 11.79 60.78
  Q 12.27 55.76 13.27 50.88
  C 14.23 46.17 14.53 42.07 15.26 37.62
  C 16.13 32.36 13.12 28.22 11.95 23.12
  C 11.23 19.97 9.83 17.08 9.07 13.86
  Q 9.02 13.66 9.15 13.83
  C 10.10 15.11 10.13 16.60 10.83 17.92
  Q 11.93 20.00 12.45 22.28
  Q 12.56 22.76 13.04 22.75
  L 37.51 22.58
  Z"
/>
<path fill="#000000" d="
  M 41.77 20.72
  L 76.67 20.74
  A 0.33 0.33 0.0 0 1 76.99 21.15
  L 74.90 30.02
  A 0.33 0.33 0.0 0 1 74.58 30.27
  L 35.99 30.26
  A 0.33 0.33 0.0 0 1 35.71 29.75
  L 41.49 20.87
  A 0.33 0.33 0.0 0 1 41.77 20.72
  Z"
/>
<path fill="#000000" d="
  M 107.50 30.43
  Q 107.30 30.43 107.30 30.64
  L 107.31 31.02
  A 0.17 0.17 0.0 0 0 107.47 31.19
  L 119.91 32.14
  A 0.60 0.60 0.0 0 1 120.44 32.56
  Q 120.50 32.78 120.48 33.01
  Q 120.43 33.68 121.01 34.01
  Q 122.00 34.60 123.18 34.58
  A 1.07 1.05 66.0 0 1 123.94 34.88
  Q 126.77 37.63 127.27 41.54
  Q 127.37 42.28 126.71 41.93
  Q 125.59 41.33 124.51 40.71
  A 0.47 0.46 -19.3 0 0 124.38 40.65
  C 119.15 39.57 114.22 37.65 108.88 37.21
  C 104.40 36.84 99.58 36.13 94.57 36.98
  C 92.11 37.40 89.53 37.02 87.24 37.76
  Q 82.49 39.30 77.61 40.27
  C 75.60 40.68 74.35 41.78 72.39 42.47
  Q 71.81 42.67 71.91 42.07
  C 72.53 38.46 74.58 34.84 78.56 34.41
  A 1.36 1.35 81.0 0 0 79.74 32.78
  Q 79.66 32.41 80.17 32.11
  Q 80.44 31.95 80.87 31.96
  Q 84.17 32.07 93.05 31.13
  Q 93.37 31.09 93.37 30.77
  L 93.36 30.52
  Q 93.36 30.42 93.24 30.42
  L 80.78 30.22
  Q 80.61 30.22 80.64 30.05
  L 82.16 21.03
  Q 82.20 20.74 82.49 20.74
  L 117.74 20.73
  Q 118.03 20.73 118.08 21.02
  L 119.80 29.95
  Q 119.85 30.22 119.58 30.22
  L 107.50 30.43
  Z"
/>
<path fill="#000000" d="
  M 164.43 30.27
  L 125.67 30.27
  A 0.35 0.35 0.0 0 1 125.32 29.99
  L 123.54 21.18
  A 0.35 0.35 0.0 0 1 123.88 20.76
  L 158.65 20.73
  A 0.35 0.35 0.0 0 1 158.94 20.89
  L 164.73 29.73
  A 0.35 0.35 0.0 0 1 164.43 30.27
  Z"
/>
<path fill="#000000" d="
  M 36.05 24.81
  L 23.70 43.29
  L 20.14 43.00
  Q 19.75 42.97 19.62 42.59
  L 13.35 24.88
  Q 13.18 24.41 13.68 24.41
  L 35.72 24.51
  Q 35.83 24.51 35.90 24.60
  Q 35.96 24.69 36.05 24.81
  Z"
/>
<path fill="#000000" d="
  M 176.62 43.27
  L 163.92 24.39
  L 186.91 24.20
  Q 187.44 24.19 187.25 24.69
  C 186.16 27.64 185.19 30.43 183.92 33.33
  C 183.22 34.90 183.18 36.54 182.49 38.14
  Q 181.58 40.25 181.19 42.53
  Q 181.10 43.04 180.58 43.07
  L 176.62 43.27
  Z"
/>
<path fill="#000000" d="
  M 46.43 63.94
  Q 46.37 63.70 46.32 63.47
  L 13.89 63.53
  A 0.08 0.07 -73.8 0 1 13.83 63.41
  L 24.45 47.37
  Q 24.85 46.78 25.56 46.78
  L 58.44 46.77
  Q 59.29 46.77 59.72 46.04
  L 60.33 45.02
  Q 60.68 44.41 59.98 44.41
  L 26.76 44.42
  Q 26.26 44.42 26.53 44.01
  L 33.98 32.40
  Q 34.26 31.96 34.79 31.96
  L 74.01 31.94
  A 0.48 0.48 0.0 0 1 74.46 32.58
  C 73.30 35.91 73.49 36.17 70.25 37.77
  Q 68.11 38.84 65.69 42.64
  Q 65.42 43.05 65.42 43.55
  Q 65.39 45.83 63.40 47.11
  Q 52.92 53.84 46.43 63.94
  Z"
/>
<path fill="#000000" d="
  M 185.48 61.80
  Q 186.99 63.31 186.08 63.48
  L 154.95 63.44
  Q 154.56 63.44 154.35 63.77
  Q 154.26 63.92 154.06 63.89
  Q 153.75 63.83 153.57 63.57
  Q 153.27 63.12 153.19 62.58
  Q 153.10 62.04 152.74 61.64
  C 149.19 57.74 146.28 53.89 141.89 50.78
  Q 138.39 48.30 134.98 45.73
  Q 134.58 45.43 134.49 44.94
  C 133.58 39.86 130.84 38.53 127.18 36.15
  A 1.00 1.00 0.0 0 1 126.72 35.29
  Q 126.73 33.79 125.90 32.63
  A 0.44 0.43 72.2 0 1 126.25 31.94
  L 165.54 31.95
  A 1.19 1.19 0.0 0 1 166.55 32.51
  L 173.01 42.79
  Q 173.31 43.26 173.77 43.56
  L 174.18 43.83
  A 0.33 0.33 0.0 0 1 174.00 44.43
  L 140.25 44.43
  Q 139.49 44.43 139.97 45.01
  L 141.02 46.29
  A 1.33 1.30 -19.1 0 0 142.04 46.77
  L 174.99 46.77
  A 1.29 1.28 73.6 0 1 176.07 47.36
  L 185.48 61.80
  Z"
/>
<path fill="#000000" d="
  M 23.01 44.34
  L 13.44 58.53
  L 16.26 40.69
  Q 16.33 40.23 16.28 39.77
  L 16.08 38.11
  Q 15.98 37.21 16.45 37.98
  L 17.85 40.30
  Q 18.11 40.73 18.13 41.24
  Q 18.26 44.29 19.28 47.16
  Q 19.50 47.80 19.97 47.30
  Q 20.54 46.68 20.52 45.85
  Q 20.51 45.37 20.14 45.08
  Q 19.91 44.90 19.86 44.64
  Q 19.78 44.15 20.27 44.18
  L 23.01 44.34
  Z"
/>
<path fill="#000000" d="
  M 186.65 58.14
  L 180.53 48.77
  Q 181.87 43.65 182.91 38.96
  Q 182.97 38.69 183.14 38.54
  Q 183.67 38.08 184.03 38.60
  A 0.40 0.32 28.9 0 1 184.11 38.79
  L 186.65 58.14
  Z"
/>
<path fill="#000000" d="
  M 72.91 68.20
  C 72.83 66.61 72.82 62.61 71.88 61.35
  Q 71.61 60.99 71.61 60.54
  Q 71.62 56.66 71.20 52.83
  C 70.92 50.25 71.41 48.09 71.62 45.56
  Q 71.66 45.05 72.14 44.84
  C 73.69 44.17 74.91 43.22 76.54 42.87
  C 81.42 41.80 86.17 40.09 90.98 39.58
  C 95.40 39.11 99.57 38.59 104.05 39.04
  Q 107.12 39.35 110.18 39.70
  Q 113.39 40.08 117.34 41.24
  C 120.23 42.09 124.87 42.56 127.21 44.38
  Q 127.61 44.69 127.71 45.18
  Q 128.55 49.26 128.49 51.50
  Q 128.31 58.62 126.31 67.62
  Q 126.20 68.09 125.75 67.92
  C 117.63 65.01 111.97 63.98 103.43 63.37
  Q 99.65 63.11 95.58 63.50
  C 92.13 63.83 88.40 64.05 85.18 64.79
  Q 79.74 66.04 73.18 68.38
  A 0.20 0.20 0.0 0 1 72.91 68.20
  Z"
/>
<path fill="#000000" d="
  M 179.67 47.24
  Q 178.03 46.08 177.58 44.52
  Q 178.67 44.06 179.70 44.31
  Q 180.17 44.42 180.17 44.91
  Q 180.16 46.18 179.67 47.24
  Z"
/>
<path fill="#03b401" d="
  M 135.34 58.50
  Q 135.52 61.61 134.60 64.73
  Q 134.16 61.23 135.34 58.50
  Z"
/>
<path fill="#03b401" d="
  M 12.98 59.76
  L 11.53 64.27
  A 1.45 1.43 -8.5 0 1 10.97 65.02
  Q 10.41 65.42 10.13 66.00
  Q 9.86 66.54 10.47 66.57
  Q 11.08 66.61 11.83 66.34
  L 2.63 79.69
  Q 2.50 79.88 2.30 79.77
  L 2.29 79.76
  Q 2.13 79.67 2.33 79.26
  L 6.42 70.90
  Q 6.64 70.44 7.03 70.13
  C 8.24 69.13 7.57 67.33 8.71 65.95
  Q 10.71 63.55 11.79 60.78
  L 12.98 59.76
  Z"
/>
<path fill="#03b401" d="
  M 187.51 59.74
  Q 187.90 60.61 188.43 60.46
  C 188.70 60.95 188.76 61.55 189.08 62.00
  C 192.25 66.31 193.96 70.70 196.47 75.30
  Q 197.13 76.50 196.82 77.80
  C 195.74 77.38 195.75 76.74 195.25 76.08
  Q 191.87 71.69 188.92 66.93
  Q 188.65 66.50 188.14 66.49
  L 182.45 66.46
  Q 183.98 66.22 185.46 66.06
  C 186.18 65.99 186.74 65.47 186.88 64.82
  Q 186.97 64.36 186.52 64.27
  Q 185.93 64.16 186.08 63.48
  Q 186.99 63.31 185.48 61.80
  L 186.89 62.26
  Q 187.42 62.43 187.58 61.89
  Q 187.83 61.02 187.51 59.74
  Z"
/>
<path fill="#016d00" d="
  M 46.32 63.47
  Q 46.37 63.70 46.43 63.94
  Q 46.96 65.14 44.73 66.77
  Q 44.63 66.52 44.70 66.24
  L 46.32 63.47
  Z"
/>
<path fill="#005700" d="
  M 155.80 66.20
  Q 155.43 66.21 155.49 66.72
  L 154.12 64.47
  Q 153.98 64.25 154.21 64.12
  L 154.44 64.00
  Q 154.53 63.95 154.58 64.04
  L 155.80 66.20
  Z"
/>
<path fill="#016d00" d="
  M 134.27 66.38
  Q 134.45 67.61 133.57 69.30
  Q 133.36 67.04 134.27 66.38
  Z"
/>
<path fill="#000000" d="
  M 76.62 82.59
  C 76.04 80.33 74.77 76.92 74.56 73.79
  A 1.05 1.05 0.0 0 1 75.31 72.71
  Q 80.31 71.25 85.35 69.74
  C 89.00 68.65 92.54 68.50 96.30 68.12
  C 100.93 67.64 104.88 68.25 109.48 68.65
  C 114.55 69.10 119.82 71.17 124.72 72.60
  A 0.78 0.77 -74.4 0 1 125.25 73.55
  Q 124.41 76.69 123.65 79.86
  C 122.62 84.08 120.59 88.39 119.60 92.92
  Q 118.98 95.75 117.72 98.36
  C 115.61 102.76 115.05 108.28 112.17 112.05
  Q 111.88 112.43 111.40 112.45
  C 106.43 112.59 101.29 111.46 96.83 111.50
  Q 92.81 111.54 88.79 111.63
  Q 88.43 111.63 88.17 111.87
  L 87.94 112.08
  Q 87.40 112.56 87.10 111.91
  Q 80.50 97.72 76.62 82.59
  Z"
/>
<path fill="#03b401" d="
  M 159.76 77.14
  L 160.15 77.59
  A 0.29 0.29 0.0 0 1 159.74 77.99
  Q 158.54 76.96 158.60 75.35
  Q 158.63 74.76 158.98 75.23
  Q 159.32 75.68 159.37 76.24
  Q 159.42 76.75 159.76 77.14
  Z"
/>
<path fill="#000000" d="
  M 127.08 89.48
  C 128.40 85.27 130.50 81.53 131.55 77.31
  Q 131.84 76.13 132.86 76.80
  C 136.89 79.48 140.64 81.96 143.75 85.42
  C 149.97 92.34 154.16 100.36 155.29 109.48
  C 155.74 113.05 151.69 116.30 148.70 119.14
  Q 146.63 121.10 143.33 123.20
  C 140.78 124.82 138.44 126.83 135.70 127.99
  Q 131.27 129.86 126.85 131.81
  Q 126.41 132.01 126.34 131.53
  L 125.05 122.37
  Q 124.97 121.80 124.52 121.43
  L 115.80 114.15
  Q 115.29 113.73 115.74 113.24
  Q 119.01 109.68 120.31 105.12
  Q 121.07 102.46 122.15 100.61
  Q 125.25 95.33 127.08 89.48
  Z"
/>
<path fill="#03b401" d="
  M 40.86 78.69
  Q 40.84 78.73 40.82 78.76
  Q 40.91 78.33 40.67 77.82
  Q 40.44 77.33 40.81 76.94
  Q 40.91 76.83 41.06 76.78
  Q 41.59 76.62 41.55 77.18
  Q 41.50 77.96 40.86 78.69
  Z"
/>
<path fill="#000000" d="
  M 61.63 126.62
  C 57.80 123.84 53.68 121.66 50.38 118.25
  Q 48.09 115.89 45.72 113.55
  Q 45.35 113.18 45.35 112.66
  C 45.37 109.11 45.32 105.97 46.61 102.55
  C 47.97 98.92 49.06 95.80 51.42 92.49
  C 52.85 90.50 53.93 88.46 55.47 86.70
  Q 60.65 80.80 67.52 76.92
  Q 67.97 76.66 68.13 77.16
  C 68.89 79.51 69.30 82.05 70.12 84.23
  Q 74.74 96.33 80.36 108.00
  C 81.31 109.97 82.64 111.54 84.00 113.25
  Q 84.35 113.69 83.84 113.93
  C 82.11 114.73 80.43 115.12 79.19 116.63
  Q 77.41 118.80 75.98 120.75
  Q 74.68 122.53 74.40 124.71
  L 73.51 131.72
  A 0.49 0.48 -67.2 0 1 72.73 132.04
  C 71.28 130.91 70.11 130.02 68.27 129.44
  Q 63.35 127.88 61.63 126.62
  Z"
/>
<path fill="#016d00" d="
  M 196.82 77.80
  Q 196.94 77.70 197.11 77.65
  A 0.59 0.58 68.6 0 1 197.78 77.95
  L 198.34 79.01
  A 0.43 0.42 -5.4 0 1 197.84 79.61
  Q 196.73 79.28 196.82 77.80
  Z"
/>
<path fill="#00fe00" d="
  M 40.82 78.76
  Q 40.84 78.73 40.86 78.69
  Q 40.93 79.93 39.99 79.95
  Q 39.60 79.96 39.71 79.59
  Q 39.86 79.09 40.82 78.76
  Z"
/>
<path fill="#03b401" d="
  M 160.26 78.85
  Q 160.48 78.87 160.59 79.52
  Q 160.70 80.11 160.10 80.02
  Q 159.92 80.00 159.74 79.97
  A 0.71 0.51 -29.4 0 1 160.26 78.85
  Z"
/>
<path fill="#005700" d="
  M 197.88 80.49
  Q 197.56 80.20 197.90 79.84
  A 0.51 0.51 0.0 0 1 198.72 79.95
  Q 199.14 80.76 199.13 81.58
  A 0.23 0.23 0.0 0 1 198.71 81.70
  L 198.07 80.71
  Q 197.98 80.58 197.88 80.49
  Z"
/>
<path fill="#00fe00" d="
  M 7.31 93.47
  Q 7.21 92.93 6.50 92.00
  Q 5.81 91.09 7.09 90.52
  C 9.94 90.35 12.92 89.87 15.65 89.83
  Q 27.18 89.67 38.68 89.73
  Q 38.93 89.73 38.93 89.99
  L 38.99 93.52
  A 0.26 0.25 -0.0 0 1 38.73 93.77
  L 7.31 93.47
  Z"
/>
<path fill="#00fe00" d="
  M 192.77 90.56
  L 191.49 93.39
  L 161.51 93.74
  Q 161.26 93.74 161.27 93.50
  L 161.41 90.04
  Q 161.41 89.85 161.60 89.85
  Q 177.16 89.26 192.77 90.56
  Z"
/>
<path fill="#03b401" d="
  M 7.09 90.52
  Q 5.81 91.09 6.50 92.00
  Q 7.21 92.93 7.31 93.47
  Q 5.15 93.38 3.21 92.63
  A 0.39 0.39 0.0 0 1 3.05 92.02
  Q 3.25 91.78 2.93 91.73
  A 0.28 0.28 0.0 0 1 2.83 91.22
  Q 4.88 90.03 7.09 90.52
  Z"
/>
<path fill="#03b401" d="
  M 192.77 90.56
  Q 193.63 90.67 193.33 91.53
  A 0.46 0.46 0.0 0 0 193.88 92.12
  Q 195.15 91.79 196.40 92.11
  Q 196.92 92.24 196.59 92.66
  Q 196.38 92.94 195.99 92.99
  Q 193.41 93.36 191.49 93.39
  L 192.77 90.56
  Z"
/>
<path fill="#f00000" d="
  M 6.02 112.62
  Q 3.99 112.93 2.12 112.12
  Q 2.07 112.10 2.07 112.14
  Q 2.07 112.15 2.07 112.16
  Q 2.07 112.19 2.09 112.19
  C 14.95 111.24 27.30 111.14 40.10 111.19
  Q 40.96 111.20 41.15 112.04
  L 41.51 113.58
  Q 41.67 114.32 40.92 114.31
  C 29.34 114.26 17.35 114.81 5.77 113.27
  Q 4.87 113.15 5.70 112.92
  Q 5.83 112.88 6.13 112.82
  A 0.13 0.09 25.7 0 0 6.02 112.62
  Z"
/>
<path fill="#000000" d="
  M 100.82 115.31
  L 108.03 117.44
  Q 108.34 117.53 108.34 117.85
  L 108.31 123.78
  Q 108.31 124.33 107.90 124.71
  L 100.30 131.60
  Q 99.95 131.92 99.61 131.59
  Q 96.54 128.60 93.43 125.76
  Q 91.95 124.41 91.18 122.41
  Q 90.15 119.71 88.80 116.95
  A 0.86 0.86 0.0 0 1 89.50 115.72
  L 97.80 115.01
  Q 99.34 114.87 100.82 115.31
  Z"
/>
<path fill="#000000" d="
  M 100.25 133.99
  L 110.53 124.59
  Q 111.02 124.14 110.88 123.50
  Q 110.21 120.29 112.48 118.00
  A 1.51 1.51 0.0 0 1 114.53 117.90
  L 119.98 122.48
  Q 120.34 122.79 120.43 123.25
  C 121.13 126.60 121.07 129.12 123.02 132.48
  Q 123.26 132.88 122.81 133.01
  L 113.97 135.40
  A 0.69 0.68 53.4 0 0 113.79 136.64
  L 114.13 136.86
  A 2.81 2.80 -36.2 0 0 116.34 137.20
  L 122.95 135.50
  Q 123.39 135.38 123.36 135.84
  C 122.90 142.07 119.27 146.61 113.63 149.47
  Q 113.22 149.68 112.96 149.29
  C 110.00 144.86 104.44 143.21 100.18 140.27
  Q 99.76 139.98 99.33 140.26
  L 89.99 146.54
  A 0.68 0.68 0.0 0 0 89.69 147.19
  Q 89.95 149.32 87.84 149.78
  Q 87.33 149.89 86.92 149.57
  L 81.25 145.32
  Q 80.85 145.02 80.68 144.54
  Q 80.12 142.95 79.77 141.33
  C 79.30 139.15 78.48 137.78 77.44 135.91
  Q 77.01 135.13 77.88 135.35
  L 85.52 137.23
  Q 86.03 137.36 86.40 137.00
  L 86.64 136.77
  A 0.63 0.63 0.0 0 0 86.52 135.77
  Q 82.45 133.44 77.77 133.17
  Q 77.42 133.15 77.39 132.80
  C 76.80 126.52 79.44 119.19 86.05 117.24
  Q 86.53 117.10 86.70 117.57
  C 87.82 120.68 88.55 123.49 91.01 125.87
  Q 94.99 129.72 99.17 133.32
  Q 99.30 133.43 99.50 133.84
  Q 99.77 134.42 100.25 133.99
  Z"
/>
<path fill="#000000" d="
  M 150.79 186.76
  Q 150.66 187.75 150.94 188.51
  L 151.55 191.90
  Q 151.64 192.38 151.23 192.65
  Q 150.36 193.24 148.84 193.38
  Q 145.23 192.68 136.75 192.68
  Q 93.15 192.65 49.51 192.58
  Q 49.28 191.16 49.82 190.17
  Q 50.05 189.74 50.10 189.27
  Q 50.30 187.58 51.18 184.76
  Q 52.26 181.27 53.36 171.74
  Q 54.43 166.75 55.55 161.65
  Q 55.99 159.69 56.50 155.26
  C 56.87 152.02 60.50 143.34 57.09 141.02
  L 56.36 139.99
  L 52.66 135.89
  Q 52.56 135.78 52.43 135.90
  L 52.43 135.91
  Q 52.33 136.01 52.43 136.13
  L 55.51 140.16
  C 56.66 141.96 55.15 142.71 55.23 144.25
  Q 55.29 145.47 54.63 146.51
  A 1.87 1.86 -27.3 0 0 54.35 147.38
  L 54.04 151.31
  Q 54.04 151.36 54.03 151.40
  Q 53.10 153.49 53.16 155.78
  Q 53.17 156.28 52.94 156.72
  C 52.10 158.32 52.01 160.41 51.58 161.87
  Q 50.45 165.61 50.47 169.58
  L 49.73 172.91
  Q 48.93 174.92 48.49 176.93
  Q 48.07 178.81 47.54 181.01
  Q 46.94 183.46 46.89 186.00
  L 46.47 189.17
  Q 46.15 189.59 46.19 190.75
  Q 46.23 191.86 45.31 192.11
  Q 44.85 192.24 44.60 191.83
  L 41.39 186.41
  L 33.11 173.35
  A 1.13 1.12 36.3 0 1 32.97 172.45
  Q 38.91 150.68 45.03 128.99
  Q 45.93 125.79 45.42 123.67
  C 47.61 127.80 48.63 131.37 51.91 134.86
  A 0.08 0.08 0.0 0 0 52.04 134.76
  C 49.20 130.17 46.42 124.74 45.67 119.30
  Q 45.58 118.64 46.07 119.08
  C 48.52 121.27 50.30 123.71 53.12 125.39
  Q 57.01 127.71 60.70 130.32
  Q 61.11 130.61 61.60 130.68
  C 64.93 131.13 68.60 132.94 71.55 134.49
  Q 72.05 134.75 72.61 134.67
  L 73.54 134.54
  Q 74.13 134.45 74.24 135.04
  L 75.82 143.41
  A 0.60 0.58 -77.4 0 0 76.05 143.79
  L 85.16 150.66
  A 0.40 0.40 0.0 0 1 84.89 151.38
  Q 84.14 151.33 83.42 151.51
  Q 82.90 151.64 82.49 151.97
  Q 79.12 154.61 75.07 153.41
  Q 74.37 153.21 74.90 153.71
  C 77.09 155.75 79.81 156.11 82.67 155.76
  C 85.02 155.47 86.60 153.87 88.63 152.69
  Q 89.07 152.43 89.57 152.50
  Q 94.57 153.12 99.50 154.03
  Q 102.33 154.56 111.52 152.61
  Q 112.01 152.50 112.46 152.74
  Q 114.54 153.85 116.70 154.84
  C 120.48 156.59 124.07 155.46 127.05 152.90
  Q 127.47 152.54 126.95 152.72
  C 126.28 152.96 125.81 153.37 125.16 153.49
  C 121.91 154.09 119.27 151.56 116.31 151.25
  Q 114.60 151.06 116.12 150.27
  Q 119.83 148.35 122.94 145.22
  C 125.73 142.40 126.36 139.12 126.71 135.33
  Q 126.76 134.79 127.29 134.65
  C 128.19 134.40 128.95 134.55 129.82 134.15
  Q 134.54 132.02 139.35 130.12
  Q 146.97 127.09 154.51 118.34
  A 0.28 0.28 0.0 0 1 154.97 118.40
  Q 155.22 118.89 154.89 119.24
  Q 154.62 119.52 154.56 119.91
  C 154.24 121.96 154.10 123.90 153.11 125.81
  C 151.51 128.90 150.59 131.98 148.39 134.70
  Q 145.33 138.48 142.39 142.34
  Q 142.08 142.75 142.18 143.26
  L 150.79 186.76
  Z"
/>
<path fill="#f00000" d="
  M 44.44 121.65
  L 45.42 123.67
  Q 45.93 125.79 45.03 128.99
  Q 38.91 150.68 32.97 172.45
  A 1.13 1.12 36.3 0 0 33.11 173.35
  L 41.39 186.41
  Q 41.86 189.20 36.00 188.42
  Q 34.37 188.20 33.04 187.17
  L 26.87 178.81
  A 1.13 1.10 71.7 0 0 26.00 178.36
  L 16.02 178.25
  Q 14.73 177.37 14.82 176.21
  A 1.48 1.42 -54.6 0 0 14.72 175.54
  Q 14.07 173.93 14.10 172.21
  Q 14.11 171.78 14.54 171.78
  L 24.80 171.91
  A 3.19 3.18 -78.8 0 0 27.80 169.90
  C 30.00 164.34 31.03 158.28 33.09 152.59
  A 20.88 1.69 -67.6 0 0 35.67 144.56
  L 38.52 133.08
  L 42.52 119.25
  Q 42.73 118.52 43.10 119.18
  L 44.44 121.65
  Z"
/>
<path fill="#005700" d="
  M 200.00 129.90
  L 200.00 134.23
  Q 196.52 135.75 192.70 135.13
  L 192.84 128.94
  Q 196.48 128.15 200.00 129.90
  Z"
/>
<path fill="#03b401" d="
  M 185.44 129.04
  L 192.84 128.94
  L 192.70 135.13
  L 181.90 135.22
  L 184.83 134.55
  A 1.19 1.16 7.6 0 0 185.58 133.99
  Q 186.09 133.08 186.58 132.17
  Q 187.67 130.13 185.44 129.04
  Z"
/>
<path fill="#9a0101" d="
  M 38.52 133.08
  L 35.67 144.56
  A 20.88 1.69 -67.6 0 1 33.09 152.59
  C 31.03 158.28 30.00 164.34 27.80 169.90
  A 3.19 3.18 -78.8 0 1 24.80 171.91
  L 14.54 171.78
  Q 14.11 171.78 14.10 172.21
  Q 14.07 173.93 14.72 175.54
  A 1.48 1.42 -54.6 0 1 14.82 176.21
  Q 14.73 177.37 16.02 178.25
  L 9.81 178.36
  Q 8.42 176.65 8.13 172.89
  A 1.27 1.26 -88.3 0 1 9.55 171.54
  Q 10.89 171.72 13.20 171.02
  L 25.32 170.78
  A 1.84 1.83 -81.6 0 0 27.04 169.50
  L 38.52 133.08
  Z"
/>
<path fill="#000000" d="
  M 200.00 134.23
  L 200.00 177.23
  Q 198.22 187.65 190.94 193.99
  Q 185.30 192.83 179.51 193.44
  Q 178.31 193.19 177.46 193.37
  C 174.86 193.31 166.61 194.23 166.07 190.83
  L 165.10 187.20
  L 152.14 136.04
  A 0.70 0.69 83.2 0 1 152.82 135.17
  L 181.90 135.22
  L 192.70 135.13
  Q 196.52 135.75 200.00 134.23
  Z"
/>
<path fill="#03b401" d="
  M 56.36 139.99
  Q 55.88 140.16 55.51 140.16
  L 52.43 136.13
  Q 52.33 136.01 52.43 135.91
  L 52.43 135.90
  Q 52.56 135.78 52.66 135.89
  L 56.36 139.99
  Z"
/>
<path fill="#9a0101" d="
  M 56.36 139.99
  L 57.09 141.02
  L 56.89 142.11
  L 54.78 150.67
  L 54.04 151.31
  L 54.35 147.38
  A 1.87 1.86 -27.3 0 1 54.63 146.51
  Q 55.29 145.47 55.23 144.25
  C 55.15 142.71 56.66 141.96 55.51 140.16
  Q 55.88 140.16 56.36 139.99
  Z"
/>
<path fill="#03b401" d="
  M 57.09 141.02
  C 60.50 143.34 56.87 152.02 56.50 155.26
  Q 55.99 159.69 55.55 161.65
  Q 54.43 166.75 53.36 171.74
  L 51.30 176.34
  Q 51.32 174.57 50.74 174.38
  C 51.43 172.92 50.84 171.68 51.30 170.26
  Q 51.63 169.22 52.03 168.26
  L 53.97 162.93
  Q 54.14 162.46 54.09 161.97
  Q 53.82 159.72 54.94 157.69
  Q 55.20 157.22 55.13 156.69
  Q 54.52 151.55 56.99 147.05
  A 1.33 1.30 -32.9 0 0 57.15 146.35
  L 56.89 142.11
  L 57.09 141.02
  Z"
/>
<path fill="#000000" d="
  M 94.32 150.84
  Q 93.52 150.65 92.67 150.31
  Q 92.19 150.12 92.28 149.61
  Q 92.44 148.62 92.26 147.61
  A 0.94 0.94 0.0 0 1 92.67 146.66
  L 99.40 142.26
  Q 99.81 141.99 100.24 142.24
  C 104.15 144.54 108.24 146.12 110.75 150.01
  Q 111.18 150.68 110.39 150.81
  Q 106.29 151.48 102.28 152.06
  C 99.56 152.46 96.96 151.47 94.32 150.84
  Z"
/>
<path fill="#00fe00" d="
  M 56.89 142.11
  L 57.15 146.35
  A 1.33 1.30 -32.9 0 1 56.99 147.05
  Q 54.52 151.55 55.13 156.69
  Q 55.20 157.22 54.94 157.69
  Q 53.82 159.72 54.09 161.97
  Q 54.14 162.46 53.97 162.93
  L 52.03 168.26
  Q 51.74 167.04 51.92 165.69
  L 54.15 154.12
  Q 54.97 152.77 54.78 150.67
  L 56.89 142.11
  Z"
/>
<path fill="#f00000" d="
  M 54.78 150.67
  Q 54.97 152.77 54.15 154.12
  L 54.03 151.40
  Q 54.04 151.36 54.04 151.31
  L 54.78 150.67
  Z"
/>
<path fill="#9a0101" d="
  M 54.03 151.40
  L 54.15 154.12
  L 51.92 165.69
  L 50.47 169.58
  Q 50.45 165.61 51.58 161.87
  C 52.01 160.41 52.10 158.32 52.94 156.72
  Q 53.17 156.28 53.16 155.78
  Q 53.10 153.49 54.03 151.40
  Z"
/>
<path fill="#f00000" d="
  M 51.92 165.69
  Q 51.74 167.04 52.03 168.26
  Q 51.63 169.22 51.30 170.26
  C 50.84 171.68 51.43 172.92 50.74 174.38
  Q 50.84 174.65 50.23 174.74
  Q 50.22 174.55 50.34 174.46
  Q 50.46 174.38 50.35 174.29
  Q 49.77 173.84 49.73 172.91
  L 50.47 169.58
  L 51.92 165.69
  Z"
/>
<path fill="#4f0000" d="
  M 13.20 171.02
  Q 10.89 171.72 9.55 171.54
  A 1.27 1.26 -88.3 0 0 8.13 172.89
  Q 8.42 176.65 9.81 178.36
  C 7.53 178.39 2.29 177.69 0.25 178.53
  Q 0.35 177.57 0.00 177.12
  L 0.00 171.83
  Q 5.85 170.01 13.20 171.02
  Z"
/>
<path fill="#016d00" d="
  M 53.36 171.74
  Q 52.26 181.27 51.18 184.76
  Q 50.30 187.58 50.10 189.27
  Q 50.05 189.74 49.82 190.17
  Q 49.28 191.16 49.51 192.58
  Q 49.24 192.75 49.41 193.07
  Q 49.63 193.49 50.11 193.49
  L 148.84 193.38
  Q 150.36 193.24 151.23 192.65
  Q 151.64 192.38 151.55 191.90
  L 150.94 188.51
  Q 152.23 190.54 152.77 192.86
  Q 152.88 193.31 153.34 193.31
  L 164.45 193.41
  Q 164.92 193.41 165.06 192.97
  Q 165.24 192.39 165.80 192.15
  A 0.01 0.01 0.0 0 0 165.79 192.13
  Q 165.69 192.12 165.57 192.01
  Q 165.49 191.95 165.57 191.89
  Q 166.15 191.43 166.07 190.83
  C 166.61 194.23 174.86 193.31 177.46 193.37
  Q 176.50 196.15 172.51 196.16
  C 130.71 196.29 88.91 196.38 47.10 196.38
  Q 46.67 196.38 46.30 196.17
  L 45.89 195.93
  L 47.03 190.21
  L 48.00 186.59
  Q 50.07 182.93 50.07 181.25
  Q 50.07 178.44 51.30 176.34
  L 53.36 171.74
  Z"
/>
<path fill="#9a0101" d="
  M 49.73 172.91
  Q 49.77 173.84 50.35 174.29
  Q 50.46 174.38 50.34 174.46
  Q 50.22 174.55 50.23 174.74
  L 48.05 184.64
  Q 47.39 185.96 46.89 186.00
  Q 46.94 183.46 47.54 181.01
  Q 48.07 178.81 48.49 176.93
  Q 48.93 174.92 49.73 172.91
  Z"
/>
<path fill="#00fe00" d="
  M 50.74 174.38
  Q 51.32 174.57 51.30 176.34
  Q 50.07 178.44 50.07 181.25
  Q 50.07 182.93 48.00 186.59
  L 48.05 184.64
  L 50.23 174.74
  Q 50.84 174.65 50.74 174.38
  Z"
/>
<path fill="#000000" d="
  M 9.81 178.36
  L 16.02 178.25
  L 26.00 178.36
  A 1.13 1.10 71.7 0 1 26.87 178.81
  L 33.04 187.17
  L 41.52 198.05
  Q 31.90 198.02 29.00 197.72
  Q 22.25 197.00 15.40 198.42
  Q 3.35 192.25 0.25 178.53
  C 2.29 177.69 7.53 178.39 9.81 178.36
  Z"
/>
<path fill="#f00000" d="
  M 48.05 184.64
  L 48.00 186.59
  L 47.03 190.21
  Q 47.02 190.06 46.98 189.92
  Q 46.91 189.67 46.75 189.88
  Q 46.60 190.08 46.70 190.42
  Q 46.70 190.44 46.68 190.44
  Q 46.67 190.44 46.66 190.44
  Q 46.62 190.44 46.63 190.40
  Q 46.70 189.77 46.47 189.17
  L 46.89 186.00
  Q 47.39 185.96 48.05 184.64
  Z"
/>
<path fill="#9a0101" d="
  M 41.39 186.41
  L 44.60 191.83
  Q 44.85 192.24 45.31 192.11
  Q 46.23 191.86 46.19 190.75
  Q 46.15 189.59 46.47 189.17
  Q 46.70 189.77 46.63 190.40
  Q 46.62 190.44 46.66 190.44
  Q 46.67 190.44 46.68 190.44
  Q 46.70 190.44 46.70 190.42
  Q 46.60 190.08 46.75 189.88
  Q 46.91 189.67 46.98 189.92
  Q 47.02 190.06 47.03 190.21
  L 45.89 195.93
  Q 45.56 196.35 45.40 196.96
  L 45.25 197.46
  Q 45.09 198.00 44.53 198.01
  L 41.52 198.05
  L 33.04 187.17
  Q 34.37 188.20 36.00 188.42
  Q 41.86 189.20 41.39 186.41
  Z"
/>
<path fill="#03b401" d="
  M 150.79 186.76
  C 151.97 187.07 153.09 187.62 154.28 187.66
  Q 159.75 187.89 165.10 187.20
  L 166.07 190.83
  Q 166.15 191.43 165.57 191.89
  Q 165.49 191.95 165.57 192.01
  Q 165.69 192.12 165.79 192.13
  A 0.01 0.01 0.0 0 1 165.80 192.15
  Q 165.24 192.39 165.06 192.97
  Q 164.92 193.41 164.45 193.41
  L 153.34 193.31
  Q 152.88 193.31 152.77 192.86
  Q 152.23 190.54 150.94 188.51
  Q 150.66 187.75 150.79 186.76
  Z"
/>
<path fill="#004400" d="
  M 49.51 192.58
  Q 93.15 192.65 136.75 192.68
  Q 145.23 192.68 148.84 193.38
  L 50.11 193.49
  Q 49.63 193.49 49.41 193.07
  Q 49.24 192.75 49.51 192.58
  Z"
/>
<path fill="#005700" d="
  M 177.46 193.37
  Q 178.31 193.19 179.51 193.44
  Q 180.26 194.02 179.83 195.07
  Q 179.65 195.52 179.19 195.68
  Q 173.59 197.63 169.50 197.63
  Q 107.75 197.59 46.00 197.66
  Q 45.65 197.66 45.40 196.96
  Q 45.56 196.35 45.89 195.93
  L 46.30 196.17
  Q 46.67 196.38 47.10 196.38
  C 88.91 196.38 130.71 196.29 172.51 196.16
  Q 176.50 196.15 177.46 193.37
  Z"
/>
<path fill="#004400" d="
  M 179.51 193.44
  Q 185.30 192.83 190.94 193.99
  Q 186.53 198.18 181.12 200.00
  L 18.73 200.00
  L 15.40 198.42
  Q 22.25 197.00 29.00 197.72
  Q 31.90 198.02 41.52 198.05
  L 44.53 198.01
  Q 45.09 198.00 45.25 197.46
  L 45.40 196.96
  Q 45.65 197.66 46.00 197.66
  Q 107.75 197.59 169.50 197.63
  Q 173.59 197.63 179.19 195.68
  Q 179.65 195.52 179.83 195.07
  Q 180.26 194.02 179.51 193.44
  Z"
/>
</svg>
