<?xml version="1.0" encoding="UTF-8" standalone="no"?>
<!DOCTYPE svg PUBLIC "-//W3C//DTD SVG 1.1//EN" "http://www.w3.org/Graphics/SVG/1.1/DTD/svg11.dtd">
<svg width="100%" height="100%" viewBox="0 0 784 55" version="1.1" xmlns="http://www.w3.org/2000/svg" xmlns:xlink="http://www.w3.org/1999/xlink" xml:space="preserve" xmlns:serif="http://www.serif.com/" style="fill-rule:evenodd;clip-rule:evenodd;stroke-linejoin:round;stroke-miterlimit:2;">
    <g transform="matrix(1,0,0,1,-226,-200)">
        <g transform="matrix(1.57235,0,0,1.57235,-336.411,-523.962)">
            <g transform="matrix(46.0695,0,0,46.0695,412.237,496)">
                <path d="M0.375,-0.734C0.555,-0.732 0.583,-0.709 0.609,-0.546L0.641,-0.548L0.623,-0.758L0.035,-0.758L0.017,-0.548L0.049,-0.546C0.074,-0.709 0.103,-0.732 0.282,-0.734L0.282,-0.16C0.282,-0.104 0.279,-0.084 0.266,-0.073C0.256,-0.063 0.232,-0.058 0.189,-0.058L0.189,-0.033L0.469,-0.033L0.469,-0.058C0.429,-0.058 0.403,-0.062 0.393,-0.071C0.379,-0.082 0.375,-0.101 0.375,-0.16L0.375,-0.734Z" style="fill-rule:nonzero;"/>
            </g>
            <g transform="matrix(46.0695,0,0,46.0695,442.505,496)">
                <path d="M0.18,-0.566C0.18,-0.653 0.181,-0.69 0.185,-0.766L0.025,-0.758L0.025,-0.736C0.094,-0.735 0.098,-0.73 0.098,-0.645L0.098,-0.158C0.098,-0.064 0.093,-0.057 0.025,-0.055L0.025,-0.033L0.252,-0.033L0.252,-0.055C0.185,-0.057 0.18,-0.064 0.18,-0.158L0.18,-0.319C0.18,-0.352 0.183,-0.372 0.19,-0.394C0.2,-0.425 0.217,-0.455 0.237,-0.476C0.261,-0.501 0.296,-0.515 0.336,-0.515C0.379,-0.515 0.408,-0.499 0.424,-0.467C0.435,-0.447 0.44,-0.41 0.44,-0.359L0.44,-0.158C0.44,-0.064 0.435,-0.057 0.367,-0.055L0.367,-0.033L0.594,-0.033L0.594,-0.055C0.527,-0.057 0.522,-0.065 0.522,-0.158L0.522,-0.358C0.522,-0.413 0.516,-0.455 0.504,-0.48C0.48,-0.527 0.431,-0.552 0.358,-0.552C0.276,-0.552 0.227,-0.522 0.18,-0.445L0.18,-0.566Z" style="fill-rule:nonzero;"/>
            </g>
            <g transform="matrix(46.0695,0,0,46.0695,471.022,496)">
                <path d="M0.493,-0.315C0.491,-0.374 0.487,-0.398 0.477,-0.425C0.446,-0.506 0.377,-0.552 0.286,-0.552C0.145,-0.552 0.049,-0.441 0.049,-0.279C0.049,-0.126 0.147,-0.02 0.29,-0.02C0.388,-0.02 0.456,-0.063 0.501,-0.155L0.478,-0.168C0.438,-0.092 0.384,-0.055 0.313,-0.055C0.241,-0.055 0.192,-0.091 0.163,-0.165C0.147,-0.206 0.141,-0.246 0.14,-0.315L0.493,-0.315ZM0.142,-0.342C0.148,-0.394 0.154,-0.42 0.169,-0.449C0.196,-0.5 0.236,-0.527 0.284,-0.527C0.331,-0.527 0.365,-0.502 0.387,-0.453C0.4,-0.424 0.405,-0.395 0.406,-0.342L0.142,-0.342Z" style="fill-rule:nonzero;"/>
            </g>
            <g transform="matrix(46.0695,0,0,46.0695,511.01,496)">
                <path d="M0.204,-0.347L0.269,-0.347C0.346,-0.347 0.419,-0.356 0.46,-0.371C0.542,-0.4 0.581,-0.461 0.581,-0.557C0.581,-0.642 0.548,-0.7 0.482,-0.731C0.445,-0.748 0.385,-0.758 0.313,-0.758L0.038,-0.758L0.038,-0.734C0.11,-0.731 0.115,-0.724 0.115,-0.631L0.115,-0.16C0.115,-0.067 0.109,-0.06 0.038,-0.058L0.038,-0.033L0.288,-0.033L0.288,-0.058C0.21,-0.06 0.204,-0.068 0.204,-0.16L0.204,-0.347ZM0.204,-0.377L0.204,-0.728L0.294,-0.728C0.421,-0.728 0.484,-0.67 0.484,-0.553C0.484,-0.494 0.467,-0.446 0.438,-0.419C0.407,-0.391 0.353,-0.377 0.275,-0.377L0.204,-0.377Z" style="fill-rule:nonzero;"/>
            </g>
            <g transform="matrix(46.0695,0,0,46.0695,539.481,496)">
                <path d="M0.513,-0.056C0.475,-0.056 0.463,-0.059 0.457,-0.067C0.451,-0.075 0.446,-0.111 0.446,-0.153L0.447,-0.199L0.448,-0.294C0.45,-0.392 0.45,-0.392 0.45,-0.395C0.45,-0.45 0.441,-0.483 0.421,-0.508C0.397,-0.537 0.351,-0.552 0.287,-0.552C0.228,-0.552 0.179,-0.541 0.141,-0.52C0.099,-0.496 0.073,-0.46 0.073,-0.424C0.073,-0.403 0.088,-0.394 0.122,-0.394C0.137,-0.394 0.15,-0.397 0.157,-0.402C0.165,-0.408 0.167,-0.415 0.168,-0.436C0.172,-0.498 0.206,-0.528 0.272,-0.528C0.313,-0.528 0.341,-0.515 0.354,-0.489C0.364,-0.468 0.368,-0.444 0.368,-0.398L0.368,-0.335C0.295,-0.33 0.242,-0.323 0.19,-0.311C0.093,-0.289 0.043,-0.238 0.043,-0.159C0.043,-0.117 0.06,-0.077 0.087,-0.053C0.112,-0.032 0.145,-0.022 0.189,-0.022C0.24,-0.022 0.275,-0.033 0.319,-0.065C0.339,-0.079 0.352,-0.09 0.368,-0.108C0.372,-0.041 0.38,-0.025 0.41,-0.025C0.43,-0.025 0.474,-0.029 0.513,-0.035L0.513,-0.056ZM0.368,-0.265C0.368,-0.199 0.361,-0.157 0.345,-0.129C0.32,-0.086 0.268,-0.056 0.217,-0.056C0.167,-0.056 0.133,-0.099 0.133,-0.162C0.133,-0.215 0.156,-0.255 0.2,-0.276C0.24,-0.296 0.279,-0.304 0.368,-0.312L0.368,-0.265Z" style="fill-rule:nonzero;"/>
            </g>
            <g transform="matrix(46.0695,0,0,46.0695,564.589,496)">
                <path d="M0.053,-0.031C0.073,-0.034 0.087,-0.035 0.098,-0.035C0.109,-0.035 0.121,-0.034 0.135,-0.032C0.194,-0.022 0.207,-0.02 0.235,-0.02C0.329,-0.02 0.39,-0.079 0.39,-0.171C0.39,-0.21 0.378,-0.243 0.357,-0.266C0.334,-0.291 0.309,-0.306 0.242,-0.334C0.176,-0.362 0.157,-0.372 0.138,-0.386C0.12,-0.399 0.111,-0.417 0.111,-0.44C0.111,-0.494 0.151,-0.529 0.213,-0.529C0.286,-0.529 0.33,-0.476 0.332,-0.387L0.365,-0.387L0.37,-0.545C0.35,-0.54 0.334,-0.538 0.322,-0.538C0.316,-0.538 0.309,-0.539 0.301,-0.54C0.247,-0.55 0.234,-0.552 0.208,-0.552C0.158,-0.552 0.111,-0.531 0.084,-0.495C0.067,-0.472 0.057,-0.438 0.057,-0.403C0.057,-0.335 0.09,-0.299 0.198,-0.252C0.289,-0.212 0.292,-0.211 0.31,-0.196C0.325,-0.183 0.334,-0.161 0.334,-0.138C0.334,-0.079 0.293,-0.044 0.225,-0.044C0.179,-0.044 0.142,-0.062 0.116,-0.098C0.099,-0.12 0.092,-0.144 0.088,-0.191L0.057,-0.191L0.053,-0.031Z" style="fill-rule:nonzero;"/>
            </g>
            <g transform="matrix(46.0695,0,0,46.0695,585.09,496)">
                <path d="M0.053,-0.031C0.073,-0.034 0.087,-0.035 0.098,-0.035C0.109,-0.035 0.121,-0.034 0.135,-0.032C0.194,-0.022 0.207,-0.02 0.235,-0.02C0.329,-0.02 0.39,-0.079 0.39,-0.171C0.39,-0.21 0.378,-0.243 0.357,-0.266C0.334,-0.291 0.309,-0.306 0.242,-0.334C0.176,-0.362 0.157,-0.372 0.138,-0.386C0.12,-0.399 0.111,-0.417 0.111,-0.44C0.111,-0.494 0.151,-0.529 0.213,-0.529C0.286,-0.529 0.33,-0.476 0.332,-0.387L0.365,-0.387L0.37,-0.545C0.35,-0.54 0.334,-0.538 0.322,-0.538C0.316,-0.538 0.309,-0.539 0.301,-0.54C0.247,-0.55 0.234,-0.552 0.208,-0.552C0.158,-0.552 0.111,-0.531 0.084,-0.495C0.067,-0.472 0.057,-0.438 0.057,-0.403C0.057,-0.335 0.09,-0.299 0.198,-0.252C0.289,-0.212 0.292,-0.211 0.31,-0.196C0.325,-0.183 0.334,-0.161 0.334,-0.138C0.334,-0.079 0.293,-0.044 0.225,-0.044C0.179,-0.044 0.142,-0.062 0.116,-0.098C0.099,-0.12 0.092,-0.144 0.088,-0.191L0.057,-0.191L0.053,-0.031Z" style="fill-rule:nonzero;"/>
            </g>
            <g transform="matrix(46.0695,0,0,46.0695,605.591,496)">
                <path d="M0.39,-0.413L0.515,-0.029L0.566,-0.029L0.687,-0.417C0.711,-0.494 0.73,-0.513 0.785,-0.516L0.785,-0.538L0.589,-0.538L0.589,-0.516C0.615,-0.514 0.622,-0.513 0.634,-0.509C0.652,-0.503 0.662,-0.49 0.662,-0.473C0.662,-0.459 0.658,-0.44 0.65,-0.415L0.563,-0.121L0.436,-0.525L0.395,-0.525L0.263,-0.121L0.173,-0.435C0.167,-0.456 0.164,-0.471 0.164,-0.479C0.164,-0.504 0.183,-0.514 0.231,-0.516L0.231,-0.538L0.009,-0.538L0.009,-0.516C0.058,-0.513 0.07,-0.501 0.087,-0.444L0.211,-0.029L0.263,-0.029L0.39,-0.413Z" style="fill-rule:nonzero;"/>
            </g>
            <g transform="matrix(46.0695,0,0,46.0695,642.124,496)">
                <path d="M0.047,-0.278C0.047,-0.123 0.143,-0.02 0.288,-0.02C0.44,-0.02 0.536,-0.125 0.536,-0.292C0.536,-0.449 0.44,-0.552 0.294,-0.552C0.225,-0.552 0.162,-0.528 0.12,-0.485C0.074,-0.438 0.047,-0.361 0.047,-0.278ZM0.14,-0.291C0.14,-0.444 0.193,-0.529 0.289,-0.529C0.387,-0.529 0.443,-0.439 0.443,-0.283C0.443,-0.129 0.389,-0.044 0.291,-0.044C0.195,-0.044 0.14,-0.134 0.14,-0.291Z" style="fill-rule:nonzero;"/>
            </g>
            <g transform="matrix(46.0695,0,0,46.0695,668.983,496)">
                <path d="M0.037,-0.538L0.037,-0.516C0.094,-0.516 0.106,-0.501 0.106,-0.426L0.106,-0.158C0.106,-0.065 0.1,-0.057 0.033,-0.055L0.033,-0.033L0.262,-0.033L0.262,-0.055C0.195,-0.057 0.19,-0.064 0.19,-0.158L0.19,-0.315C0.19,-0.368 0.199,-0.409 0.217,-0.442C0.238,-0.48 0.266,-0.502 0.292,-0.502C0.308,-0.502 0.314,-0.496 0.32,-0.474C0.326,-0.455 0.335,-0.449 0.357,-0.449C0.389,-0.449 0.41,-0.465 0.41,-0.49C0.41,-0.525 0.377,-0.552 0.334,-0.552C0.275,-0.552 0.221,-0.509 0.188,-0.433L0.188,-0.465C0.188,-0.486 0.187,-0.499 0.185,-0.549L0.037,-0.538Z" style="fill-rule:nonzero;"/>
            </g>
            <g transform="matrix(46.0695,0,0,46.0695,687.917,496)">
                <path d="M0.352,-0.758L0.352,-0.736C0.425,-0.735 0.426,-0.733 0.426,-0.636L0.426,-0.485C0.384,-0.532 0.342,-0.552 0.281,-0.552C0.147,-0.552 0.055,-0.439 0.055,-0.274C0.055,-0.198 0.075,-0.134 0.112,-0.088C0.148,-0.045 0.203,-0.019 0.259,-0.019C0.332,-0.019 0.388,-0.049 0.429,-0.112L0.433,-0.025L0.573,-0.033L0.573,-0.055L0.562,-0.055C0.533,-0.055 0.521,-0.06 0.515,-0.073C0.51,-0.085 0.51,-0.086 0.508,-0.18L0.508,-0.567C0.508,-0.644 0.51,-0.702 0.514,-0.766L0.352,-0.758ZM0.429,-0.286C0.429,-0.136 0.373,-0.048 0.278,-0.048C0.193,-0.048 0.148,-0.13 0.148,-0.285C0.148,-0.442 0.197,-0.527 0.287,-0.527C0.378,-0.527 0.429,-0.441 0.429,-0.286Z" style="fill-rule:nonzero;"/>
            </g>
            <g transform="matrix(46.0695,0,0,46.0695,731.223,496)">
                <path d="M0.485,-0.364L0.485,-0.34C0.563,-0.336 0.57,-0.328 0.57,-0.243L0.57,-0.093C0.528,-0.065 0.462,-0.047 0.4,-0.047C0.318,-0.047 0.258,-0.083 0.215,-0.157C0.18,-0.218 0.161,-0.304 0.161,-0.4C0.161,-0.496 0.178,-0.575 0.212,-0.637C0.251,-0.708 0.319,-0.745 0.408,-0.745C0.479,-0.745 0.534,-0.722 0.567,-0.678C0.589,-0.647 0.602,-0.61 0.611,-0.553L0.642,-0.553L0.642,-0.763C0.62,-0.752 0.602,-0.748 0.582,-0.748C0.569,-0.748 0.547,-0.751 0.531,-0.755C0.47,-0.769 0.445,-0.772 0.399,-0.772C0.195,-0.772 0.061,-0.618 0.061,-0.384C0.061,-0.157 0.185,-0.02 0.391,-0.02C0.435,-0.02 0.481,-0.026 0.54,-0.04C0.599,-0.055 0.605,-0.056 0.659,-0.063C0.657,-0.096 0.656,-0.118 0.656,-0.169L0.656,-0.243C0.656,-0.331 0.66,-0.336 0.729,-0.34L0.729,-0.364L0.485,-0.364Z" style="fill-rule:nonzero;"/>
            </g>
            <g transform="matrix(46.0695,0,0,46.0695,766.235,496)">
                <path d="M0.513,-0.056C0.475,-0.056 0.463,-0.059 0.457,-0.067C0.451,-0.075 0.446,-0.111 0.446,-0.153L0.447,-0.199L0.448,-0.294C0.45,-0.392 0.45,-0.392 0.45,-0.395C0.45,-0.45 0.441,-0.483 0.421,-0.508C0.397,-0.537 0.351,-0.552 0.287,-0.552C0.228,-0.552 0.179,-0.541 0.141,-0.52C0.099,-0.496 0.073,-0.46 0.073,-0.424C0.073,-0.403 0.088,-0.394 0.122,-0.394C0.137,-0.394 0.15,-0.397 0.157,-0.402C0.165,-0.408 0.167,-0.415 0.168,-0.436C0.172,-0.498 0.206,-0.528 0.272,-0.528C0.313,-0.528 0.341,-0.515 0.354,-0.489C0.364,-0.468 0.368,-0.444 0.368,-0.398L0.368,-0.335C0.295,-0.33 0.242,-0.323 0.19,-0.311C0.093,-0.289 0.043,-0.238 0.043,-0.159C0.043,-0.117 0.06,-0.077 0.087,-0.053C0.112,-0.032 0.145,-0.022 0.189,-0.022C0.24,-0.022 0.275,-0.033 0.319,-0.065C0.339,-0.079 0.352,-0.09 0.368,-0.108C0.372,-0.041 0.38,-0.025 0.41,-0.025C0.43,-0.025 0.474,-0.029 0.513,-0.035L0.513,-0.056ZM0.368,-0.265C0.368,-0.199 0.361,-0.157 0.345,-0.129C0.32,-0.086 0.268,-0.056 0.217,-0.056C0.167,-0.056 0.133,-0.099 0.133,-0.162C0.133,-0.215 0.156,-0.255 0.2,-0.276C0.24,-0.296 0.279,-0.304 0.368,-0.312L0.368,-0.265Z" style="fill-rule:nonzero;"/>
            </g>
            <g transform="matrix(46.0695,0,0,46.0695,791.343,496)">
                <path d="M0.185,-0.549L0.035,-0.538L0.035,-0.516C0.093,-0.516 0.104,-0.501 0.104,-0.426L0.104,-0.158C0.104,-0.064 0.099,-0.057 0.031,-0.055L0.031,-0.033L0.258,-0.033L0.258,-0.055C0.191,-0.057 0.186,-0.064 0.186,-0.158L0.186,-0.35C0.186,-0.393 0.196,-0.425 0.221,-0.458C0.249,-0.496 0.283,-0.515 0.321,-0.515C0.381,-0.515 0.411,-0.467 0.411,-0.37L0.411,-0.158C0.411,-0.065 0.406,-0.057 0.339,-0.055L0.339,-0.033L0.566,-0.033L0.566,-0.055C0.498,-0.057 0.493,-0.065 0.493,-0.158L0.493,-0.335C0.493,-0.383 0.504,-0.419 0.531,-0.456C0.558,-0.496 0.589,-0.515 0.624,-0.515C0.663,-0.515 0.686,-0.504 0.7,-0.478C0.715,-0.452 0.719,-0.424 0.719,-0.357L0.719,-0.158C0.719,-0.065 0.714,-0.057 0.646,-0.055L0.646,-0.033L0.874,-0.033L0.874,-0.055C0.806,-0.057 0.801,-0.065 0.801,-0.158L0.801,-0.374C0.801,-0.442 0.792,-0.478 0.77,-0.506C0.745,-0.536 0.706,-0.552 0.657,-0.552C0.58,-0.552 0.528,-0.517 0.486,-0.436C0.472,-0.512 0.425,-0.552 0.351,-0.552C0.278,-0.552 0.222,-0.515 0.185,-0.444L0.185,-0.549Z" style="fill-rule:nonzero;"/>
            </g>
            <g transform="matrix(46.0695,0,0,46.0695,832.76,496)">
                <path d="M0.493,-0.315C0.491,-0.374 0.487,-0.398 0.477,-0.425C0.446,-0.506 0.377,-0.552 0.286,-0.552C0.145,-0.552 0.049,-0.441 0.049,-0.279C0.049,-0.126 0.147,-0.02 0.29,-0.02C0.388,-0.02 0.456,-0.063 0.501,-0.155L0.478,-0.168C0.438,-0.092 0.384,-0.055 0.313,-0.055C0.241,-0.055 0.192,-0.091 0.163,-0.165C0.147,-0.206 0.141,-0.246 0.14,-0.315L0.493,-0.315ZM0.142,-0.342C0.148,-0.394 0.154,-0.42 0.169,-0.449C0.196,-0.5 0.236,-0.527 0.284,-0.527C0.331,-0.527 0.365,-0.502 0.387,-0.453C0.4,-0.424 0.405,-0.395 0.406,-0.342L0.142,-0.342Z" style="fill-rule:nonzero;"/>
            </g>
        </g>
        <g transform="matrix(2.10771,0,0,2.10771,-266.982,-204.931)">
            <g transform="matrix(77.5988,0,0,77.5988,232,251)">
                <path d="M0.231,-0.759L0.219,-0.611L0.355,-0.668L0.375,-0.608L0.231,-0.574L0.328,-0.462L0.276,-0.425L0.2,-0.551L0.123,-0.425L0.072,-0.462L0.168,-0.574L0.024,-0.608L0.044,-0.668L0.18,-0.611L0.168,-0.759L0.231,-0.759Z" style="fill-rule:nonzero;"/>
            </g>
        </g>
    </g>
</svg>
