<?xml version="1.0" encoding="UTF-8" standalone="no"?>
<!DOCTYPE svg PUBLIC "-//W3C//DTD SVG 1.1//EN" "http://www.w3.org/Graphics/SVG/1.1/DTD/svg11.dtd">
<svg xmlns="http://www.w3.org/2000/svg" version="1.1" viewBox="0.00 0.00 400.00 400.00">
<g stroke-width="2.00" fill="none" stroke-linecap="butt">
<path stroke="#90b76c" vector-effect="non-scaling-stroke" d="
  M 172.95 42.78
  Q 169.84 39.24 168.52 32.85
  A 2.37 2.37 0.0 0 0 165.71 31.01
  L 165.15 31.12
  Q 161.98 31.78 162.58 34.96
  C 164.23 43.70 169.17 50.80 177.06 54.78
  Q 178.50 55.50 179.72 56.46"
/>
<path stroke="#2e5d85" vector-effect="non-scaling-stroke" d="
  M 179.72 56.46
  Q 164.44 58.80 146.75 63.69
  C 108.85 74.17 73.85 92.78 58.45 131.45
  Q 51.71 148.37 48.30 159.50
  C 41.50 181.68 42.99 206.89 46.33 229.89
  A 0.28 0.27 10.3 0 1 45.92 230.17
  Q 38.64 226.02 30.25 226.81
  C 26.14 227.20 20.30 229.15 17.76 232.62
  C 14.39 237.20 17.53 248.81 20.71 253.09
  C 27.05 261.62 42.54 262.13 52.12 260.19
  A 0.91 0.90 -14.8 0 1 53.16 260.79
  Q 61.64 285.54 83.17 301.09
  C 89.74 305.83 97.84 310.32 104.85 315.62
  C 115.98 324.03 130.91 328.83 144.49 331.34
  Q 169.19 335.90 194.91 333.97
  A 0.76 0.76 0.0 0 1 195.69 334.94
  C 192.88 344.78 202.41 348.82 210.28 347.73
  Q 227.89 345.27 239.24 330.98
  C 240.99 328.78 242.82 325.39 245.68 324.56
  C 286.23 312.88 325.46 289.68 346.18 251.45
  C 354.82 235.52 361.12 219.91 362.95 202.29
  A 2.28 2.27 87.1 0 1 364.74 200.29
  C 375.13 198.10 391.21 192.14 394.99 180.91
  C 397.66 172.97 394.83 163.58 387.26 159.57
  C 379.84 155.64 370.09 157.56 362.40 160.78
  A 0.79 0.79 0.0 0 1 361.32 160.19
  C 358.53 145.37 353.75 130.08 346.80 116.89
  C 331.61 88.04 305.40 67.04 272.82 59.30
  Q 269.32 58.47 264.74 56.79
  Q 252.18 52.17 238.24 51.53
  Q 213.36 50.38 189.72 54.48
  Q 189.01 54.60 189.29 53.94
  Q 190.02 52.20 189.46 50.42
  Q 189.30 49.91 188.84 49.64
  C 187.30 48.74 185.30 48.14 184.07 47.13
  C 178.02 42.17 177.46 34.43 178.41 27.04
  Q 178.85 23.63 175.41 23.63
  L 174.75 23.63
  A 2.80 2.79 4.2 0 0 171.98 26.02
  C 170.93 33.29 172.08 36.79 172.95 42.78"
/>
<path stroke="#958d19" vector-effect="non-scaling-stroke" d="
  M 179.72 56.46
  Q 186.34 56.69 183.87 51.26
  A 1.33 1.31 89.2 0 0 183.21 50.61
  C 178.84 48.67 175.45 46.77 172.95 42.78"
/>
<path stroke="#988775" vector-effect="non-scaling-stroke" d="
  M 218.58 57.86
  C 214.93 57.94 211.43 58.53 207.79 58.68
  Q 202.70 58.89 197.71 60.15
  Q 196.97 60.34 197.64 61.61"
/>
<path stroke="#958d19" vector-effect="non-scaling-stroke" d="
  M 197.64 61.61
  C 197.16 71.46 200.72 83.99 211.24 87.17"
/>
<path stroke="#988775" vector-effect="non-scaling-stroke" d="
  M 211.24 87.17
  C 214.16 87.90 217.32 90.46 214.44 93.07
  C 212.80 94.55 210.87 93.95 208.99 93.25
  Q 203.47 91.19 200.03 87.92"
/>
<path stroke="#958d19" vector-effect="non-scaling-stroke" d="
  M 200.03 87.92
  C 193.63 80.72 191.52 72.56 191.07 63.31"
/>
<path stroke="#988775" vector-effect="non-scaling-stroke" d="
  M 191.07 63.31
  L 191.16 61.33
  A 0.57 0.57 0.0 0 0 190.49 60.74
  L 170.26 64.47
  Q 169.78 64.56 169.99 65.01
  L 170.80 66.68"
/>
<path stroke="#958d19" vector-effect="non-scaling-stroke" d="
  M 170.80 66.68
  Q 171.49 73.89 173.95 81.00
  Q 176.67 88.84 181.82 92.17"
/>
<path stroke="#988775" vector-effect="non-scaling-stroke" d="
  M 181.82 92.17
  Q 184.48 93.74 186.65 93.92
  A 1.37 1.36 -20.3 0 1 187.49 94.30
  C 189.48 96.23 189.09 99.41 186.17 99.94
  C 182.04 100.70 176.22 96.57 173.63 93.64"
/>
<path stroke="#958d19" vector-effect="non-scaling-stroke" d="
  M 173.63 93.64
  C 168.07 86.26 165.62 77.54 164.49 68.35"
/>
<path stroke="#988775" vector-effect="non-scaling-stroke" d="
  M 164.49 68.35
  L 164.64 66.39
  Q 164.68 65.80 164.11 65.94
  L 148.94 69.69
  Q 148.32 69.85 148.72 70.34
  L 150.05 71.98"
/>
<path stroke="#958d19" vector-effect="non-scaling-stroke" d="
  M 150.05 71.98
  Q 146.74 78.75 148.35 85.21
  Q 149.46 89.67 153.16 92.89
  Q 156.83 96.10 161.50 97.28"
/>
<path stroke="#988775" vector-effect="non-scaling-stroke" d="
  M 161.50 97.28
  C 163.95 98.36 168.99 99.30 167.24 103.06
  C 166.64 104.33 165.18 105.24 163.81 104.93
  Q 157.50 103.51 151.55 99.83"
/>
<path stroke="#958d19" vector-effect="non-scaling-stroke" d="
  M 151.55 99.83
  Q 138.23 90.20 142.31 74.36"
/>
<path stroke="#988775" vector-effect="non-scaling-stroke" d="
  M 142.31 74.36
  Q 142.80 73.52 143.07 72.06
  Q 143.15 71.60 142.70 71.73
  Q 118.84 78.53 98.00 91.95
  A 0.56 0.56 0.0 0 0 97.81 92.68
  Q 98.10 93.20 98.90 93.86"
/>
<path stroke="#958d19" vector-effect="non-scaling-stroke" d="
  M 98.90 93.86
  Q 102.97 101.83 110.12 108.38
  Q 113.54 111.51 117.08 112.91
  Q 120.05 114.09 122.21 113.26"
/>
<path stroke="#988775" vector-effect="non-scaling-stroke" d="
  M 122.21 113.26
  C 125.14 113.60 127.65 115.76 125.69 118.51
  C 123.53 121.54 115.83 119.48 112.46 117.91"
/>
<path stroke="#958d19" vector-effect="non-scaling-stroke" d="
  M 112.46 117.91
  C 104.19 113.16 98.61 105.99 93.63 98.02"
/>
<path stroke="#988775" vector-effect="non-scaling-stroke" d="
  M 93.63 98.02
  Q 93.39 96.82 92.97 96.43
  Q 92.57 96.07 91.73 96.74
  C 76.92 108.52 68.58 122.77 61.86 140.55
  Q 57.02 153.37 55.30 158.76
  Q 49.68 176.42 50.03 195.00
  Q 50.47 218.52 54.72 241.66
  C 58.79 263.84 68.60 282.97 87.33 296.17
  Q 90.95 298.72 100.77 304.95
  Q 100.98 305.08 110.34 311.59
  Q 118.99 317.61 129.25 320.72
  Q 162.73 330.89 198.05 327.28
  A 1.23 1.22 6.3 0 0 199.09 326.45
  C 200.28 322.72 204.80 323.00 205.81 326.54
  A 1.20 1.16 52.5 0 1 205.70 327.48
  C 203.84 330.76 201.37 334.96 201.82 338.86
  A 2.19 2.17 5.1 0 0 203.38 340.71
  C 210.50 342.79 219.66 339.32 225.41 335.14
  C 232.09 330.30 235.87 324.93 240.27 318.11
  C 242.13 315.22 243.45 315.14 246.19 316.99
  Q 246.91 317.47 247.74 317.22
  C 284.49 305.87 320.67 284.36 339.81 249.56
  Q 344.74 240.58 348.83 231.37"
/>
<path stroke="#93745c" vector-effect="non-scaling-stroke" d="
  M 348.83 231.37
  C 366.60 189.25 360.16 146.79 335.09 109.42"
/>
<path stroke="#988775" vector-effect="non-scaling-stroke" d="
  M 335.09 109.42
  Q 310.96 75.01 270.39 65.38
  C 263.45 63.74 257.19 60.62 249.90 59.30"
/>
<path stroke="#958d19" vector-effect="non-scaling-stroke" d="
  M 249.90 59.30
  C 240.30 56.23 227.90 57.05 218.58 57.86"
/>
<path stroke="#fae25c" vector-effect="non-scaling-stroke" d="
  M 249.90 59.30
  Q 249.77 61.17 251.77 63.34"
/>
<path stroke="#f6cf43" vector-effect="non-scaling-stroke" d="
  M 251.77 63.34
  L 259.44 78.36
  A 1.20 1.19 -15.9 0 1 258.47 80.09
  L 252.29 80.59"
/>
<path stroke="#958d19" vector-effect="non-scaling-stroke" d="
  M 252.29 80.59
  C 245.00 76.20 243.46 69.86 242.34 61.90
  Q 241.93 58.98 238.99 59.22
  L 238.46 59.27
  A 2.50 2.49 -2.4 0 0 236.17 61.75
  Q 236.15 72.37 242.84 81.25"
/>
<path stroke="#fae25c" vector-effect="non-scaling-stroke" d="
  M 242.84 81.25
  L 223.44 84.17"
/>
<path stroke="#958d19" vector-effect="non-scaling-stroke" d="
  M 223.44 84.17
  Q 221.29 84.18 218.84 82.66
  Q 213.99 79.67 213.02 73.49
  Q 212.38 69.42 213.08 59.72"
/>
<path stroke="#fae25c" vector-effect="non-scaling-stroke" d="
  M 213.08 59.72
  Q 214.13 59.15 216.48 59.12
  Q 217.28 59.11 217.76 58.97
  Q 219.17 58.54 218.58 57.86"
/>
<path stroke="#988775" vector-effect="non-scaling-stroke" d="
  M 213.08 59.72
  Q 208.31 58.03 207.09 60.48"
/>
<path stroke="#fae25c" vector-effect="non-scaling-stroke" d="
  M 207.09 60.48
  L 197.64 61.61"
/>
<path stroke="#f9c99f" vector-effect="non-scaling-stroke" d="
  M 348.83 231.37
  Q 348.41 230.77 347.96 230.65
  A 0.62 0.61 -69.8 0 0 347.25 230.98
  Q 340.55 245.06 330.11 256.61
  A 0.14 0.14 0.0 0 1 329.87 256.53
  Q 329.86 256.34 329.87 256.10
  Q 329.89 255.88 330.01 255.67
  C 336.70 243.20 336.95 225.98 335.93 211.75
  Q 334.14 186.62 328.74 161.99
  C 320.29 123.41 286.95 98.86 252.56 83.43"
/>
<path stroke="#93745c" vector-effect="non-scaling-stroke" d="
  M 252.29 80.59
  Q 252.91 81.79 252.56 83.43"
/>
<path stroke="#988775" vector-effect="non-scaling-stroke" d="
  M 252.56 83.43
  Q 250.73 86.03 249.00 85.48
  Q 245.89 84.48 242.84 81.25"
/>
<path stroke="#fae25c" vector-effect="non-scaling-stroke" d="
  M 93.63 98.02
  L 88.95 102.76
  A 1.19 1.18 37.4 0 0 89.20 104.62
  Q 99.54 110.59 109.49 117.65
  C 110.44 118.32 111.47 118.31 112.46 117.91"
/>
<path stroke="#fae25c" vector-effect="non-scaling-stroke" d="
  M 122.21 113.26
  Q 127.29 109.64 133.50 107.10"
/>
<path stroke="#988775" vector-effect="non-scaling-stroke" d="
  M 223.44 84.17
  Q 225.85 87.71 223.34 89.54
  C 220.36 91.70 214.71 87.76 212.21 85.65"
/>
<path stroke="#958d19" vector-effect="non-scaling-stroke" d="
  M 212.21 85.65
  C 205.78 78.71 205.25 69.50 207.09 60.48"
/>
<path stroke="#f9c99f" vector-effect="non-scaling-stroke" d="
  M 335.09 109.42
  Q 332.17 108.40 329.88 105.49
  C 315.28 86.89 294.54 74.14 271.91 67.76
  C 265.18 65.86 258.76 63.96 251.77 63.34"
/>
<path stroke="#fae25c" vector-effect="non-scaling-stroke" d="
  M 212.21 85.65
  Q 211.25 86.21 211.24 87.17"
/>
<path stroke="#988775" vector-effect="non-scaling-stroke" d="
  M 144.16 103.42
  C 147.40 105.50 146.88 109.63 142.73 109.75
  Q 139.26 109.85 133.50 107.10"
/>
<path stroke="#958d19" vector-effect="non-scaling-stroke" d="
  M 133.50 107.10
  Q 121.14 98.65 117.76 83.45"
/>
<path stroke="#fae25c" vector-effect="non-scaling-stroke" d="
  M 200.03 87.92
  Q 190.51 89.19 181.82 92.17"
/>
<path stroke="#fae25c" vector-effect="non-scaling-stroke" d="
  M 173.63 93.64
  L 161.50 97.28"
/>
<path stroke="#fae25c" vector-effect="non-scaling-stroke" d="
  M 151.55 99.83
  Q 147.01 101.24 144.16 103.42"
/>
<path stroke="#958d19" vector-effect="non-scaling-stroke" d="
  M 144.16 103.42
  Q 136.87 103.21 131.68 97.32
  Q 126.01 90.90 123.54 81.19"
/>
<path stroke="#fae25c" vector-effect="non-scaling-stroke" d="
  M 142.31 74.36
  L 123.54 81.19"
/>
<path stroke="#988775" vector-effect="non-scaling-stroke" d="
  M 123.54 81.19
  Q 119.00 79.50 117.76 83.45"
/>
<path stroke="#fae25c" vector-effect="non-scaling-stroke" d="
  M 117.76 83.45
  L 98.90 93.86"
/>
<path stroke="#fae25c" vector-effect="non-scaling-stroke" d="
  M 191.07 63.31
  L 170.80 66.68"
/>
<path stroke="#fae25c" vector-effect="non-scaling-stroke" d="
  M 164.49 68.35
  L 150.05 71.98"
/>
<path stroke="#93745c" vector-effect="non-scaling-stroke" d="
  M 388.43 169.93
  C 383.51 159.40 370.07 165.01 362.57 167.61
  Q 361.98 167.82 361.98 168.44
  L 362.02 193.55
  A 0.71 0.71 0.0 0 0 362.90 194.24
  C 372.65 191.90 395.26 184.53 388.43 169.93"
/>
<path stroke="#988775" vector-effect="non-scaling-stroke" d="
  M 50.00 253.60
  L 47.06 238.24
  Q 46.98 237.78 46.49 237.56
  C 38.28 233.86 32.84 230.74 24.17 235.42
  C 20.79 237.24 24.21 247.26 26.24 249.49
  C 31.44 255.19 42.76 255.22 49.57 254.21
  Q 50.10 254.13 50.00 253.60"
/>
<path stroke="#f7ab87" vector-effect="non-scaling-stroke" d="
  M 282.12 191.65
  C 287.70 180.86 293.37 170.29 299.98 160.20
  Q 300.45 159.47 300.15 158.66
  C 295.90 147.33 287.35 139.79 274.52 143.30
  C 267.79 145.13 254.55 150.75 255.50 159.75
  Q 256.57 169.75 257.64 179.74
  Q 258.36 186.39 263.69 191.05
  C 268.46 195.21 278.27 199.09 282.12 191.65"
/>
<path stroke="#988775" vector-effect="non-scaling-stroke" d="
  M 219.5601 172.3995
  A 13.51 10.84 77.3 0 0 227.1648 156.8369
  A 13.51 10.84 77.3 0 0 213.6199 146.0405
  A 13.51 10.84 77.3 0 0 206.0152 161.6031
  A 13.51 10.84 77.3 0 0 219.5601 172.3995"
/>
<path stroke="#988775" vector-effect="non-scaling-stroke" d="
  M 134.9011 191.6485
  A 13.48 10.85 76.7 0 0 142.3590 176.0340
  A 13.48 10.85 76.7 0 0 128.6989 165.4115
  A 13.48 10.85 76.7 0 0 121.2410 181.0260
  A 13.48 10.85 76.7 0 0 134.9011 191.6485"
/>
<path stroke="#988775" vector-effect="non-scaling-stroke" d="
  M 326.4854 188.2186
  A 3.11 3.11 0.0 0 0 324.1873 184.4685
  L 300.4421 178.7678
  A 3.11 3.11 0.0 0 0 296.6920 181.0658
  L 296.6546 181.2214
  A 3.11 3.11 0.0 0 0 298.9527 184.9715
  L 322.6979 190.6722
  A 3.11 3.11 0.0 0 0 326.4480 188.3742
  L 326.4854 188.2186"
/>
<path stroke="#f7ab87" vector-effect="non-scaling-stroke" d="
  M 97.3545 233.3893
  A 24.27 18.98 76.6 0 0 110.1933 205.3814
  A 24.27 18.98 76.6 0 0 86.1055 186.1707
  A 24.27 18.98 76.6 0 0 73.2667 214.1786
  A 24.27 18.98 76.6 0 0 97.3545 233.3893"
/>
<path stroke="#988775" vector-effect="non-scaling-stroke" d="
  M 106.31 255.49
  A 0.26 0.26 0.0 0 1 106.24 255.09
  L 111.79 248.69
  A 2.30 2.30 0.0 0 0 111.53 245.43
  L 110.74 244.77
  Q 108.39 242.80 106.40 245.14
  L 88.82 265.74
  A 3.08 3.08 0.0 0 0 89.25 270.15
  L 89.88 270.65
  A 2.49 2.49 0.0 0 0 93.32 270.31
  L 102.21 259.89
  Q 102.45 259.61 102.67 259.91
  C 124.76 290.64 160.39 306.78 197.66 301.72
  C 224.92 298.02 252.32 283.48 271.25 264.25
  C 290.12 245.08 306.25 218.19 310.65 191.13
  A 2.44 2.44 0.0 0 0 308.61 188.32
  L 307.94 188.22
  Q 304.90 187.75 304.32 190.77
  C 300.82 209.05 292.16 227.11 281.48 242.23
  C 260.72 271.62 226.54 293.50 190.25 296.22
  C 158.10 298.63 127.85 282.78 108.58 257.26
  C 107.98 256.47 107.15 255.93 106.31 255.49"
/>
<path stroke="#988775" vector-effect="non-scaling-stroke" d="
  M 205.7264 230.0571
  A 5.93 5.93 0.0 0 0 198.4931 225.8134
  L 192.5707 227.3561
  A 5.93 5.93 0.0 0 0 188.3269 234.5893
  L 188.5336 235.3829
  A 5.93 5.93 0.0 0 0 195.7669 239.6266
  L 201.6893 238.0839
  A 5.93 5.93 0.0 0 0 205.9331 230.8507
  L 205.7264 230.0571"
/>
</g>
<path fill="#2987d8" d="
  M 194.63 0.00
  L 206.25 0.00
  Q 213.99 0.85 221.73 1.61
  C 270.82 6.43 315.80 30.40 348.61 66.63
  Q 390.40 112.78 398.29 176.38
  C 398.76 180.14 398.98 186.71 400.00 191.88
  L 400.00 207.00
  C 398.91 212.89 398.81 219.80 398.14 224.66
  Q 395.77 241.82 391.50 256.24
  C 368.78 333.09 301.85 389.88 221.62 398.41
  C 217.81 398.82 211.66 399.04 206.62 400.00
  L 192.75 400.00
  Q 188.49 399.28 179.25 398.59
  Q 163.05 397.38 143.72 391.62
  C 66.99 368.78 11.79 303.30 1.73 224.01
  C 1.08 218.90 0.80 211.93 0.00 205.87
  L 0.00 193.76
  Q 0.70 186.67 1.39 179.60
  C 10.37 87.47 83.37 13.13 175.15 1.77
  C 180.68 1.09 188.13 0.74 194.63 0.00
  Z
  M 172.95 42.78
  Q 169.84 39.24 168.52 32.85
  A 2.37 2.37 0.0 0 0 165.71 31.01
  L 165.15 31.12
  Q 161.98 31.78 162.58 34.96
  C 164.23 43.70 169.17 50.80 177.06 54.78
  Q 178.50 55.50 179.72 56.46
  Q 164.44 58.80 146.75 63.69
  C 108.85 74.17 73.85 92.78 58.45 131.45
  Q 51.71 148.37 48.30 159.50
  C 41.50 181.68 42.99 206.89 46.33 229.89
  A 0.28 0.27 10.3 0 1 45.92 230.17
  Q 38.64 226.02 30.25 226.81
  C 26.14 227.20 20.30 229.15 17.76 232.62
  C 14.39 237.20 17.53 248.81 20.71 253.09
  C 27.05 261.62 42.54 262.13 52.12 260.19
  A 0.91 0.90 -14.8 0 1 53.16 260.79
  Q 61.64 285.54 83.17 301.09
  C 89.74 305.83 97.84 310.32 104.85 315.62
  C 115.98 324.03 130.91 328.83 144.49 331.34
  Q 169.19 335.90 194.91 333.97
  A 0.76 0.76 0.0 0 1 195.69 334.94
  C 192.88 344.78 202.41 348.82 210.28 347.73
  Q 227.89 345.27 239.24 330.98
  C 240.99 328.78 242.82 325.39 245.68 324.56
  C 286.23 312.88 325.46 289.68 346.18 251.45
  C 354.82 235.52 361.12 219.91 362.95 202.29
  A 2.28 2.27 87.1 0 1 364.74 200.29
  C 375.13 198.10 391.21 192.14 394.99 180.91
  C 397.66 172.97 394.83 163.58 387.26 159.57
  C 379.84 155.64 370.09 157.56 362.40 160.78
  A 0.79 0.79 0.0 0 1 361.32 160.19
  C 358.53 145.37 353.75 130.08 346.80 116.89
  C 331.61 88.04 305.40 67.04 272.82 59.30
  Q 269.32 58.47 264.74 56.79
  Q 252.18 52.17 238.24 51.53
  Q 213.36 50.38 189.72 54.48
  Q 189.01 54.60 189.29 53.94
  Q 190.02 52.20 189.46 50.42
  Q 189.30 49.91 188.84 49.64
  C 187.30 48.74 185.30 48.14 184.07 47.13
  C 178.02 42.17 177.46 34.43 178.41 27.04
  Q 178.85 23.63 175.41 23.63
  L 174.75 23.63
  A 2.80 2.79 4.2 0 0 171.98 26.02
  C 170.93 33.29 172.08 36.79 172.95 42.78
  Z"
/>
<path fill="#323232" d="
  M 179.72 56.46
  Q 186.34 56.69 183.87 51.26
  A 1.33 1.31 89.2 0 0 183.21 50.61
  C 178.84 48.67 175.45 46.77 172.95 42.78
  C 172.08 36.79 170.93 33.29 171.98 26.02
  A 2.80 2.79 4.2 0 1 174.75 23.63
  L 175.41 23.63
  Q 178.85 23.63 178.41 27.04
  C 177.46 34.43 178.02 42.17 184.07 47.13
  C 185.30 48.14 187.30 48.74 188.84 49.64
  Q 189.30 49.91 189.46 50.42
  Q 190.02 52.20 189.29 53.94
  Q 189.01 54.60 189.72 54.48
  Q 213.36 50.38 238.24 51.53
  Q 252.18 52.17 264.74 56.79
  Q 269.32 58.47 272.82 59.30
  C 305.40 67.04 331.61 88.04 346.80 116.89
  C 353.75 130.08 358.53 145.37 361.32 160.19
  A 0.79 0.79 0.0 0 0 362.40 160.78
  C 370.09 157.56 379.84 155.64 387.26 159.57
  C 394.83 163.58 397.66 172.97 394.99 180.91
  C 391.21 192.14 375.13 198.10 364.74 200.29
  A 2.28 2.27 87.1 0 0 362.95 202.29
  C 361.12 219.91 354.82 235.52 346.18 251.45
  C 325.46 289.68 286.23 312.88 245.68 324.56
  C 242.82 325.39 240.99 328.78 239.24 330.98
  Q 227.89 345.27 210.28 347.73
  C 202.41 348.82 192.88 344.78 195.69 334.94
  A 0.76 0.76 0.0 0 0 194.91 333.97
  Q 169.19 335.90 144.49 331.34
  C 130.91 328.83 115.98 324.03 104.85 315.62
  C 97.84 310.32 89.74 305.83 83.17 301.09
  Q 61.64 285.54 53.16 260.79
  A 0.91 0.90 -14.8 0 0 52.12 260.19
  C 42.54 262.13 27.05 261.62 20.71 253.09
  C 17.53 248.81 14.39 237.20 17.76 232.62
  C 20.30 229.15 26.14 227.20 30.25 226.81
  Q 38.64 226.02 45.92 230.17
  A 0.28 0.27 10.3 0 0 46.33 229.89
  C 42.99 206.89 41.50 181.68 48.30 159.50
  Q 51.71 148.37 58.45 131.45
  C 73.85 92.78 108.85 74.17 146.75 63.69
  Q 164.44 58.80 179.72 56.46
  Z
  M 218.58 57.86
  C 214.93 57.94 211.43 58.53 207.79 58.68
  Q 202.70 58.89 197.71 60.15
  Q 196.97 60.34 197.64 61.61
  C 197.16 71.46 200.72 83.99 211.24 87.17
  C 214.16 87.90 217.32 90.46 214.44 93.07
  C 212.80 94.55 210.87 93.95 208.99 93.25
  Q 203.47 91.19 200.03 87.92
  C 193.63 80.72 191.52 72.56 191.07 63.31
  L 191.16 61.33
  A 0.57 0.57 0.0 0 0 190.49 60.74
  L 170.26 64.47
  Q 169.78 64.56 169.99 65.01
  L 170.80 66.68
  Q 171.49 73.89 173.95 81.00
  Q 176.67 88.84 181.82 92.17
  Q 184.48 93.74 186.65 93.92
  A 1.37 1.36 -20.3 0 1 187.49 94.30
  C 189.48 96.23 189.09 99.41 186.17 99.94
  C 182.04 100.70 176.22 96.57 173.63 93.64
  C 168.07 86.26 165.62 77.54 164.49 68.35
  L 164.64 66.39
  Q 164.68 65.80 164.11 65.94
  L 148.94 69.69
  Q 148.32 69.85 148.72 70.34
  L 150.05 71.98
  Q 146.74 78.75 148.35 85.21
  Q 149.46 89.67 153.16 92.89
  Q 156.83 96.10 161.50 97.28
  C 163.95 98.36 168.99 99.30 167.24 103.06
  C 166.64 104.33 165.18 105.24 163.81 104.93
  Q 157.50 103.51 151.55 99.83
  Q 138.23 90.20 142.31 74.36
  Q 142.80 73.52 143.07 72.06
  Q 143.15 71.60 142.70 71.73
  Q 118.84 78.53 98.00 91.95
  A 0.56 0.56 0.0 0 0 97.81 92.68
  Q 98.10 93.20 98.90 93.86
  Q 102.97 101.83 110.12 108.38
  Q 113.54 111.51 117.08 112.91
  Q 120.05 114.09 122.21 113.26
  C 125.14 113.60 127.65 115.76 125.69 118.51
  C 123.53 121.54 115.83 119.48 112.46 117.91
  C 104.19 113.16 98.61 105.99 93.63 98.02
  Q 93.39 96.82 92.97 96.43
  Q 92.57 96.07 91.73 96.74
  C 76.92 108.52 68.58 122.77 61.86 140.55
  Q 57.02 153.37 55.30 158.76
  Q 49.68 176.42 50.03 195.00
  Q 50.47 218.52 54.72 241.66
  C 58.79 263.84 68.60 282.97 87.33 296.17
  Q 90.95 298.72 100.77 304.95
  Q 100.98 305.08 110.34 311.59
  Q 118.99 317.61 129.25 320.72
  Q 162.73 330.89 198.05 327.28
  A 1.23 1.22 6.3 0 0 199.09 326.45
  C 200.28 322.72 204.80 323.00 205.81 326.54
  A 1.20 1.16 52.5 0 1 205.70 327.48
  C 203.84 330.76 201.37 334.96 201.82 338.86
  A 2.19 2.17 5.1 0 0 203.38 340.71
  C 210.50 342.79 219.66 339.32 225.41 335.14
  C 232.09 330.30 235.87 324.93 240.27 318.11
  C 242.13 315.22 243.45 315.14 246.19 316.99
  Q 246.91 317.47 247.74 317.22
  C 284.49 305.87 320.67 284.36 339.81 249.56
  Q 344.74 240.58 348.83 231.37
  C 366.60 189.25 360.16 146.79 335.09 109.42
  Q 310.96 75.01 270.39 65.38
  C 263.45 63.74 257.19 60.62 249.90 59.30
  C 240.30 56.23 227.90 57.05 218.58 57.86
  Z
  M 388.43 169.93
  C 383.51 159.40 370.07 165.01 362.57 167.61
  Q 361.98 167.82 361.98 168.44
  L 362.02 193.55
  A 0.71 0.71 0.0 0 0 362.90 194.24
  C 372.65 191.90 395.26 184.53 388.43 169.93
  Z
  M 50.00 253.60
  L 47.06 238.24
  Q 46.98 237.78 46.49 237.56
  C 38.28 233.86 32.84 230.74 24.17 235.42
  C 20.79 237.24 24.21 247.26 26.24 249.49
  C 31.44 255.19 42.76 255.22 49.57 254.21
  Q 50.10 254.13 50.00 253.60
  Z"
/>
<path fill="#f7e700" d="
  M 172.95 42.78
  C 175.45 46.77 178.84 48.67 183.21 50.61
  A 1.33 1.31 89.2 0 1 183.87 51.26
  Q 186.34 56.69 179.72 56.46
  Q 178.50 55.50 177.06 54.78
  C 169.17 50.80 164.23 43.70 162.58 34.96
  Q 161.98 31.78 165.15 31.12
  L 165.71 31.01
  A 2.37 2.37 0.0 0 1 168.52 32.85
  Q 169.84 39.24 172.95 42.78
  Z"
/>
<path fill="#f7e700" d="
  M 249.90 59.30
  Q 249.77 61.17 251.77 63.34
  L 259.44 78.36
  A 1.20 1.19 -15.9 0 1 258.47 80.09
  L 252.29 80.59
  C 245.00 76.20 243.46 69.86 242.34 61.90
  Q 241.93 58.98 238.99 59.22
  L 238.46 59.27
  A 2.50 2.49 -2.4 0 0 236.17 61.75
  Q 236.15 72.37 242.84 81.25
  L 223.44 84.17
  Q 221.29 84.18 218.84 82.66
  Q 213.99 79.67 213.02 73.49
  Q 212.38 69.42 213.08 59.72
  Q 214.13 59.15 216.48 59.12
  Q 217.28 59.11 217.76 58.97
  Q 219.17 58.54 218.58 57.86
  C 227.90 57.05 240.30 56.23 249.90 59.30
  Z"
/>
<path fill="#fddcb7" d="
  M 218.58 57.86
  Q 219.17 58.54 217.76 58.97
  Q 217.28 59.11 216.48 59.12
  Q 214.13 59.15 213.08 59.72
  Q 208.31 58.03 207.09 60.48
  L 197.64 61.61
  Q 196.97 60.34 197.71 60.15
  Q 202.70 58.89 207.79 58.68
  C 211.43 58.53 214.93 57.94 218.58 57.86
  Z"
/>
<path fill="#323232" d="
  M 213.08 59.72
  Q 212.38 69.42 213.02 73.49
  Q 213.99 79.67 218.84 82.66
  Q 221.29 84.18 223.44 84.17
  Q 225.85 87.71 223.34 89.54
  C 220.36 91.70 214.71 87.76 212.21 85.65
  C 205.78 78.71 205.25 69.50 207.09 60.48
  Q 208.31 58.03 213.08 59.72
  Z"
/>
<path fill="#323232" d="
  M 252.29 80.59
  Q 252.91 81.79 252.56 83.43
  Q 250.73 86.03 249.00 85.48
  Q 245.89 84.48 242.84 81.25
  Q 236.15 72.37 236.17 61.75
  A 2.50 2.49 -2.4 0 1 238.46 59.27
  L 238.99 59.22
  Q 241.93 58.98 242.34 61.90
  C 243.46 69.86 245.00 76.20 252.29 80.59
  Z"
/>
<path fill="#fddcb7" d="
  M 249.90 59.30
  C 257.19 60.62 263.45 63.74 270.39 65.38
  Q 310.96 75.01 335.09 109.42
  Q 332.17 108.40 329.88 105.49
  C 315.28 86.89 294.54 74.14 271.91 67.76
  C 265.18 65.86 258.76 63.96 251.77 63.34
  Q 249.77 61.17 249.90 59.30
  Z"
/>
<path fill="#f7e700" d="
  M 207.09 60.48
  C 205.25 69.50 205.78 78.71 212.21 85.65
  Q 211.25 86.21 211.24 87.17
  C 200.72 83.99 197.16 71.46 197.64 61.61
  L 207.09 60.48
  Z"
/>
<path fill="#fddcb7" d="
  M 191.07 63.31
  L 170.80 66.68
  L 169.99 65.01
  Q 169.78 64.56 170.26 64.47
  L 190.49 60.74
  A 0.57 0.57 0.0 0 1 191.16 61.33
  L 191.07 63.31
  Z"
/>
<path fill="#f7e700" d="
  M 191.07 63.31
  C 191.52 72.56 193.63 80.72 200.03 87.92
  Q 190.51 89.19 181.82 92.17
  Q 176.67 88.84 173.95 81.00
  Q 171.49 73.89 170.80 66.68
  L 191.07 63.31
  Z"
/>
<path fill="#f4b686" d="
  M 251.77 63.34
  C 258.76 63.96 265.18 65.86 271.91 67.76
  C 294.54 74.14 315.28 86.89 329.88 105.49
  Q 332.17 108.40 335.09 109.42
  C 360.16 146.79 366.60 189.25 348.83 231.37
  Q 348.41 230.77 347.96 230.65
  A 0.62 0.61 -69.8 0 0 347.25 230.98
  Q 340.55 245.06 330.11 256.61
  A 0.14 0.14 0.0 0 1 329.87 256.53
  Q 329.86 256.34 329.87 256.10
  Q 329.89 255.88 330.01 255.67
  C 336.70 243.20 336.95 225.98 335.93 211.75
  Q 334.14 186.62 328.74 161.99
  C 320.29 123.41 286.95 98.86 252.56 83.43
  Q 252.91 81.79 252.29 80.59
  L 258.47 80.09
  A 1.20 1.19 -15.9 0 0 259.44 78.36
  L 251.77 63.34
  Z"
/>
<path fill="#fddcb7" d="
  M 164.49 68.35
  L 150.05 71.98
  L 148.72 70.34
  Q 148.32 69.85 148.94 69.69
  L 164.11 65.94
  Q 164.68 65.80 164.64 66.39
  L 164.49 68.35
  Z"
/>
<path fill="#f7e700" d="
  M 164.49 68.35
  C 165.62 77.54 168.07 86.26 173.63 93.64
  L 161.50 97.28
  Q 156.83 96.10 153.16 92.89
  Q 149.46 89.67 148.35 85.21
  Q 146.74 78.75 150.05 71.98
  L 164.49 68.35
  Z"
/>
<path fill="#fddcb7" d="
  M 142.31 74.36
  L 123.54 81.19
  Q 119.00 79.50 117.76 83.45
  L 98.90 93.86
  Q 98.10 93.20 97.81 92.68
  A 0.56 0.56 0.0 0 1 98.00 91.95
  Q 118.84 78.53 142.70 71.73
  Q 143.15 71.60 143.07 72.06
  Q 142.80 73.52 142.31 74.36
  Z"
/>
<path fill="#f7e700" d="
  M 142.31 74.36
  Q 138.23 90.20 151.55 99.83
  Q 147.01 101.24 144.16 103.42
  Q 136.87 103.21 131.68 97.32
  Q 126.01 90.90 123.54 81.19
  L 142.31 74.36
  Z"
/>
<path fill="#323232" d="
  M 123.54 81.19
  Q 126.01 90.90 131.68 97.32
  Q 136.87 103.21 144.16 103.42
  C 147.40 105.50 146.88 109.63 142.73 109.75
  Q 139.26 109.85 133.50 107.10
  Q 121.14 98.65 117.76 83.45
  Q 119.00 79.50 123.54 81.19
  Z"
/>
<path fill="#fddcb7" d="
  M 242.84 81.25
  Q 245.89 84.48 249.00 85.48
  Q 250.73 86.03 252.56 83.43
  C 286.95 98.86 320.29 123.41 328.74 161.99
  Q 334.14 186.62 335.93 211.75
  C 336.95 225.98 336.70 243.20 330.01 255.67
  Q 329.89 255.88 329.87 256.10
  Q 329.86 256.34 329.87 256.53
  A 0.14 0.14 0.0 0 0 330.11 256.61
  Q 340.55 245.06 347.25 230.98
  A 0.62 0.61 -69.8 0 1 347.96 230.65
  Q 348.41 230.77 348.83 231.37
  Q 344.74 240.58 339.81 249.56
  C 320.67 284.36 284.49 305.87 247.74 317.22
  Q 246.91 317.47 246.19 316.99
  C 243.45 315.14 242.13 315.22 240.27 318.11
  C 235.87 324.93 232.09 330.30 225.41 335.14
  C 219.66 339.32 210.50 342.79 203.38 340.71
  A 2.19 2.17 5.1 0 1 201.82 338.86
  C 201.37 334.96 203.84 330.76 205.70 327.48
  A 1.20 1.16 52.5 0 0 205.81 326.54
  C 204.80 323.00 200.28 322.72 199.09 326.45
  A 1.23 1.22 6.3 0 1 198.05 327.28
  Q 162.73 330.89 129.25 320.72
  Q 118.99 317.61 110.34 311.59
  Q 100.98 305.08 100.77 304.95
  Q 90.95 298.72 87.33 296.17
  C 68.60 282.97 58.79 263.84 54.72 241.66
  Q 50.47 218.52 50.03 195.00
  Q 49.68 176.42 55.30 158.76
  Q 57.02 153.37 61.86 140.55
  C 68.58 122.77 76.92 108.52 91.73 96.74
  Q 92.57 96.07 92.97 96.43
  Q 93.39 96.82 93.63 98.02
  L 88.95 102.76
  A 1.19 1.18 37.4 0 0 89.20 104.62
  Q 99.54 110.59 109.49 117.65
  C 110.44 118.32 111.47 118.31 112.46 117.91
  C 115.83 119.48 123.53 121.54 125.69 118.51
  C 127.65 115.76 125.14 113.60 122.21 113.26
  Q 127.29 109.64 133.50 107.10
  Q 139.26 109.85 142.73 109.75
  C 146.88 109.63 147.40 105.50 144.16 103.42
  Q 147.01 101.24 151.55 99.83
  Q 157.50 103.51 163.81 104.93
  C 165.18 105.24 166.64 104.33 167.24 103.06
  C 168.99 99.30 163.95 98.36 161.50 97.28
  L 173.63 93.64
  C 176.22 96.57 182.04 100.70 186.17 99.94
  C 189.09 99.41 189.48 96.23 187.49 94.30
  A 1.37 1.36 -20.3 0 0 186.65 93.92
  Q 184.48 93.74 181.82 92.17
  Q 190.51 89.19 200.03 87.92
  Q 203.47 91.19 208.99 93.25
  C 210.87 93.95 212.80 94.55 214.44 93.07
  C 217.32 90.46 214.16 87.90 211.24 87.17
  Q 211.25 86.21 212.21 85.65
  C 214.71 87.76 220.36 91.70 223.34 89.54
  Q 225.85 87.71 223.44 84.17
  L 242.84 81.25
  Z
  M 282.12 191.65
  C 287.70 180.86 293.37 170.29 299.98 160.20
  Q 300.45 159.47 300.15 158.66
  C 295.90 147.33 287.35 139.79 274.52 143.30
  C 267.79 145.13 254.55 150.75 255.50 159.75
  Q 256.57 169.75 257.64 179.74
  Q 258.36 186.39 263.69 191.05
  C 268.46 195.21 278.27 199.09 282.12 191.65
  Z
  M 219.5601 172.3995
  A 13.51 10.84 77.3 0 0 227.1648 156.8369
  A 13.51 10.84 77.3 0 0 213.6199 146.0405
  A 13.51 10.84 77.3 0 0 206.0152 161.6031
  A 13.51 10.84 77.3 0 0 219.5601 172.3995
  Z
  M 134.9011 191.6485
  A 13.48 10.85 76.7 0 0 142.3590 176.0340
  A 13.48 10.85 76.7 0 0 128.6989 165.4115
  A 13.48 10.85 76.7 0 0 121.2410 181.0260
  A 13.48 10.85 76.7 0 0 134.9011 191.6485
  Z
  M 326.4854 188.2186
  A 3.11 3.11 0.0 0 0 324.1873 184.4685
  L 300.4421 178.7678
  A 3.11 3.11 0.0 0 0 296.6920 181.0658
  L 296.6546 181.2214
  A 3.11 3.11 0.0 0 0 298.9527 184.9715
  L 322.6979 190.6722
  A 3.11 3.11 0.0 0 0 326.4480 188.3742
  L 326.4854 188.2186
  Z
  M 97.3545 233.3893
  A 24.27 18.98 76.6 0 0 110.1933 205.3814
  A 24.27 18.98 76.6 0 0 86.1055 186.1707
  A 24.27 18.98 76.6 0 0 73.2667 214.1786
  A 24.27 18.98 76.6 0 0 97.3545 233.3893
  Z
  M 106.31 255.49
  A 0.26 0.26 0.0 0 1 106.24 255.09
  L 111.79 248.69
  A 2.30 2.30 0.0 0 0 111.53 245.43
  L 110.74 244.77
  Q 108.39 242.80 106.40 245.14
  L 88.82 265.74
  A 3.08 3.08 0.0 0 0 89.25 270.15
  L 89.88 270.65
  A 2.49 2.49 0.0 0 0 93.32 270.31
  L 102.21 259.89
  Q 102.45 259.61 102.67 259.91
  C 124.76 290.64 160.39 306.78 197.66 301.72
  C 224.92 298.02 252.32 283.48 271.25 264.25
  C 290.12 245.08 306.25 218.19 310.65 191.13
  A 2.44 2.44 0.0 0 0 308.61 188.32
  L 307.94 188.22
  Q 304.90 187.75 304.32 190.77
  C 300.82 209.05 292.16 227.11 281.48 242.23
  C 260.72 271.62 226.54 293.50 190.25 296.22
  C 158.10 298.63 127.85 282.78 108.58 257.26
  C 107.98 256.47 107.15 255.93 106.31 255.49
  Z
  M 205.7264 230.0571
  A 5.93 5.93 0.0 0 0 198.4931 225.8134
  L 192.5707 227.3561
  A 5.93 5.93 0.0 0 0 188.3269 234.5893
  L 188.5336 235.3829
  A 5.93 5.93 0.0 0 0 195.7669 239.6266
  L 201.6893 238.0839
  A 5.93 5.93 0.0 0 0 205.9331 230.8507
  L 205.7264 230.0571
  Z"
/>
<path fill="#f7e700" d="
  M 117.76 83.45
  Q 121.14 98.65 133.50 107.10
  Q 127.29 109.64 122.21 113.26
  Q 120.05 114.09 117.08 112.91
  Q 113.54 111.51 110.12 108.38
  Q 102.97 101.83 98.90 93.86
  L 117.76 83.45
  Z"
/>
<path fill="#f7e700" d="
  M 93.63 98.02
  C 98.61 105.99 104.19 113.16 112.46 117.91
  C 111.47 118.31 110.44 118.32 109.49 117.65
  Q 99.54 110.59 89.20 104.62
  A 1.19 1.18 37.4 0 1 88.95 102.76
  L 93.63 98.02
  Z"
/>
<path fill="#f07a56" d="
  M 299.98 160.20
  C 293.37 170.29 287.70 180.86 282.12 191.65
  C 278.27 199.09 268.46 195.21 263.69 191.05
  Q 258.36 186.39 257.64 179.74
  Q 256.57 169.75 255.50 159.75
  C 254.55 150.75 267.79 145.13 274.52 143.30
  C 287.35 139.79 295.90 147.33 300.15 158.66
  Q 300.45 159.47 299.98 160.20
  Z"
/>
<ellipse fill="#323232" cx="0.00" cy="0.00" transform="translate(216.59,159.22) rotate(77.3)" rx="13.51" ry="10.84"/>
<path fill="#f4b686" d="
  M 362.57 167.61
  C 370.07 165.01 383.51 159.40 388.43 169.93
  C 395.26 184.53 372.65 191.90 362.90 194.24
  A 0.71 0.71 0.0 0 1 362.02 193.55
  L 361.98 168.44
  Q 361.98 167.82 362.57 167.61
  Z"
/>
<ellipse fill="#323232" cx="0.00" cy="0.00" transform="translate(131.80,178.53) rotate(76.7)" rx="13.48" ry="10.85"/>
<rect fill="#323232" x="-15.32" y="-3.19" transform="translate(311.57,184.72) rotate(13.5)" width="30.64" height="6.38" rx="3.11"/>
<ellipse fill="#f07a56" cx="0.00" cy="0.00" transform="translate(91.73,209.78) rotate(76.6)" rx="24.27" ry="18.98"/>
<path fill="#323232" d="
  M 106.31 255.49
  C 107.15 255.93 107.98 256.47 108.58 257.26
  C 127.85 282.78 158.10 298.63 190.25 296.22
  C 226.54 293.50 260.72 271.62 281.48 242.23
  C 292.16 227.11 300.82 209.05 304.32 190.77
  Q 304.90 187.75 307.94 188.22
  L 308.61 188.32
  A 2.44 2.44 0.0 0 1 310.65 191.13
  C 306.25 218.19 290.12 245.08 271.25 264.25
  C 252.32 283.48 224.92 298.02 197.66 301.72
  C 160.39 306.78 124.76 290.64 102.67 259.91
  Q 102.45 259.61 102.21 259.89
  L 93.32 270.31
  A 2.49 2.49 0.0 0 1 89.88 270.65
  L 89.25 270.15
  A 3.08 3.08 0.0 0 1 88.82 265.74
  L 106.40 245.14
  Q 108.39 242.80 110.74 244.77
  L 111.53 245.43
  A 2.30 2.30 0.0 0 1 111.79 248.69
  L 106.24 255.09
  A 0.26 0.26 0.0 0 0 106.31 255.49
  Z"
/>
<rect fill="#323232" x="-8.99" y="-6.34" transform="translate(197.13,232.72) rotate(-14.6)" width="17.98" height="12.68" rx="5.93"/>
<path fill="#fddcb7" d="
  M 47.06 238.24
  L 50.00 253.60
  Q 50.10 254.13 49.57 254.21
  C 42.76 255.22 31.44 255.19 26.24 249.49
  C 24.21 247.26 20.79 237.24 24.17 235.42
  C 32.84 230.74 38.28 233.86 46.49 237.56
  Q 46.98 237.78 47.06 238.24
  Z"
/>
</svg>
