<?xml version="1.0" encoding="UTF-8" standalone="no"?>
<!DOCTYPE svg PUBLIC "-//W3C//DTD SVG 1.1//EN" "http://www.w3.org/Graphics/SVG/1.1/DTD/svg11.dtd">
<svg xmlns="http://www.w3.org/2000/svg" version="1.1" viewBox="0.00 0.00 1448.00 1448.00">
<g stroke-width="2.00" fill="none" stroke-linecap="butt">
<path stroke="#808080" vector-effect="non-scaling-stroke" d="
  M 1448.00 1.20
  L 1.52 1.20
  A 0.34 0.34 0.0 0 0 1.18 1.54
  L 1.18 1448.00"
/>
<path stroke="#808080" vector-effect="non-scaling-stroke" d="
  M 1249.86 383.29
  C 1235.08 358.99 1208.04 341.17 1179.25 341.17
  Q 728.56 341.17 277.87 341.17
  Q 264.99 341.17 259.18 342.02
  C 235.97 345.44 215.27 359.77 202.07 378.79
  A 0.38 0.38 0.0 0 0 202.19 379.33
  L 724.26 690.46
  A 0.72 0.72 0.0 0 0 725.00 690.46
  L 1249.71 383.91
  Q 1250.10 383.68 1249.86 383.29"
/>
<path stroke="#808080" vector-effect="non-scaling-stroke" d="
  M 723.99 759.29
  L 184.76 437.94
  Q 184.05 437.51 184.05 438.34
  Q 184.04 725.42 184.02 1013.00
  C 184.01 1055.88 210.76 1097.38 254.08 1107.23
  Q 262.23 1109.09 269.25 1109.09
  Q 720.38 1109.11 1171.51 1109.09
  Q 1184.68 1109.09 1191.43 1107.92
  C 1235.74 1100.22 1264.99 1057.39 1264.99 1013.75
  Q 1264.99 728.94 1264.99 444.48
  Q 1264.99 443.67 1264.29 444.08
  L 724.75 759.29
  A 0.73 0.73 0.0 0 1 723.99 759.29"
/>
</g>
<path fill="#ffffff" d="
  M 0.00 0.00
  L 1448.00 0.00
  L 1448.00 1.20
  L 1.52 1.20
  A 0.34 0.34 0.0 0 0 1.18 1.54
  L 1.18 1448.00
  L 0.00 1448.00
  L 0.00 0.00
  Z"
/>
<path fill="#000000" d="
  M 1448.00 1.20
  L 1448.00 1448.00
  L 1.18 1448.00
  L 1.18 1.54
  A 0.34 0.34 0.0 0 1 1.52 1.20
  L 1448.00 1.20
  Z
  M 1249.86 383.29
  C 1235.08 358.99 1208.04 341.17 1179.25 341.17
  Q 728.56 341.17 277.87 341.17
  Q 264.99 341.17 259.18 342.02
  C 235.97 345.44 215.27 359.77 202.07 378.79
  A 0.38 0.38 0.0 0 0 202.19 379.33
  L 724.26 690.46
  A 0.72 0.72 0.0 0 0 725.00 690.46
  L 1249.71 383.91
  Q 1250.10 383.68 1249.86 383.29
  Z
  M 723.99 759.29
  L 184.76 437.94
  Q 184.05 437.51 184.05 438.34
  Q 184.04 725.42 184.02 1013.00
  C 184.01 1055.88 210.76 1097.38 254.08 1107.23
  Q 262.23 1109.09 269.25 1109.09
  Q 720.38 1109.11 1171.51 1109.09
  Q 1184.68 1109.09 1191.43 1107.92
  C 1235.74 1100.22 1264.99 1057.39 1264.99 1013.75
  Q 1264.99 728.94 1264.99 444.48
  Q 1264.99 443.67 1264.29 444.08
  L 724.75 759.29
  A 0.73 0.73 0.0 0 1 723.99 759.29
  Z"
/>
<path fill="#ffffff" d="
  M 1179.25 341.17
  C 1208.04 341.17 1235.08 358.99 1249.86 383.29
  Q 1250.10 383.68 1249.71 383.91
  L 725.00 690.46
  A 0.72 0.72 0.0 0 1 724.26 690.46
  L 202.19 379.33
  A 0.38 0.38 0.0 0 1 202.07 378.79
  C 215.27 359.77 235.97 345.44 259.18 342.02
  Q 264.99 341.17 277.87 341.17
  Q 728.56 341.17 1179.25 341.17
  Z"
/>
<path fill="#ffffff" d="
  M 724.75 759.29
  L 1264.29 444.08
  Q 1264.99 443.67 1264.99 444.48
  Q 1264.99 728.94 1264.99 1013.75
  C 1264.99 1057.39 1235.74 1100.22 1191.43 1107.92
  Q 1184.68 1109.09 1171.51 1109.09
  Q 720.38 1109.11 269.25 1109.09
  Q 262.23 1109.09 254.08 1107.23
  C 210.76 1097.38 184.01 1055.88 184.02 1013.00
  Q 184.04 725.42 184.05 438.34
  Q 184.05 437.51 184.76 437.94
  L 723.99 759.29
  A 0.73 0.73 0.0 0 0 724.75 759.29
  Z"
/>
</svg>
