<svg version="1.1" viewBox="0.0 0.0 960.0 540.0" fill="none" stroke="none" stroke-linecap="square" stroke-miterlimit="10" xmlns:xlink="http://www.w3.org/1999/xlink" xmlns="http://www.w3.org/2000/svg"><clipPath id="p.0"><path d="m0 0l960.0 0l0 540.0l-960.0 0l0 -540.0z" clip-rule="nonzero"/></clipPath><g clip-path="url(#p.0)"><path fill="#000000" fill-opacity="0.0" d="m0 0l960.0 0l0 540.0l-960.0 0z" fill-rule="evenodd"/><path fill="#eeeeee" d="m-0.44094488 273.87424l0 0c0 -43.304337 35.103966 -78.692505 78.406906 -79.04169l804.0681 -6.4835663c20.7948 -0.16767883 40.737915 7.93248 55.442017 22.51854c14.704163 14.58606 22.964844 34.46321 22.964844 55.258698l0 0l0 0c0 43.30432 -35.103943 78.692505 -78.40686 79.04166l-804.0681 6.4835815c-43.302937 0.34918213 -78.406906 -34.47287 -78.406906 -77.77722z" fill-rule="evenodd"/><path fill="#000000" fill-opacity="0.0" d="m30.220472 172.23622l899.5591 0l0 195.52757l-899.5591 0z" fill-rule="evenodd"/><path fill="#ffffff" d="m141.65797 252.06871l-22.59375 0q-0.625 -4.390625 -2.53125 -7.8125q-1.90625 -3.4375 -4.90625 -5.859375q-3.0 -2.4375 -6.890625 -3.71875q-3.890625 -1.296875 -8.4375 -1.296875q-8.203125 0 -14.296875 4.0625q-6.09375 4.046875 -9.453125 11.765625q-3.34375 7.7031097 -3.34375 18.70311q0 11.296875 3.375 18.984375q3.390625 7.6875 9.46875 11.609375q6.09375 3.921875 14.09375 3.921875q4.484375 0 8.328125 -1.171875q3.859375 -1.1875 6.84375 -3.484375q3.0 -2.296875 4.984375 -5.59375q1.984375 -3.3125 2.765625 -7.546875l22.59375 0.109375q-0.875 7.265625 -4.359375 14.0q-3.484375 6.734375 -9.34375 12.03125q-5.859375 5.28125 -13.9375 8.359375q-8.0625 3.0625 -18.234375 3.0625q-14.140625 0 -25.265625 -6.390625q-11.125 -6.40625 -17.546875 -18.53125q-6.421875 -12.125 -6.421875 -29.359375q0 -17.29686 6.5 -29.42186q6.5 -12.125 17.640625 -18.5q11.15625 -6.375 25.09375 -6.375q9.1875 0 17.046875 2.578125q7.875 2.578125 13.96875 7.515625q6.09375 4.921875 9.9375 12.046875q3.84375 7.125 4.921875 16.3125zm51.462173 70.23436q-12.03125 0 -20.78125 -5.125q-8.75 -5.140625 -13.5 -14.34375q-4.734375 -9.21875 -4.734375 -21.40625q0 -12.28125 4.734375 -21.484375q4.75 -9.218735 13.5 -14.343735q8.75 -5.140625 20.78125 -5.140625q12.015625 0 20.765625 5.140625q8.75 5.125 13.5 14.343735q4.75 9.203125 4.75 21.484375q0 12.1875 -4.75 21.40625q-4.75 9.203125 -13.5 14.34375q-8.75 5.125 -20.765625 5.125zm0.09375 -17.03125q5.46875 0 9.125 -3.125q3.671875 -3.125 5.5625 -8.53125q1.890625 -5.421875 1.890625 -12.34375q0 -6.90625 -1.890625 -12.328125q-1.890625 -5.421875 -5.5625 -8.5625q-3.65625 -3.15625 -9.125 -3.15625q-5.515625 0 -9.265625 3.15625q-3.734375 3.140625 -5.625 8.5625q-1.875 5.421875 -1.875 12.328125q0 6.921875 1.875 12.34375q1.890625 5.40625 5.625 8.53125q3.75 3.125 9.265625 3.125zm53.256897 15.484375l0 -79.26561l20.953125 0l0 13.984375l0.9375 0q2.46875 -6.96875 8.25 -10.984375q5.78125 -4.03125 13.8437195 -4.03125q8.140625 0 13.875 4.046875q5.734375 4.046875 7.640625 10.96875l0.828125 0q2.421875 -6.8125 8.796875 -10.90625q6.375 -4.109375 15.09375 -4.109375q11.09375 0 18.03125 7.046875q6.953125 7.03125 6.953125 19.937485l0 53.3125l-21.9375 0l0 -48.96875q0 -6.609375 -3.515625 -9.90625q-3.5 -3.3125 -8.765625 -3.3125q-5.984375 0 -9.34375 3.796875q-3.359375 3.796875 -3.359375 9.984375l0 48.40625l-21.3125 0l0 -49.4375q0 -5.828125 -3.328125 -9.28125q-3.328125 -3.46875 -8.7499695 -3.46875q-3.65625 0 -6.578125 1.828125q-2.90625 1.828125 -4.609375 5.109375q-1.703125 3.28125 -1.703125 7.671875l0 47.578125l-22.0 0zm132.52957 0l0 -79.26561l20.953125 0l0 13.984375l0.9375 0q2.46875 -6.96875 8.25 -10.984375q5.78125 -4.03125 13.84375 -4.03125q8.140625 0 13.875 4.046875q5.734375 4.046875 7.640625 10.96875l0.828125 0q2.421875 -6.8125 8.796875 -10.90625q6.375 -4.109375 15.09375 -4.109375q11.09375 0 18.03125 7.046875q6.953125 7.03125 6.953125 19.937485l0 53.3125l-21.9375 0l0 -48.96875q0 -6.609375 -3.515625 -9.90625q-3.5 -3.3125 -8.765625 -3.3125q-5.984375 0 -9.34375 3.796875q-3.359375 3.796875 -3.359375 9.984375l0 48.40625l-21.3125 0l0 -49.4375q0 -5.828125 -3.328125 -9.28125q-3.328125 -3.46875 -8.75 -3.46875q-3.65625 0 -6.578125 1.828125q-2.90625 1.828125 -4.609375 5.109375q-1.703125 3.28125 -1.703125 7.671875l0 47.578125l-22.0 0zm155.13898 1.5q-7.578125 0 -13.515625 -2.65625q-5.9375 -2.65625 -9.3750305 -7.890625q-3.421875 -5.25 -3.421875 -13.09375q0 -6.609375 2.421875 -11.09375q2.4219055 -4.484375 6.5937805 -7.21875q4.1875 -2.75 9.53125 -4.140625q5.34375 -1.390625 11.21875 -1.953125q6.921814 -0.71875 11.156189 -1.359375q4.234375 -0.65625 6.140625 -1.9375q1.90625 -1.296875 1.90625 -3.828125l0 -0.3125q0 -4.90625 -3.078125 -7.578125q-3.0625 -2.6875 -8.6875 -2.6875q-5.937439 0 -9.453064 2.609375q-3.5 2.59375 -4.640625 6.515625l-20.328156 -1.640625q1.5469055 -7.234375 6.0781555 -12.51561q4.546875 -5.296875 11.75 -8.15625q7.203125 -2.859375 16.703064 -2.859375q6.59375 0 12.65625 1.546875q6.078125 1.546875 10.796875 4.796875q4.71875 3.25 7.453125 8.34375q2.734375 5.0781097 2.734375 12.14061l0 53.46875l-20.84375 0l0 -11.0l-0.625 0q-1.90625 3.71875 -5.109375 6.53125q-3.203125 2.8125 -7.6875 4.390625q-4.484314 1.578125 -10.374939 1.578125zm6.296875 -15.171875q4.859314 0 8.562439 -1.9375q3.71875 -1.9375 5.828125 -5.234375q2.125 -3.3125 2.125 -7.484375l0 -8.421875q-1.03125 0.671875 -2.8125 1.21875q-1.78125 0.546875 -4.0 0.984375q-2.21875 0.4375 -4.4375 0.78125q-2.21875 0.328125 -4.031189 0.578125q-3.859375 0.578125 -6.75 1.8125q-2.890625 1.234375 -4.5 3.328125q-1.59375 2.09375 -1.59375 5.1875q0 4.484375 3.265625 6.84375q3.28125 2.34375 8.34375 2.34375zm77.421326 -32.15625l0 45.828125l-22.0 0l0 -79.26561l20.953125 0l0 13.984375l0.9375 0q2.625 -6.921875 8.8125 -10.96875q6.203125 -4.046875 15.03125 -4.046875q8.25 0 14.390625 3.609375q6.140625 3.609375 9.546875 10.296875q3.40625 6.6874847 3.40625 15.92186l0 50.46875l-21.984375 0l0 -46.546875q0.0625 -7.28125 -3.71875 -11.375q-3.765625 -4.109375 -10.359375 -4.109375q-4.4375 0 -7.828125 1.90625q-3.375 1.90625 -5.265625 5.546875q-1.875 3.640625 -1.921875 8.75zm97.58447 47.125q-9.03125 0 -16.34375 -4.671875q-7.296875 -4.671875 -11.5625 -13.78125q-4.25 -9.109375 -4.25 -22.375q0 -13.625 4.390625 -22.671875q4.390625 -9.062485 11.6875 -13.57811q7.296875 -4.515625 16.03125 -4.515625q6.65625 0 11.109375 2.25q4.46875 2.234375 7.234375 5.5625q2.765625 3.328125 4.203125 6.53125l0.671875 0l0 -39.734375l21.9375 0l0 105.687485l-21.6875 0l0 -12.703125l-0.921875 0q-1.546875 3.3125 -4.359375 6.546875q-2.8125 3.21875 -7.28125 5.34375q-4.453125 2.109375 -10.859375 2.109375zm6.96875 -17.5q5.3125 0 9.0 -2.90625q3.6875 -2.921875 5.671875 -8.1875q2.0 -5.265625 2.0 -12.34375q0 -7.0625 -1.96875 -12.265625q-1.953125 -5.21875 -5.671875 -8.0625q-3.71875 -2.84375 -9.03125 -2.84375q-5.421875 0 -9.140625 2.953125q-3.71875 2.9375 -5.625 8.15625q-1.90625 5.203125 -1.90625 12.0625q0 6.921875 1.9375 12.21875q1.9375 5.28125 5.625 8.25q3.6875 2.96875 9.109375 2.96875zm92.27997 17.75q-12.234375 0 -21.046875 -4.96875q-8.796875 -4.984375 -13.546875 -14.140625q-4.734375 -9.171875 -4.734375 -21.71875q0 -12.21875 4.734375 -21.453125q4.75 -9.249985 13.390625 -14.406235q8.65625 -5.15625 20.3125 -5.15625q7.84375 0 14.625 2.5q6.796875 2.5 11.875 7.515625q5.09375 5.0 7.921875 12.562485q2.84375 7.5625 2.84375 17.671875l0 6.03125l-66.9375 0l0 -13.625l46.25 0q0 -4.734375 -2.078125 -8.390625q-2.0625 -3.671875 -5.703125 -5.765625q-3.625 -2.09375 -8.421875 -2.09375q-5.015625 0 -8.859375 2.296875q-3.84375 2.296875 -6.015625 6.140625q-2.15625 3.84375 -2.21875 8.546875l0 12.953125q0 5.875 2.1875 10.15625q2.203125 4.28125 6.21875 6.609375q4.03125 2.328125 9.5625 2.328125q3.65625 0 6.703125 -1.03125q3.046875 -1.03125 5.203125 -3.09375q2.171875 -2.078125 3.3125 -5.0625l20.328125 1.34375q-1.546875 7.328125 -6.328125 12.78125q-4.765625 5.4375 -12.28125 8.453125q-7.5 3.015625 -17.296875 3.015625zm50.71576 -1.546875l0 -79.26561l21.328125 0l0 13.828125l0.8125 0q2.171875 -7.375 7.28125 -11.171875q5.109375 -3.796875 11.765625 -3.796875q1.65625 0 3.5625 0.203125q1.90625 0.203125 3.359375 0.578125l0 19.499985q-1.546875 -0.46875 -4.28125 -0.828125q-2.734375 -0.359375 -5.015625 -0.359375q-4.84375 0 -8.640625 2.09375q-3.796875 2.09375 -5.984375 5.8125q-2.1875 3.703125 -2.1875 8.5625l0 44.84375l-22.0 0z" fill-rule="nonzero"/></g></svg>